<?xml version="1.0" encoding="iso-8859-1"?>
<!-- Generator: Adobe Illustrator 19.0.0, SVG Export Plug-In . SVG Version: 6.00 Build 0)  -->
<svg version="1.1" id="Capa_1" xmlns="http://www.w3.org/2000/svg" xmlns:xlink="http://www.w3.org/1999/xlink" x="0px" y="0px"
	 viewBox="0 0 480 480" style="enable-background:new 0 0 480 480;" xml:space="preserve">
<g>
	<g>
		<path d="M479.92,190.864l-8-56c-0.568-3.936-3.936-6.864-7.92-6.864v-24c0-4.416-3.584-8-8-8h-32v-8h-16v8h-32
			c-4.416,0-8,3.584-8,8v24h-9.752L343.76,70.056C342.872,66.504,339.672,64,336,64H232c-3.672,0-6.872,2.496-7.76,6.056
			L209.752,128H208v-24c0-4.416-3.584-8-8-8h-64c-4.416,0-8,3.584-8,8v24h-16v-24c0-4.416-3.584-8-8-8H16c-4.416,0-8,3.584-8,8
			v31.44l-7.92,55.424C0.024,191.248,0,191.624,0,192v192c0,0.856,0.136,1.712,0.408,2.528l8,24C9.504,413.8,12.56,416,16,416h448
			c3.44,0,6.496-2.2,7.592-5.472l8-24C479.864,385.72,480,384.864,480,384V192C480,191.624,479.976,191.24,479.92,190.864z M384,112
			h64v16h-64V112z M144,112h48v16h-48V112z M24,112h72v16H24V112z M80,400H21.768L16,382.704V208h64V400z M464,382.712L458.232,400
			H96V200c0-4.416-3.584-8-8-8H16.08l6.856-48H104h32h64h16c3.672,0,6.872-2.496,7.76-6.056L238.248,80h91.504l14.488,57.944
			c0.888,3.56,4.088,6.056,7.76,6.056h24h80h1.064L464,192.576V382.712z"/>
	</g>
</g>
<g>
	<g>
		<path d="M280,160c-61.76,0-112,50.24-112,112s50.24,112,112,112s112-50.24,112-112S341.76,160,280,160z M280,368
			c-52.936,0-96-43.064-96-96c0-52.936,43.064-96,96-96c52.936,0,96,43.064,96,96C376,324.936,332.936,368,280,368z"/>
	</g>
</g>
<g>
	<g>
		<path d="M280,192c-44.112,0-80,35.888-80,80s35.888,80,80,80s80-35.888,80-80S324.112,192,280,192z M280,336
			c-35.288,0-64-28.712-64-64c0-35.288,28.712-64,64-64c35.288,0,64,28.712,64,64C344,307.288,315.288,336,280,336z"/>
	</g>
</g>
<g>
	<g>
		<path d="M280,224c-0.656,0-1.288,0.064-1.752,0.152c-2.528,0.104-4.864,1.4-6.288,3.496c-1.424,2.096-1.776,4.744-0.944,7.136
			C271.68,236.672,272,238.376,272,240c0,8.824-7.176,16-16,16c-3.28,0-6.464-1.024-9.2-2.968c-2.072-1.464-4.712-1.872-7.128-1.072
			c-2.408,0.792-4.304,2.68-5.096,5.096C232.84,262.32,232,267.208,232,272c0,26.472,21.528,48,48,48s48-21.528,48-48
			S306.472,224,280,224z M280,304c-17.648,0-32-14.352-32-32c0-0.336,0.008-0.672,0.016-1.008c2.592,0.672,5.272,1.008,7.984,1.008
			c17.312,0,31.448-13.816,31.984-30.992C301.776,244.568,312,257.112,312,272C312,289.648,297.648,304,280,304z"/>
	</g>
</g>
<g>
	<g>
		<rect x="376" y="160" width="16" height="16"/>
	</g>
</g>
<g>
	<g>
		<rect x="408" y="160" width="32" height="16"/>
	</g>
</g>
<g>
	<g>
		<rect x="144" y="216" width="16" height="16"/>
	</g>
</g>
<g>
	<g>
		<rect x="160" y="160" width="16" height="16"/>
	</g>
</g>
<g>
	<g>
		<path d="M424,328c-13.232,0-24,10.768-24,24s10.768,24,24,24s24-10.768,24-24S437.232,328,424,328z M424,360c-4.408,0-8-3.592-8-8
			c0-4.408,3.592-8,8-8c4.408,0,8,3.592,8,8C432,356.408,428.408,360,424,360z"/>
	</g>
</g>
<g>
	<g>
		<rect x="256" y="104" width="56" height="16"/>
	</g>
</g>
<g>
	<g>
		<rect x="72" y="160" width="56" height="16"/>
	</g>
</g>
<g>
</g>
<g>
</g>
<g>
</g>
<g>
</g>
<g>
</g>
<g>
</g>
<g>
</g>
<g>
</g>
<g>
</g>
<g>
</g>
<g>
</g>
<g>
</g>
<g>
</g>
<g>
</g>
<g>
</g>
</svg>
