<?xml version="1.0" encoding="iso-8859-1"?>
<!-- Generator: Adobe Illustrator 19.0.0, SVG Export Plug-In . SVG Version: 6.00 Build 0)  -->
<svg version="1.1" id="Capa_1" xmlns="http://www.w3.org/2000/svg" xmlns:xlink="http://www.w3.org/1999/xlink" x="0px" y="0px"
	 viewBox="0 0 481.944 481.944" style="enable-background:new 0 0 481.944 481.944;" xml:space="preserve">
<g>
	<g>
		<path d="M332.972,112v104c0,34.112-19.552,63.688-48,78.288V64c0-4.416-3.576-8-8-8h-72V32c0-4.416-3.576-8-8-8h-48V0h-16v24h-48
			c-4.424,0-8,3.584-8,8v24h-64c-4.424,0-8,3.584-8,8v288c0,4.416,3.576,8,8,8h32v24c0,4.416,3.576,8,8,8h29.76l-21.52,86.056
			l15.512,3.88L99.212,392h41.76v88h16v-88h41.76l22.488,89.944l15.512-3.88L215.212,392h29.76c4.424,0,8-3.584,8-8v-24h24
			c4.424,0,8-3.584,8-8v-40.024c37.544-15.704,64-52.8,64-95.976V112c0-48.52,39.48-88,88-88V8
			C379.628,8,332.972,54.656,332.972,112z M92.972,40h96v16h-96V40z M236.972,376h-176v-16h176V376z M268.972,300.592
			c-7.64,2.168-15.672,3.408-24,3.408h-96v16h96c8.272,0,16.28-1.072,24-2.904V344h-24h-192h-32V72h64h112h72V300.592z"/>
	</g>
</g>
<g>
	<g>
		<path d="M460.972,207.712v-47.408c8.616-6.52,16-18.448,16-40.304c0-33.296-32.312-75.152-33.688-76.92
			c-3.032-3.888-9.592-3.888-12.624,0c-1.376,1.768-33.688,43.624-33.688,76.92c0,21.856,7.384,33.784,16,40.304v47.408
			l-7.968,95.624c-0.032,0.336-0.04,0.672-0.024,1.008l7.2,168c0.184,4.28,3.712,7.656,7.992,7.656h33.6
			c4.28,0,7.816-3.376,7.992-7.656l7.2-168c0.016-0.336,0.008-0.672-0.024-1.008L460.972,207.712z M446.108,464h-18.264
			l-6.848-159.84l7.336-88.16h17.28l7.344,88.16L446.108,464z M428.972,200v-32.688c0.256,0.048,0.536,0.024,0.792,0.064
			c2.92,0.504,5.44,0.624,7.208,0.624s4.288-0.12,7.208-0.616c0.256-0.048,0.536-0.024,0.792-0.072V200H428.972z M438.364,151.832
			c-0.944,0.048-1.84,0.048-2.784,0c-5.4-0.984-20.312-7.096-22.368-27.096c-0.104-1.552-0.24-3.056-0.24-4.736
			c0-19.72,15.12-45.048,24-58.224c8.88,13.176,24,38.496,24,58.224c0,1.68-0.136,3.184-0.24,4.736
			C458.676,144.736,443.764,150.856,438.364,151.832z"/>
	</g>
</g>
<g>
	<g>
		<path d="M220.364,180.936c-1.232-2.984-4.16-4.936-7.392-4.936H126.58l82.944-57.424c2.872-1.992,4.128-5.624,3.08-8.968
			c-1.04-3.336-4.128-5.608-7.632-5.608h-104v16h78.392L96.42,177.424c-2.872,1.992-4.128,5.624-3.08,8.968
			c1.04,3.336,4.128,5.608,7.632,5.608h92.688l-50.344,50.344c-1.504,1.496-2.344,3.536-2.344,5.656v40h16v-36.688l61.656-61.656
			C220.916,187.368,221.604,183.928,220.364,180.936z"/>
	</g>
</g>
<g>
</g>
<g>
</g>
<g>
</g>
<g>
</g>
<g>
</g>
<g>
</g>
<g>
</g>
<g>
</g>
<g>
</g>
<g>
</g>
<g>
</g>
<g>
</g>
<g>
</g>
<g>
</g>
<g>
</g>
</svg>
