<?xml version="1.0" encoding="iso-8859-1"?>
<!-- Generator: Adobe Illustrator 19.0.0, SVG Export Plug-In . SVG Version: 6.00 Build 0)  -->
<svg version="1.1" id="Capa_1" xmlns="http://www.w3.org/2000/svg" xmlns:xlink="http://www.w3.org/1999/xlink" x="0px" y="0px"
	 viewBox="0 0 480 480" style="enable-background:new 0 0 480 480;" xml:space="preserve">
<g>
	<g>
		<path d="M240,0C107.664,0,0,107.664,0,240s107.664,240,240,240s240-107.664,240-240S372.336,0,240,0z M240,464
			C116.488,464,16,363.512,16,240S116.488,16,240,16s224,100.488,224,224S363.512,464,240,464z"/>
	</g>
</g>
<g>
	<g>
		<path d="M240,32C125.304,32,32,125.312,32,240s93.304,208,208,208s208-93.312,208-208S354.696,32,240,32z M240,432
			c-105.864,0-192-86.136-192-192S134.136,48,240,48s192,86.136,192,192S345.864,432,240,432z"/>
	</g>
</g>
<g>
	<g>
		<path d="M383.16,316.424L368,286.112V216v-40c0-0.152-0.08-0.28-0.088-0.424c-0.04-0.696-0.192-1.344-0.4-2
			c-0.096-0.296-0.136-0.6-0.264-0.872c-0.36-0.792-0.856-1.52-1.456-2.16c-0.064-0.064-0.088-0.152-0.152-0.216
			c-0.64-0.64-1.4-1.184-2.256-1.584l-120-56c-2.144-1-4.624-1-6.768,0l-120,56c-0.856,0.4-1.616,0.944-2.256,1.584
			c-0.064,0.064-0.096,0.152-0.152,0.216c-0.6,0.64-1.096,1.368-1.456,2.16c-0.128,0.272-0.168,0.576-0.264,0.872
			c-0.208,0.648-0.368,1.304-0.4,2C112.08,175.72,112,175.848,112,176v40v70.112l-15.16,30.312c-1.24,2.48-1.112,5.424,0.352,7.784
			C98.656,326.56,101.224,328,104,328h272c2.776,0,5.344-1.44,6.808-3.792C384.272,321.848,384.4,318.904,383.16,316.424z
			 M240,128.832L323.936,168H156.064L240,128.832z M128,184h224v24h-32h-40h-40h-40h-40h-32V184z M352,224v56h-24v-56H352z M312,224
			v56h-24v-56H312z M272,224v56h-24v-56H272z M232,224v56h-24v-56H232z M192,224v56h-24v-56H192z M128,224h24v56h-24V224z
			 M116.944,312l8-16H160h40h40h40h40h35.056l8,16H116.944z"/>
	</g>
</g>
<g>
	<g>
		<path d="M316.208,373.536c-4.44,2.392-9.048,4.592-13.72,6.544l6.168,14.768c5.16-2.16,10.248-4.584,15.144-7.232L316.208,373.536
			z"/>
	</g>
</g>
<g>
	<g>
		<path d="M341.368,356.544c-3.872,3.216-7.968,6.28-12.168,9.12l8.952,13.256c4.632-3.128,9.152-6.512,13.432-10.064
			L341.368,356.544z"/>
	</g>
</g>
<g>
	<g>
		<path d="M183.904,380.32l-6.112,14.792c5.136,2.12,10.456,4.016,15.808,5.632l4.624-15.32
			C193.376,383.96,188.552,382.248,183.904,380.32z"/>
	</g>
</g>
<g>
	<g>
		<path d="M133.664,346.704l-11.32,11.312c3.952,3.952,8.136,7.744,12.424,11.272l10.16-12.36
			C141.04,353.736,137.248,350.288,133.664,346.704z"/>
	</g>
</g>
<g>
	<g>
		<path d="M212.976,389.096l-3.088,15.688c5.464,1.072,11.048,1.888,16.608,2.432l1.528-15.928
			C222.984,390.8,217.92,390.064,212.976,389.096z"/>
	</g>
</g>
<g>
	<g>
		<path d="M288.184,385.248c-4.816,1.472-9.768,2.72-14.728,3.72l3.144,15.688c5.488-1.096,10.96-2.488,16.272-4.112
			L288.184,385.248z"/>
	</g>
</g>
<g>
	<g>
		<path d="M258.408,391.224c-5.04,0.504-10.16,0.768-15.192,0.776l0.032,16c5.552-0.008,11.184-0.304,16.752-0.856L258.408,391.224z
			"/>
	</g>
</g>
<g>
	<g>
		<path d="M157.12,366.008l-8.904,13.296c4.632,3.096,9.48,6.008,14.4,8.64l7.544-14.112
			C165.696,371.448,161.312,368.816,157.12,366.008z"/>
	</g>
</g>
<g>
	<g>
		<path d="M162.624,92.424c-4.92,2.632-9.768,5.536-14.4,8.64l8.904,13.296c4.184-2.808,8.576-5.44,13.04-7.824L162.624,92.424z"/>
	</g>
</g>
<g>
	<g>
		<path d="M276.592,75.712L273.448,91.4c4.96,1,9.912,2.248,14.728,3.72l4.688-15.296C287.552,78.192,282.072,76.808,276.592,75.712
			z"/>
	</g>
</g>
<g>
	<g>
		<path d="M243.248,72.36l-0.032,16c5.032,0.008,10.152,0.272,15.184,0.776l1.6-15.92C254.44,72.664,248.808,72.376,243.248,72.36z"
			/>
	</g>
</g>
<g>
	<g>
		<path d="M193.592,79.624c-5.352,1.616-10.672,3.512-15.808,5.632l6.112,14.792c4.648-1.928,9.472-3.648,14.32-5.104
			L193.592,79.624z"/>
	</g>
</g>
<g>
	<g>
		<path d="M134.76,111.072c-4.288,3.52-8.472,7.32-12.424,11.272l11.312,11.312c3.592-3.584,7.384-7.024,11.272-10.224
			L134.76,111.072z"/>
	</g>
</g>
<g>
	<g>
		<path d="M308.656,85.52l-6.168,14.768c4.672,1.952,9.28,4.152,13.72,6.544l7.592-14.08
			C318.912,90.104,313.816,87.68,308.656,85.52z"/>
	</g>
</g>
<g>
	<g>
		<path d="M338.152,101.44l-8.952,13.256c4.192,2.832,8.288,5.904,12.168,9.12l10.216-12.312
			C347.304,107.952,342.784,104.568,338.152,101.44z"/>
	</g>
</g>
<g>
	<g>
		<path d="M226.504,73.152c-5.56,0.536-11.152,1.352-16.608,2.432l3.096,15.696c4.936-0.968,10-1.712,15.04-2.2L226.504,73.152z"/>
	</g>
</g>
<g>
</g>
<g>
</g>
<g>
</g>
<g>
</g>
<g>
</g>
<g>
</g>
<g>
</g>
<g>
</g>
<g>
</g>
<g>
</g>
<g>
</g>
<g>
</g>
<g>
</g>
<g>
</g>
<g>
</g>
</svg>
