<?xml version="1.0" encoding="iso-8859-1"?>
<!-- Generator: Adobe Illustrator 19.0.0, SVG Export Plug-In . SVG Version: 6.00 Build 0)  -->
<svg version="1.1" id="Capa_1" xmlns="http://www.w3.org/2000/svg" xmlns:xlink="http://www.w3.org/1999/xlink" x="0px" y="0px"
	 viewBox="0 0 511.999 511.999" style="enable-background:new 0 0 511.999 511.999;" xml:space="preserve">
<g>
	<g>
		<path d="M506.76,218.817l-16.732-23.897c-3.177-4.536-9.43-5.641-13.968-2.463c-4.537,3.176-5.64,9.429-2.464,13.968
			l16.734,23.901c1.358,1.939,1.88,4.29,1.468,6.625c-0.411,2.335-1.707,4.369-3.654,5.732c-1.939,1.358-4.291,1.877-6.62,1.468
			c-2.333-0.411-4.366-1.707-5.726-3.651l-41.2-58.841c-2.682-3.831-7.655-5.301-11.988-3.54c-4.333,1.759-6.875,6.278-6.128,10.895
			l21.235,131.243h-11.335c-5.539,0-10.029,4.491-10.029,10.029v77.675h-26.948v-77.675c0-5.538-4.49-10.029-10.029-10.029
			c-5.539,0-10.029,4.491-10.029,10.029v77.675h-26.938v-26.552c1.387-0.653,2.727-1.413,3.989-2.301
			c7.155-5.01,11.426-13.218,11.426-21.954c0-5.43-1.622-10.656-4.694-15.132l-28.299-45.141l17.45-107.848
			c0.747-4.616-1.795-9.135-6.128-10.895c-4.333-1.76-9.306-0.29-11.988,3.539l-27.161,38.788
			c-2.428-5.879-6.093-11.197-10.756-15.588l48.041-68.611c2.071-2.96,5.471-4.727,9.093-4.727h72.009
			c3.617,0,7.012,1.767,9.084,4.729l19.754,28.215c3.177,4.538,9.43,5.642,13.968,2.463c4.537-3.176,5.64-9.429,2.464-13.968
			l-19.753-28.213c-5.191-7.418-13.342-12.159-22.248-13.101c5.988-8.106,9.538-18.119,9.538-28.948
			c0-26.92-21.902-48.822-48.822-48.822s-48.822,21.902-48.822,48.822c0,10.829,3.549,20.844,9.539,28.949
			c-8.904,0.946-17.051,5.687-22.237,13.098l-48.976,69.948c-4.327-1.352-8.856-2.065-13.423-2.065
			c-4.244,0-8.467,0.623-12.518,1.793l-48.807-69.704c-5.191-7.418-13.342-12.159-22.247-13.101
			c5.988-8.106,9.538-18.119,9.538-28.947c0-26.921-21.902-48.823-48.822-48.823c-26.915,0-48.812,21.902-48.812,48.823
			c0,10.828,3.548,20.842,9.536,28.948c-8.895,0.945-17.042,5.682-22.245,13.098L5.239,218.778
			c-4.432,6.332-6.134,14.01-4.792,21.619c1.342,7.612,5.568,14.243,11.906,18.679c4.894,3.421,10.623,5.229,16.568,5.229
			c9.429,0,18.291-4.606,23.711-12.331l16.081-22.968l-16.125,99.647c-0.469,2.902,0.358,5.865,2.264,8.103
			c1.906,2.238,4.698,3.529,7.637,3.529h13.088v77.676c0,5.538,4.49,10.029,10.029,10.029h46.996h47.007
			c5.539,0,10.029-4.491,10.029-10.029v-35.843c4.864-1.899,9.143-5.195,12.215-9.582c0.189-0.27,0.364-0.549,0.526-0.835
			l1.369-2.433v22.898v75.942c0,5.538,4.49,10.029,10.029,10.029h41.681h41.681c5.539,0,10.029-4.491,10.029-10.029v-75.942v-22.933
			l1.39,2.47c0.161,0.285,0.335,0.562,0.523,0.829c3.292,4.703,7.988,8.142,13.272,9.958v35.5c0,5.538,4.49,10.029,10.029,10.029
			h46.996h47.007c5.539,0,10.029-4.491,10.029-10.029v-77.675h13.088c2.94,0,5.732-1.29,7.637-3.529
			c1.906-2.237,2.733-5.2,2.264-8.103l-16.126-99.662l16.091,22.982c4.432,6.331,11.064,10.558,18.674,11.9
			c7.609,1.343,15.285-0.36,21.61-4.79c6.332-4.432,10.56-11.066,11.902-18.68S511.191,225.141,506.76,218.817z M379.378,53.953
			c15.86,0,28.764,12.902,28.764,28.764c0,15.861-12.903,28.765-28.764,28.765c-15.86,0-28.763-12.904-28.763-28.765
			C350.614,66.855,363.518,53.953,379.378,53.953z M296.864,255.136c0.93-0.999,1.789-2.045,2.543-3.131l16.084-22.968
			l-6.922,42.778c-4.239-4.61-9.866-7.713-16.001-8.837C294.241,260.54,295.686,257.917,296.864,255.136z M243.902,215.542
			c0.07-0.036,0.142-0.066,0.212-0.104c3.516-1.81,7.331-2.734,11.345-2.734c4.246,0,8.432,1.085,12.105,3.138
			c0.003,0.002,0.006,0.004,0.01,0.006c7.887,4.398,12.787,12.735,12.787,21.758c0,2.921-0.496,5.774-1.477,8.481
			c-3.555,9.823-12.97,16.422-23.425,16.422c-11.043,0-20.617-7.085-23.824-17.641c-0.715-2.342-1.078-4.785-1.078-7.261
			C230.556,228.319,235.666,219.869,243.902,215.542z M132.601,53.923c15.86,0,28.763,12.903,28.763,28.765
			s-12.903,28.764-28.763,28.764c-15.855,0-28.754-12.902-28.754-28.764S116.747,53.923,132.601,53.923z M169.579,407.931h-26.948
			v-77.676c0-5.538-4.49-10.029-10.029-10.029c-5.539,0-10.029,4.491-10.029,10.029v77.676H95.635v-77.676
			c0-5.538-4.49-10.029-10.029-10.029H74.27l21.236-131.234c0.747-4.616-1.795-9.135-6.128-10.895
			c-4.333-1.76-9.305-0.29-11.988,3.54l-41.185,58.823c-1.663,2.37-4.387,3.785-7.285,3.785c-1.813,0-3.568-0.558-5.071-1.609
			c-1.942-1.358-3.238-3.392-3.649-5.725c-0.412-2.333,0.11-4.69,1.47-6.631l65.836-94.036c2.08-2.966,5.482-4.737,9.099-4.737
			h72.009c3.617,0,7.012,1.767,9.085,4.729l47.623,68.015c-4.725,4.259-8.474,9.438-11.013,15.206l-26.488-37.829
			c-2.681-3.831-7.655-5.3-11.988-3.54c-4.333,1.759-6.875,6.279-6.128,10.895l17.24,106.548l-29.158,46.499
			c-8.264,12.089-5.268,28.668,6.746,37.076c1.59,1.114,3.281,2.039,5.044,2.777V407.931z M218.305,262.99
			c-5.685,1.052-10.93,3.799-15.03,7.871l-6.775-41.87l16.056,22.932c0.164,0.238,0.346,0.471,0.521,0.707
			C214.391,256.363,216.161,259.831,218.305,262.99z M334.873,362.692c-0.985,0.693-2.083,1.091-3.296,1.184
			c-2.283,0.174-4.439-0.759-5.835-2.536l-19.865-35.282c-2.237-3.973-6.874-5.939-11.283-4.781
			c-4.41,1.155-7.486,5.142-7.486,9.701v61.188v65.912h-21.623v-65.912c0-5.538-4.49-10.029-10.029-10.029
			c-5.539,0-10.029,4.491-10.029,10.029v65.912h-21.623v-65.912v-61.167c0-4.56-3.076-8.546-7.487-9.702
			c-4.411-1.155-9.046,0.81-11.283,4.784l-19.842,35.255c-1.275,1.615-3.23,2.568-5.307,2.568h-0.167
			c-1.335-0.038-2.57-0.449-3.68-1.228c-3.041-2.127-3.781-6.337-1.651-9.384c0.095-0.137,0.189-0.276,0.277-0.418l41.865-66.764
			c1.628-2.221,4.231-3.541,7.004-3.541h63.866c2.766,0,5.371,1.322,7.007,3.547l41.851,66.758c0.094,0.147,0.191,0.292,0.291,0.435
			c1.007,1.434,1.218,2.882,1.218,3.845C337.767,359.353,336.692,361.418,334.873,362.692z"/>
	</g>
</g>
<g>
	<g>
		<path d="M465.357,170c-12.906,0-12.928,20.058,0,20.058C478.264,190.058,478.285,170,465.357,170z"/>
	</g>
</g>
<g>
</g>
<g>
</g>
<g>
</g>
<g>
</g>
<g>
</g>
<g>
</g>
<g>
</g>
<g>
</g>
<g>
</g>
<g>
</g>
<g>
</g>
<g>
</g>
<g>
</g>
<g>
</g>
<g>
</g>
</svg>
