<?xml version="1.0" encoding="iso-8859-1"?>
<!-- Generator: Adobe Illustrator 19.0.0, SVG Export Plug-In . SVG Version: 6.00 Build 0)  -->
<svg version="1.1" id="Capa_1" xmlns="http://www.w3.org/2000/svg" xmlns:xlink="http://www.w3.org/1999/xlink" x="0px" y="0px"
	 viewBox="0 0 496 496" style="enable-background:new 0 0 496 496;" xml:space="preserve">
<g>
	<g>
		<path d="M394.16,424c3.84-4.256,6.24-9.832,6.24-16c0-13.232-10.768-24-24-24h-80c-13.232,0-24,10.768-24,24v8h-200
			c-13.232,0-24,10.768-24,24s10.768,24,24,24h200v8c0,13.232,10.768,24,24,24h80c13.232,0,24-10.768,24-24
			c0-6.168-2.408-11.744-6.24-16c3.84-4.256,6.24-9.832,6.24-16C400.4,433.832,397.992,428.256,394.16,424z M376.4,432
			c4.416,0,8,3.592,8,8c0,4.408-3.584,8-8,8h-64v16h64c4.416,0,8,3.592,8,8c0,4.408-3.584,8-8,8h-80c-4.416,0-8-3.592-8-8v-16
			c0-4.416-3.576-8-8-8h-208c-4.416,0-8-3.592-8-8c0-4.408,3.584-8,8-8h208c4.424,0,8-3.584,8-8v-16c0-4.408,3.584-8,8-8h80
			c4.416,0,8,3.592,8,8c0,4.408-3.584,8-8,8h-64v16H376.4z"/>
	</g>
</g>
<g>
	<g>
		<path d="M376.4,320h-320c-4.424,0-8,3.584-8,8c0,22.416,16.008,41.592,38.056,45.592l144.512,26.28
			c0.48,0.088,0.96,0.128,1.432,0.128c2.992,0,5.784-1.68,7.152-4.424L253.344,368H376.4c13.232,0,24-10.768,24-24
			S389.632,320,376.4,320z M376.4,352h-128c-3.032,0-5.8,1.712-7.16,4.424l-13.312,26.632l-138.616-25.2
			C77.592,355.72,68.48,347.04,65.472,336H376.4c4.416,0,8,3.592,8,8C384.4,348.408,380.816,352,376.4,352z"/>
	</g>
</g>
<g>
	<g>
		<path d="M462.216,32c-3.984-3.984-8.952-6.808-14.4-8.224c-1.424-5.448-4.24-10.416-8.224-14.4C433.552,3.328,425.52,0,416.968,0
			s-16.584,3.328-22.624,9.376c-6.048,6.04-9.376,14.08-9.376,22.624c0,5.816,1.536,11.384,4.424,16.264l-25.944,25.944
			c-19.464-5.264-47.56-0.912-77.096,13.24C269.136,82.568,250.552,80,232.4,80c-96.16,0-168,67.576-168,128
			c0,13.248,3.064,25.304,9.128,35.96c-13.616,7.16-22.672,20.912-23.872,22.816c-1.784,2.8-1.648,6.416,0.336,9.072
			c0.832,1.112,20.6,27.216,46.416,27.216c9.176,0,18.088-1.664,25.752-4.816c10.848-4.464,23.656-5.272,36.064-2.312
			C180.592,301.288,205.552,304,232.4,304c102.056,0,168-37.68,168-96c0-21.648-9.28-44.512-26.256-64.936
			c6.568-8.712,11.064-17.432,13.424-25.728l0.312,0.312l35.464-35.456c12.048,7.128,28.744,5.208,38.88-4.952
			c6.048-6.04,9.376-14.08,9.376-22.624C471.592,46.08,468.264,38.04,462.216,32z M384.4,208c0,55.264-76.344,80-152,80
			c-25.592,0-49.304-2.568-70.472-7.624c-6.112-1.464-12.312-2.184-18.44-2.184c-9.56,0-18.936,1.768-27.424,5.256
			c-5.752,2.36-12.552,3.608-19.672,3.608c-12.552,0-24.088-10.304-29.808-16.4c4.656-5.72,12.496-13.368,20.664-14.784
			c2.784-0.488,5.104-2.4,6.112-5.04s0.536-5.616-1.216-7.824C84.24,233.072,80.4,221.624,80.4,208c0-51.792,66.4-112,152-112
			c17.688,0,35.792,2.648,52.368,7.656c1.936,0.584,4.056,0.408,5.88-0.496c40.312-20.112,73.424-18.496,80.976-5.488
			c8.552,14.728-11.752,48.456-54.552,73.312c-20.24,11.752-41.32,19.024-59.352,20.472c-15.712,1.264-27.16-2.168-31.376-9.416
			l-13.832,8.04c7.528,12.968,23.984,19.12,46.488,17.328c20.368-1.632,43.84-9.656,66.104-22.584
			c15.144-8.792,28.144-18.92,38.416-29.456C377.032,172.336,384.4,190.8,384.4,208z M450.904,65.944
			c-6.048,6.04-16.576,6.04-22.624,0c-3.128-3.128-8.184-3.128-11.312,0L387.872,95.04c-0.624-1.872-1.408-3.68-2.408-5.4
			c-1.776-3.064-4.112-5.696-6.848-7.96l27.048-27.048c1.504-1.504,2.344-3.536,2.344-5.656s-0.848-4.152-2.344-5.656
			c-3.032-3.032-4.696-7.048-4.696-11.32s1.664-8.288,4.688-11.312c6.048-6.048,16.576-6.048,22.624,0
			c3.512,3.504,4.424,7.632,4.568,10.472c0.216,4.088,3.488,7.36,7.568,7.576c2.848,0.152,6.968,1.064,10.488,4.576
			c3.024,3.024,4.688,7.04,4.688,11.312C455.592,58.896,453.928,62.92,450.904,65.944z"/>
	</g>
</g>
<g>
	<g>
		<path d="M40.4,45.312c0-8.792,2.744-12.672,6.528-18.04C51.152,21.304,56.4,13.864,56.4,0h-16c0,8.792-2.744,12.664-6.528,18.04
			C29.648,24.016,24.4,31.448,24.4,45.312c0,13.872,5.248,21.304,9.464,27.288c3.8,5.376,6.536,9.264,6.536,18.056
			s-2.744,12.68-6.536,18.056C29.648,114.688,24.4,122.128,24.4,136h16c0-8.8,2.744-12.68,6.536-18.056
			c4.208-5.976,9.464-13.408,9.464-27.288c0-13.872-5.248-21.312-9.464-27.288C43.144,58,40.4,54.112,40.4,45.312z"/>
	</g>
</g>
<g>
	<g>
		<path d="M80.4,45.312c0-8.792,2.744-12.672,6.528-18.04C91.152,21.304,96.4,13.864,96.4,0h-16c0,8.792-2.744,12.664-6.528,18.04
			c-4.216,5.968-9.472,13.4-9.472,27.272s5.248,21.304,9.464,27.288c3.8,5.376,6.536,9.264,6.536,18.056s-2.744,12.68-6.536,18.056
			C69.648,114.688,64.4,122.128,64.4,136h16c0-8.8,2.744-12.68,6.536-18.056c4.208-5.976,9.464-13.408,9.464-27.288
			c0-13.872-5.248-21.304-9.464-27.288C83.144,58,80.4,54.112,80.4,45.312z"/>
	</g>
</g>
<g>
	<g>
		<path d="M120.4,45.312c0-8.792,2.744-12.672,6.528-18.04C131.152,21.304,136.4,13.864,136.4,0h-16
			c0,8.792-2.744,12.336-6.528,17.712c-4.224,5.968-9.472,13.072-9.472,26.936c0,13.872,5.248,20.648,9.464,26.624
			C117.656,76.648,120.4,80,120.4,88h16c0-8-5.248-19.984-9.464-25.96C123.136,56.664,120.4,54.104,120.4,45.312z"/>
	</g>
</g>
<g>
</g>
<g>
</g>
<g>
</g>
<g>
</g>
<g>
</g>
<g>
</g>
<g>
</g>
<g>
</g>
<g>
</g>
<g>
</g>
<g>
</g>
<g>
</g>
<g>
</g>
<g>
</g>
<g>
</g>
</svg>
