<?xml version="1.0" encoding="iso-8859-1"?>
<!-- Generator: Adobe Illustrator 19.0.0, SVG Export Plug-In . SVG Version: 6.00 Build 0)  -->
<svg version="1.1" id="Capa_1" xmlns="http://www.w3.org/2000/svg" xmlns:xlink="http://www.w3.org/1999/xlink" x="0px" y="0px"
	 viewBox="0 0 480 480" style="enable-background:new 0 0 480 480;" xml:space="preserve">
<g>
	<g>
		<path d="M456,264c-3.16,0-6.16,0.648-8.928,1.76C444.312,255.56,435.064,248,424,248c-2.816,0-5.488,0.576-8,1.472V248
			c0-13.232-10.768-24-24-24s-24,10.768-24,24v1.472c-2.512-0.896-5.184-1.472-8-1.472c-13.232,0-24,10.768-24,24v33.472
			c-2.512-0.896-5.184-1.472-8-1.472c-13.232,0-24,10.768-24,24v48c0,2.656,0,10.656,40,58.888V472c0,4.424,3.584,8,8,8h104
			c4.416,0,8-3.576,8-8v-31.28l15.872-87.288C479.96,352.96,480,352.48,480,352v-64C480,274.768,469.232,264,456,264z M464,351.28
			l-15.872,87.288C448.04,439.04,448,439.52,448,440v24h-88v-32c0-1.872-0.656-3.688-1.856-5.128
			c-16.832-20.2-35.944-45.328-38.144-51.544V328c0-4.416,3.592-8,8-8c4.408,0,8,3.584,8,8v8v16h16v-16v-8v-56c0-4.416,3.592-8,8-8
			c4.408,0,8,3.584,8,8v80h16v-80v-24c0-4.416,3.592-8,8-8c4.408,0,8,3.584,8,8v24v80h16v-80c0-4.416,3.592-8,8-8
			c4.408,0,8,3.584,8,8v16v48v16h16v-16v-48c0-4.416,3.592-8,8-8c4.408,0,8,3.584,8,8V351.28z"/>
	</g>
</g>
<g>
	<g>
		<path d="M352,0h-16c0,50.24-24.336,96.48-65.44,124.936c-0.208-0.16-0.448-0.272-0.656-0.424c-0.44-0.312-0.904-0.592-1.36-0.88
			c-0.784-0.48-1.584-0.92-2.416-1.312c-0.488-0.232-0.976-0.448-1.488-0.648c-0.912-0.352-1.848-0.632-2.8-0.872
			c-0.472-0.12-0.928-0.264-1.408-0.352c-1.448-0.272-2.92-0.448-4.432-0.448c-13.232,0-24,10.768-24,24c0,0.056,0,0.112,0,0.16
			c-7.928,2.656-16,4.648-24.112,5.944c-0.032-0.24-0.112-0.464-0.152-0.696c-0.072-0.456-0.176-0.896-0.288-1.344
			c-0.144-0.552-0.304-1.088-0.504-1.616c-0.152-0.416-0.32-0.824-0.512-1.224c-0.24-0.512-0.512-1-0.8-1.48
			c-0.224-0.368-0.448-0.736-0.704-1.088c-0.336-0.456-0.696-0.88-1.072-1.304c-0.288-0.32-0.56-0.64-0.872-0.928
			c-0.416-0.392-0.864-0.744-1.32-1.088c-0.336-0.256-0.648-0.52-1.008-0.752c-0.504-0.328-1.04-0.584-1.576-0.856
			c-0.36-0.176-0.696-0.384-1.072-0.536c-0.616-0.248-1.264-0.424-1.92-0.6c-0.336-0.088-0.648-0.216-0.992-0.288
			C194.104,136.112,193.064,136,192,136h-16c-1.064,0-2.104,0.112-3.112,0.312c-0.344,0.064-0.656,0.192-0.992,0.288
			c-0.648,0.176-1.304,0.344-1.92,0.6c-0.368,0.152-0.712,0.352-1.072,0.536c-0.536,0.272-1.072,0.528-1.576,0.856
			c-0.352,0.232-0.672,0.496-1.008,0.752c-0.456,0.352-0.904,0.696-1.32,1.088c-0.312,0.296-0.584,0.616-0.872,0.928
			c-0.376,0.424-0.744,0.848-1.072,1.304c-0.256,0.352-0.48,0.712-0.704,1.088c-0.288,0.48-0.56,0.968-0.8,1.48
			c-0.192,0.4-0.352,0.808-0.512,1.224c-0.2,0.528-0.36,1.064-0.504,1.616c-0.112,0.44-0.208,0.888-0.288,1.344
			c-0.04,0.24-0.12,0.456-0.152,0.696c-8.096-1.304-16.168-3.296-24.096-5.952c0-0.048,0-0.104,0-0.16c0-13.232-10.768-24-24-24
			c-1.512,0-2.984,0.176-4.44,0.448c-0.48,0.088-0.936,0.24-1.408,0.352c-0.952,0.24-1.888,0.52-2.8,0.872
			c-0.504,0.2-0.992,0.416-1.48,0.648c-0.832,0.392-1.632,0.832-2.416,1.312c-0.464,0.288-0.92,0.568-1.36,0.88
			c-0.216,0.152-0.448,0.264-0.656,0.424C56.336,96.48,32,50.24,32,0H16c0,55.688,27.104,106.864,72.76,138.288
			C88.312,140.128,88,142.024,88,144c0,13.232,10.768,24,24,24c7.488,0,14.096-3.512,18.504-8.904
			c9.688,3.272,19.552,5.648,29.496,7.088v21.224c-1.456,0.416-2.888,0.864-4.312,1.352c-0.152,0.048-0.304,0.088-0.456,0.136
			l-0.008,0.008c-0.256,0.088-0.496,0.216-0.752,0.304c-2.368,0.848-4.688,1.776-6.952,2.816c-0.352,0.16-0.704,0.344-1.056,0.512
			c-2.296,1.088-4.544,2.264-6.728,3.544c-0.256,0.152-0.512,0.312-0.768,0.464c-2.256,1.352-4.44,2.792-6.56,4.328
			c-0.184,0.128-0.36,0.272-0.536,0.4c-2.152,1.592-4.232,3.272-6.224,5.048c-0.16,0.136-0.312,0.28-0.464,0.424
			c-1.976,1.784-3.864,3.648-5.672,5.6c-0.184,0.192-0.36,0.392-0.536,0.592c-1.736,1.912-3.384,3.888-4.952,5.944
			c-0.224,0.288-0.44,0.584-0.656,0.872c-1.48,2-2.872,4.048-4.184,6.168c-0.24,0.384-0.472,0.768-0.704,1.152
			c-1.256,2.104-2.416,4.256-3.496,6.464c-0.104,0.224-0.24,0.424-0.352,0.648c-0.024,0.056-0.024,0.112-0.048,0.168
			C99.136,245.784,96,258.52,96,272c0,13.48,3.136,26.216,8.584,37.648c0.024,0.056,0.016,0.12,0.048,0.168
			c0.104,0.224,0.24,0.424,0.352,0.648c1.08,2.208,2.24,4.36,3.496,6.464c0.232,0.384,0.464,0.768,0.704,1.152
			c1.312,2.12,2.704,4.176,4.184,6.168c0.216,0.296,0.432,0.584,0.656,0.872c1.568,2.056,3.216,4.032,4.952,5.944
			c0.176,0.2,0.352,0.392,0.536,0.592c1.808,1.952,3.696,3.816,5.672,5.6c0.152,0.136,0.304,0.28,0.464,0.424
			c2,1.776,4.072,3.456,6.224,5.048c0.184,0.136,0.36,0.272,0.536,0.4c2.12,1.544,4.304,2.976,6.56,4.328
			c0.256,0.152,0.512,0.312,0.768,0.464c2.184,1.28,4.432,2.456,6.728,3.544c0.352,0.168,0.696,0.344,1.056,0.512
			c2.264,1.04,4.584,1.968,6.952,2.816c0.256,0.088,0.496,0.216,0.752,0.304l0.008,0.008c0.152,0.056,0.312,0.088,0.464,0.136
			c1.784,0.608,3.592,1.136,5.424,1.632c0.792,0.216,1.584,0.424,2.376,0.616c1.6,0.384,3.2,0.736,4.832,1.032
			c1.296,0.24,2.592,0.416,3.888,0.592c1.24,0.168,2.472,0.36,3.728,0.472c2.688,0.264,5.368,0.416,8.056,0.416
			s5.368-0.152,8.048-0.408c1.256-0.112,2.488-0.304,3.728-0.472c1.296-0.176,2.592-0.36,3.888-0.592
			c1.632-0.296,3.232-0.648,4.832-1.032c0.8-0.192,1.592-0.4,2.384-0.616c1.832-0.496,3.64-1.024,5.424-1.632
			c0.152-0.056,0.312-0.088,0.464-0.136l0.008-0.008c0.256-0.088,0.496-0.216,0.752-0.304c2.368-0.848,4.688-1.776,6.952-2.816
			c0.352-0.16,0.704-0.344,1.056-0.512c2.296-1.088,4.544-2.264,6.728-3.544c0.256-0.152,0.512-0.312,0.768-0.464
			c2.256-1.352,4.44-2.792,6.56-4.328c0.184-0.128,0.36-0.272,0.536-0.4c2.152-1.592,4.232-3.272,6.224-5.048
			c0.16-0.136,0.312-0.28,0.464-0.424c1.976-1.784,3.864-3.648,5.672-5.6c0.184-0.192,0.36-0.392,0.536-0.592
			c1.736-1.912,3.384-3.888,4.952-5.944c0.224-0.288,0.44-0.584,0.656-0.872c1.48-2,2.872-4.048,4.184-6.168
			c0.24-0.384,0.472-0.768,0.704-1.152c1.256-2.104,2.416-4.256,3.496-6.464c0.104-0.224,0.24-0.424,0.352-0.648
			c0.024-0.056,0.024-0.112,0.048-0.168C268.864,298.216,272,285.48,272,272c0-13.48-3.136-26.216-8.584-37.648
			c-0.024-0.056-0.016-0.12-0.048-0.168c-0.104-0.224-0.24-0.424-0.352-0.648c-1.08-2.208-2.24-4.36-3.496-6.464
			c-0.232-0.384-0.464-0.768-0.704-1.152c-1.312-2.12-2.704-4.176-4.184-6.168c-0.216-0.296-0.432-0.584-0.656-0.872
			c-1.568-2.056-3.216-4.032-4.952-5.944c-0.176-0.2-0.352-0.392-0.536-0.592c-1.808-1.952-3.696-3.816-5.672-5.6
			c-0.152-0.136-0.304-0.28-0.464-0.424c-2-1.776-4.072-3.456-6.224-5.048c-0.184-0.136-0.36-0.272-0.536-0.4
			c-2.12-1.544-4.304-2.976-6.56-4.328c-0.256-0.152-0.512-0.312-0.768-0.464c-2.184-1.28-4.432-2.456-6.728-3.544
			c-0.352-0.168-0.696-0.344-1.056-0.512c-2.264-1.04-4.584-1.968-6.952-2.816c-0.256-0.088-0.496-0.216-0.752-0.304l-0.008-0.008
			c-0.152-0.056-0.304-0.088-0.456-0.136c-1.424-0.488-2.856-0.936-4.312-1.352v-21.224c9.944-1.448,19.816-3.824,29.496-7.088
			C241.904,164.488,248.512,168,256,168c13.232,0,24-10.768,24-24c0-1.976-0.312-3.872-0.76-5.712C324.896,106.864,352,55.688,352,0
			z M112,152c-4.408,0-8-3.584-8-8c0-2.04,0.824-3.848,2.08-5.264c0.144-0.16,0.264-0.344,0.416-0.496
			c0.624-0.6,1.352-1.08,2.144-1.448c0.192-0.088,0.4-0.16,0.6-0.24c0.872-0.32,1.784-0.552,2.76-0.552c4.408,0,8,3.584,8,8
			S116.408,152,112,152z M176,159.192V152h16v7.192V184h-16V159.192z M167.96,201.864c2.392-0.552,4.808-0.96,7.224-1.264
			c0.272-0.032,0.536-0.096,0.816-0.128c5.328-0.608,10.688-0.608,16.016,0c0.272,0.032,0.536,0.088,0.816,0.128
			c2.416,0.304,4.824,0.712,7.224,1.264c0.08,0.016,0.152,0.04,0.232,0.056l-6.32,22.08H174.04l-6.304-22.072
			C167.808,201.904,167.88,201.88,167.96,201.864z M122.728,234.376c3.576-5.784,7.936-11.04,12.944-15.592
			c0.008-0.008,0.008-0.008,0.016-0.016c5.008-4.552,10.648-8.384,16.744-11.376c0.064-0.032,0.128-0.064,0.192-0.088l6.392,22.376
			l-16.352,16.352l-20.048-11.464C122.656,234.504,122.688,234.44,122.728,234.376z M115.8,294.904
			c-2.432-7.208-3.8-14.888-3.8-22.904s1.368-15.696,3.8-22.904L136,260.64v22.72L115.8,294.904z M152.624,336.704
			c-0.064-0.032-0.128-0.064-0.192-0.096c-6.096-2.992-11.736-6.832-16.744-11.376c-0.008-0.008-0.016-0.008-0.016-0.016
			c-5.008-4.552-9.368-9.808-12.944-15.592c-0.04-0.064-0.072-0.12-0.112-0.184l20.048-11.464l16.352,16.352L152.624,336.704z
			 M200.032,342.128c-2.384,0.56-4.792,0.968-7.208,1.272c-0.272,0.032-0.536,0.096-0.816,0.128c-5.328,0.608-10.688,0.608-16.016,0
			c-0.272-0.032-0.536-0.088-0.816-0.128c-2.416-0.304-4.824-0.712-7.224-1.264c-0.08-0.016-0.152-0.04-0.232-0.056l6.312-22.08
			h19.928l6.304,22.072C200.184,342.088,200.112,342.112,200.032,342.128z M245.272,309.624c-3.576,5.784-7.936,11.04-12.944,15.592
			c-0.008,0.008-0.008,0.008-0.016,0.016c-5.008,4.552-10.648,8.384-16.736,11.376c-0.064,0.032-0.128,0.064-0.192,0.096
			l-6.392-22.376l16.352-16.352l20.048,11.464C245.344,309.496,245.312,309.56,245.272,309.624z M252.2,249.096
			c2.432,7.208,3.8,14.888,3.8,22.904s-1.368,15.696-3.8,22.904L232,283.36v-22.72L252.2,249.096z M215.376,207.296
			c0.064,0.032,0.128,0.064,0.192,0.088c6.088,3,11.736,6.84,16.744,11.384c0.008,0.008,0.016,0.008,0.016,0.016
			c5.008,4.552,9.368,9.808,12.944,15.592c0.04,0.064,0.072,0.12,0.112,0.184l-20.048,11.464l-16.352-16.352L215.376,207.296z
			 M216,259.312v25.376L196.688,304h-25.376L152,284.688v-25.376L171.312,240h25.376L216,259.312z M256,152c-4.408,0-8-3.584-8-8
			s3.592-8,8-8c0.976,0,1.888,0.232,2.752,0.56c0.2,0.072,0.408,0.144,0.6,0.24c0.792,0.368,1.52,0.848,2.144,1.448
			c0.152,0.152,0.272,0.336,0.416,0.496C263.176,140.152,264,141.96,264,144C264,148.416,260.408,152,256,152z"/>
	</g>
</g>
<g>
	<g>
		<path d="M296,392c-17.648,0-32-14.352-32-32c0-4.424-3.584-8-8-8c-4.416,0-8,3.576-8,8c0,17.648-14.352,32-32,32
			c-4.416,0-8,3.576-8,8s3.584,8,8,8c17.648,0,32,14.352,32,32c0,4.424,3.584,8,8,8c4.416,0,8-3.576,8-8c0-17.648,14.352-32,32-32
			c4.416,0,8-3.576,8-8S300.416,392,296,392z M256,413.496c-3.552-5.344-8.152-9.936-13.496-13.496
			c5.344-3.552,9.936-8.152,13.496-13.496c3.552,5.344,8.152,9.936,13.496,13.496C264.152,403.552,259.552,408.152,256,413.496z"/>
	</g>
</g>
<g>
	<g>
		<path d="M88,208c-17.648,0-32-14.352-32-32c0-4.424-3.584-8-8-8s-8,3.576-8,8c0,17.648-14.352,32-32,32c-4.416,0-8,3.576-8,8
			s3.584,8,8,8c17.648,0,32,14.352,32,32c0,4.424,3.584,8,8,8s8-3.576,8-8c0-17.648,14.352-32,32-32c4.416,0,8-3.576,8-8
			S92.416,208,88,208z M48,229.496c-3.552-5.344-8.152-9.944-13.496-13.496c5.344-3.552,9.944-8.152,13.496-13.496
			c3.552,5.344,8.152,9.944,13.496,13.496C56.152,219.552,51.552,224.152,48,229.496z"/>
	</g>
</g>
<g>
	<g>
		<rect x="384" y="192" width="16" height="16"/>
	</g>
</g>
<g>
	<g>
		<rect x="384" y="160" width="16" height="16"/>
	</g>
</g>
<g>
	<g>
		<rect x="384" y="128" width="16" height="16"/>
	</g>
</g>
<g>
	<g>
		<rect x="384" y="96" width="16" height="16"/>
	</g>
</g>
<g>
	<g>
		<rect x="336" y="216" width="16" height="16"/>
	</g>
</g>
<g>
	<g>
		<rect x="320" y="184" width="16" height="16"/>
	</g>
</g>
<g>
	<g>
		<rect x="304" y="152" width="16" height="16"/>
	</g>
</g>
<g>
	<g>
		<rect x="432" y="216" width="16" height="16"/>
	</g>
</g>
<g>
	<g>
		<rect x="448" y="184" width="16" height="16"/>
	</g>
</g>
<g>
	<g>
		<rect x="464" y="152" width="16" height="16"/>
	</g>
</g>
<g>
	<g>
		<path d="M104,424c-17.648,0-32-14.352-32-32c0-4.424-3.584-8-8-8s-8,3.576-8,8c0,17.648-14.352,32-32,32c-4.416,0-8,3.576-8,8
			s3.584,8,8,8c17.648,0,32,14.352,32,32c0,4.424,3.584,8,8,8s8-3.576,8-8c0-17.648,14.352-32,32-32c4.416,0,8-3.576,8-8
			S108.416,424,104,424z M64,445.496c-3.552-5.344-8.152-9.944-13.496-13.496c5.344-3.552,9.936-8.152,13.496-13.496
			c3.552,5.344,8.152,9.936,13.496,13.496C72.152,435.552,67.552,440.152,64,445.496z"/>
	</g>
</g>
<g>
</g>
<g>
</g>
<g>
</g>
<g>
</g>
<g>
</g>
<g>
</g>
<g>
</g>
<g>
</g>
<g>
</g>
<g>
</g>
<g>
</g>
<g>
</g>
<g>
</g>
<g>
</g>
<g>
</g>
</svg>
