<?xml version="1.0" encoding="UTF-8"?>
<svg width="1144px" height="1014px" viewBox="0 0 1144 1014" version="1.1" xmlns="http://www.w3.org/2000/svg" xmlns:xlink="http://www.w3.org/1999/xlink">
    <!-- Generator: Sketch 47.1 (45422) - http://www.bohemiancoding.com/sketch -->
    <title>path3</title>
    <desc>Created with Sketch.</desc>
    <defs>
        <linearGradient x1="71.9894401%" y1="-4.75928058%" x2="63.6190287%" y2="118.975339%" id="linearGradient-1">
            <stop stop-color="#FF1F00" stop-opacity="0.800215127" offset="0%"></stop>
            <stop stop-color="#FFD2BF" stop-opacity="0.794695094" offset="67.1915906%"></stop>
            <stop stop-color="#F9FCF4" offset="100%"></stop>
            <stop stop-color="#FA370B" stop-opacity="0.231460511" offset="100%"></stop>
            <stop stop-color="#F4FEE2" offset="100%"></stop>
            <stop stop-color="#FFFCEF" offset="100%"></stop>
        </linearGradient>
    </defs>
    <g id="Page-1" stroke="none" stroke-width="1" fill="none" fill-rule="evenodd">
        <g id="path3" transform="translate(-12.000000, -31.000000)" fill-rule="nonzero">
            <g id="Group">
                <g id="Group-10">
                    <g id="Group-8">
                        <path d="M18.5842946,733.786812 C309.849823,670.818628 584.014528,616.675273 755.180317,516.233622 C926.346107,415.791971 839.38561,272.186239 999.988048,200.063192 C1107.05634,151.98116 1080.26313,79.44575 852.451675,22.0110916 L913.291153,19.8865302 C1130.03224,65.977956 1189.54126,153.613258 1107.60662,238.989183 C984.704669,367.053071 1171.77724,429.32075 1014.68962,621.061228 C982.335298,660.552781 837.924909,769.98045 665.843342,847.83651 C463.202296,939.518806 256.797927,992.491476 30.1352762,1064.56365 L18.5842946,733.786812 Z" id="Rectangle-2" fill="url(#linearGradient-1)" transform="translate(580.706632, 542.225088) rotate(2.000000) translate(-580.706632, -542.225088) "></path>
                        <g id="Group-6" transform="translate(1049.000000, 48.000000)">
                            <g id="Group-4" stroke="#000000" stroke-width="3" fill-opacity="0.463258605" fill="#FFFFFF">
                                <path d="M26.2181321,62.3115399 C34.5775641,48.5616118 46.4166892,37.8204249 46.4166892,24.3643603 C46.4166892,10.9082957 36.0259594,0 23.2083446,0 C10.3907298,0 0,10.9082957 0,24.3643603 C0,34.5355503 10.5527185,49.0540827 19.9413611,62.3115399 C25.746605,70.5089732 20.805993,70.4339395 26.2181321,62.3115399 Z" id="Oval"></path>
                            </g>
                            <g id="meditation" transform="translate(9.556377, 6.482985)" fill="#000000">
                                <path d="M13.6525052,32.4149256 C7.62087523,32.4149256 2.73039348,33.2216971 2.73039348,34.2175556 C2.73039348,35.2107129 7.62087523,36.016584 13.6525052,36.016584 C19.6830596,36.016584 24.5735414,35.2107129 24.5735414,34.2175556 C24.5735414,33.2225975 19.6841352,32.4149256 13.6525052,32.4149256 Z M13.6525052,35.1161694 C8.81795158,35.1161694 5.66876957,34.6254434 4.34800609,34.2166552 C5.66876957,33.807867 8.81687605,33.3153402 13.6525052,33.3153402 C18.4881344,33.3153402 21.6362408,33.8069666 22.9559287,34.2166552 C21.6351653,34.6254434 18.4870588,35.1161694 13.6525052,35.1161694 Z" id="Shape"></path>
                                <path d="M27.2187887,15.7237927 C26.8703572,14.7163186 25.5607353,14.3047834 24.2019616,14.7399313 C22.8475569,13.9787036 22.2205986,13.805544 21.9464409,13.0544361 L20.7678904,9.81725074 C20.4118131,8.83563809 19.6079084,8.10252075 18.6194114,7.85177666 L15.855989,7.15464054 L15.855989,6.43501615 C16.5113461,5.5377345 16.9296823,4.35934958 16.9296823,3.37323929 C16.9296823,1.51008679 15.4627748,0 13.6528969,0 C11.8430191,0 10.3761115,1.51008679 10.3761115,3.37323929 C10.3761115,4.34922986 10.7846174,5.51412183 11.4279595,6.41027907 L11.4279595,7.20973677 L8.876436,7.85402548 C7.88793903,8.10252075 7.08403432,8.83676249 6.72795697,9.81725074 L5.5483142,13.0544361 C5.26541839,13.8325299 4.55107916,14.0326755 3.23053462,14.7747881 C1.93838888,14.3160276 0.476942565,14.5982553 0.0870050955,15.7226683 C-0.383759749,17.0832082 1.12574609,18.5753043 2.93016262,18.7192292 C2.80455251,19.0037057 2.7302787,19.3162926 2.7302787,19.6479944 C2.7302787,20.5497737 3.24910307,21.3211212 3.9918411,21.679809 L8.87425143,23.9061468 C7.69897772,24.4930905 6.71921887,24.7955576 5.9404362,25.8165247 C5.4369035,26.4765552 5.29490946,27.164696 5.53848384,27.7538885 C6.07369213,29.0469636 7.98842709,29.0233508 9.45205797,28.3801866 C10.0910311,28.1002077 10.6459001,27.7100364 11.0653287,27.2670176 L13.6539891,26.0863838 L16.2426497,27.2670176 C16.6620782,27.7100364 17.2169472,28.1013321 17.8548281,28.3801866 C19.4997745,29.1020598 21.279069,28.9401443 21.7694945,27.7538885 C22.6094438,25.7231984 19.5248964,24.4526116 18.4326346,23.9072712 L23.315045,21.6809334 C24.0566908,21.3211212 24.5755151,20.5497737 24.5755151,19.6479944 C24.5755151,19.3140438 24.4979645,19.0025813 24.3701699,18.7181048 C26.2641519,18.5730555 27.6709851,17.028112 27.2187887,15.7237927 Z M13.6528969,1.1244131 C14.8576617,1.1244131 15.8374205,2.13301164 15.8374205,3.37323929 C15.8374205,4.74389886 14.7080218,6.69250675 13.6528969,6.69250675 C12.597772,6.69250675 11.4683733,4.74389886 11.4683733,3.37323929 C11.4683733,2.13301164 12.4481321,1.1244131 13.6528969,1.1244131 Z M14.7538968,7.47397386 L13.6496202,8.71195264 L12.5202214,7.46160531 C12.8752065,7.67861704 13.2531291,7.81691985 13.6528969,7.81691985 C14.0406499,7.81691985 14.4087421,7.67974145 14.7538968,7.47397386 Z M6.57067126,13.4502295 L7.75031403,10.2130441 C7.98078126,9.581124 8.49851337,9.10774612 9.13530205,8.94695498 L11.7687453,8.28242684 L12.7321202,9.34949494 C13.2290993,9.89933291 14.0756022,9.89708411 14.5693046,9.34387286 L15.5545247,8.23969916 L18.3605453,8.94807946 C18.997334,9.10887052 19.5150661,9.5822484 19.7455334,10.2141685 L20.9240838,13.4513539 C21.3162058,14.5285417 22.051298,14.8141426 23.0277801,15.3628561 C22.8278962,15.5225228 22.6465808,15.6968068 22.5024022,15.8890815 C22.3036105,16.1555674 22.1736314,16.4411683 22.113557,16.7256448 C21.1239678,16.2994922 20.4271047,16.0408772 19.8263607,14.9659383 L18.3157626,12.2572272 C18.12134,11.9075347 17.6014234,12.0503352 17.6014234,12.4528751 L17.6014234,18.1052997 L19.9224798,18.3920251 L13.6528969,21.5201423 L7.3822218,18.3897762 L9.89223943,18.0805626 L9.89223943,12.4607459 C9.89223943,12.0559572 9.36904606,11.9187789 9.17462348,12.2707202 C7.04580516,16.135328 7.24678133,15.9205651 5.20643625,16.7987317 C5.12342435,16.3039899 4.81649878,15.8204923 4.35337977,15.4258233 C5.35826064,14.8613679 6.17090343,14.5532787 6.57067126,13.4502295 Z M20.7897356,17.363187 L18.6947775,17.1045721 L18.6947775,15.1919453 L18.8793697,15.5225228 C19.3206435,16.3163585 19.9934768,16.9606472 20.7897356,17.363187 Z M6.76509387,17.3328279 C7.7950968,16.7919852 8.2833378,16.1195861 8.80106991,15.1919453 L8.80106991,17.0820838 L6.76509387,17.3328279 Z M2.33815671,17.4598866 C1.80294842,17.2642387 0.932415748,16.6278209 1.11591573,16.1015956 C1.2972312,15.5742458 2.36000195,15.648457 2.8963025,15.844105 C3.75591255,16.160065 4.25070716,16.8223443 4.11963574,17.202396 C3.98637979,17.5846964 3.19558224,17.7758467 2.33815671,17.4598866 Z M4.45605238,20.6622151 C4.06502264,20.4733136 3.82254052,20.0853911 3.82254052,19.6479944 C3.82254052,18.85191 4.62644522,18.2143678 5.48168623,18.6899945 L12.4011649,22.1441916 L10.1609359,23.2629825 L4.45605238,20.6622151 Z M9.02279903,27.3446021 C8.37508783,27.6279542 6.80332304,27.9450387 6.54227246,27.3119941 C6.27903735,26.6778252 7.59521288,25.7299449 8.23746283,25.4477172 C8.87534371,25.1677383 10.4514775,24.8382853 10.7179894,25.4814496 C10.983409,26.1178674 9.66832582,27.06125 9.02279903,27.3446021 Z M15.4835278,25.6905904 L15.000748,25.4702055 L15.5359563,25.2262078 C15.4955426,25.3768792 15.4780664,25.5309238 15.4835278,25.6905904 Z M19.0672388,25.4477172 C20.3419083,26.007675 20.9229916,26.925196 20.7635214,27.3119941 C20.5024708,27.9450387 18.9317983,27.630203 18.2829948,27.3446021 C17.6352835,27.06125 16.3245693,26.116743 16.5867122,25.4803252 C16.8565008,24.82929 18.4271733,25.1666139 19.0672388,25.4477172 Z M22.8715867,20.6520953 L11.8222661,25.6905904 C11.8299119,25.4668323 11.8091589,25.2464473 11.7239625,25.0418041 C11.5623078,24.6505083 11.2411828,24.3671562 10.8141084,24.1883745 L21.8721671,18.6663818 C22.6192742,18.2436025 23.4832533,18.8181776 23.4832533,19.6479944 C23.4832533,20.0853911 23.2407712,20.4733136 22.8715867,20.6520953 Z M24.9676371,17.4598866 C24.4225984,17.6600321 23.3707503,17.7274969 23.1861581,17.2035204 C23.0059349,16.6750463 23.869914,16.0420016 24.4083991,15.8452294 C24.9512532,15.6450838 26.0041936,15.5708726 26.1898781,16.1015956 C26.3701013,16.6289453 25.5083067,17.2619898 24.9676371,17.4598866 Z" id="Shape"></path>
                            </g>
                        </g>
                        <g id="Group-3" transform="translate(995.000000, 185.000000)">
                            <g id="Group-5">
                                <path d="M55.6799268,132.640674 C73.4330052,103.371622 98.575972,80.5071851 98.575972,51.8636706 C98.575972,31.2613156 87.1597061,13.4647135 70.6206611,5.0962361 C64.1654236,1.82999489 56.9298006,0 49.287986,0 C22.066983,0 0,23.2201563 0,51.8636706 C0,73.5147727 22.4110013,104.41993 42.3498334,132.640674 C54.6785359,150.090301 44.186068,149.930579 55.6799268,132.640674 Z" id="Oval" stroke="#000000" stroke-width="5" fill-opacity="0.463258605" fill="#FFFFFF"></path>
                                <g id="garden" transform="translate(16.739316, 22.209481)" fill="#000000">
                                    <path d="M66.4319915,53.8299457 L52.016026,53.8299457 L52.016026,46.6245727 C55.1640369,46.1782714 57.9541003,44.1059198 59.5764788,40.9641423 C61.731951,40.4448023 63.6901032,39.12941 65.1386555,37.2152393 C66.7111431,35.1371837 67.5772388,32.4813572 67.5772388,29.7369102 C67.5772388,25.5620177 65.5491336,21.6979222 62.3580951,19.6908185 C62.0256211,12.7287688 56.9339764,7.17754868 50.7328529,7.17754868 C48.7809041,7.17754868 46.849545,7.73751213 45.1477106,8.79692122 C44.6181807,9.12649964 44.4423746,9.84603532 44.7550508,10.404051 C45.0678588,10.962345 45.7506252,11.1475155 46.2798912,10.817937 C47.6390885,9.97180101 49.1788434,9.52466494 50.7328529,9.52466494 C55.9150403,9.52466494 60.1388735,14.4012857 60.1486405,20.3954682 C60.1494324,20.8371784 60.3852923,21.2410477 60.7592102,21.4405477 C63.5483497,22.9284505 65.3503619,26.184864 65.3503619,29.7367712 C65.3503619,34.2195393 62.4702837,38.1007467 58.6508573,38.7647729 C58.2931738,38.8270993 57.986701,39.068753 57.8292411,39.4130784 C56.6347629,42.0241079 54.4765191,43.7891404 52.016026,44.2486583 L52.016026,33.8639451 L57.4955791,28.5527093 C57.948161,28.1139206 57.977726,27.3715691 57.5614404,26.894522 C57.1450229,26.4174749 56.4408747,26.3861726 55.9882929,26.8251004 L52.016026,30.6752838 L52.016026,22.8410824 C52.016026,22.1929159 51.5175129,21.6674546 50.9025876,21.6674546 C50.2876624,21.6674546 49.7891492,22.1929159 49.7891492,22.8410824 L49.7891492,37.0453721 L45.8168824,33.1951888 C45.3643006,32.756261 44.6598884,32.7875632 44.2437349,33.2646104 C43.8274494,33.7416574 43.8570144,34.4840089 44.3095962,34.9227977 L49.7892812,40.2340335 L49.7892812,44.3036112 C47.163805,43.9470432 44.8483652,42.115928 43.6059759,39.3451872 C43.4574911,39.0139393 43.1706843,38.7747897 42.830819,38.6988294 C39.1362519,37.8714747 36.4548134,34.1025382 36.4548134,29.7367712 C36.4548134,26.2943525 38.1017414,23.1787298 40.752823,21.6062412 C41.1076028,21.3957506 41.3251166,20.9980027 41.3201011,20.5690915 C41.3198371,20.5365371 41.3187812,20.504261 41.3177254,20.472124 C41.3170654,20.4534817 41.3164055,20.4349786 41.3164055,20.4164754 C41.3164055,17.971696 42.0008877,15.6617251 43.2958075,13.7365638 C43.6515113,13.2077636 43.5331193,12.4751506 43.0315705,12.1004968 C42.5298897,11.7254256 41.8348486,11.8504957 41.4794089,12.3790177 C40.0041953,14.5721267 39.1853509,17.1702178 39.0977118,19.9210643 C36.0781238,21.9966157 34.2282005,25.6934874 34.2282005,29.7369102 C34.2282005,34.9962538 37.3958774,39.5775198 41.8356405,40.8585492 C43.5067221,44.1758978 46.4624286,46.3226794 49.7895452,46.6663091 L49.7895452,53.8299457 L49.0843411,53.8299457 C48.9202819,50.7585636 46.928473,48.086599 44.1547759,47.184397 C43.2844567,45.2326636 41.5939731,43.8175212 39.606124,43.358699 C38.9543744,40.2361203 36.2875865,37.9076463 33.1799635,37.9076463 C30.7836159,37.9076463 28.6107215,39.2651924 27.4524077,41.4260252 C25.1712844,41.517428 23.1203456,42.8019354 21.9422338,44.7919272 C21.2079927,42.662814 19.3271845,41.1125848 17.1251211,40.9459174 L17.1251211,37.860345 C20.1308505,37.4198868 22.792359,35.4382423 24.3474244,32.4404555 C26.4131457,31.9373927 28.2892023,30.6741708 29.6780967,28.838882 C31.1903984,26.840682 32.0232334,24.2868314 32.0232334,21.6479777 C32.0232334,17.6429522 30.0818435,13.9349509 27.0251673,12.0007468 C26.6934851,5.32139163 21.803252,0 15.8488113,0 C13.5647843,0 11.3678684,0.776436254 9.49537544,2.24569683 C9.00227369,2.6325933 8.89998415,3.36798876 9.26703871,3.88788524 C9.63409326,4.4076426 10.3316421,4.51546165 10.8250078,4.12856517 C12.3101203,2.96300651 14.0473271,2.34711629 15.8488113,2.34711629 C20.7839199,2.34711629 24.8066056,6.99349114 24.8159767,12.7047008 C24.8167686,13.1464111 25.0526285,13.5502804 25.4265463,13.7497804 C28.0810596,15.1658966 29.7960926,18.2662159 29.7960926,21.6479777 C29.7960926,25.915525 27.0557881,29.6101708 23.4218029,30.2419208 C23.0642513,30.3042472 22.7576466,30.545901 22.6001867,30.8902263 C21.4723617,33.3554566 19.4425408,35.0288082 17.1248572,35.4823438 L17.1248572,25.6214225 L22.3557476,20.5514232 C22.8083294,20.1126344 22.8377624,19.3702829 22.4216089,18.8932358 C22.0054553,18.4160496 21.3010432,18.3848864 20.8484613,18.8238143 L17.1248572,22.4329003 L17.1248572,15.0463913 C17.1248572,14.398225 16.626344,13.8727636 16.0114188,13.8727636 C15.3964935,13.8727636 14.8979803,14.398225 14.8979803,15.0463913 L14.8979803,28.5315629 L11.1745081,24.9224769 C10.7217943,24.483549 10.0175142,24.5148513 9.6013606,24.9918984 C9.18507506,25.4689455 9.21464005,26.2114361 9.66722192,26.6500857 L14.8978483,31.7200852 L14.8978483,35.5372967 C12.4223089,35.1803113 10.2424192,33.4439378 9.06839899,30.8259522 C8.91991412,30.4947043 8.63310736,30.2555546 8.29324204,30.1795944 C4.77804461,29.3920284 2.22661288,25.804228 2.22661288,21.6479777 C2.22661288,18.3701395 3.79395299,15.4040723 6.31713961,13.9074049 C6.67165545,13.6970534 6.88916923,13.3000011 6.88441772,12.871229 C6.88415375,12.8395093 6.88322988,12.8077897 6.88217399,12.7762091 C6.881778,12.7590972 6.88098608,12.7421244 6.88098608,12.7247342 C6.88098608,11.2731421 7.1347962,9.86940768 7.63528912,8.55262409 C7.78416998,8.16141484 7.95562047,7.77716172 8.14528512,7.41015956 C8.43935116,6.84087501 8.24005147,6.12829546 7.69996253,5.81833309 C7.15987367,5.50809249 6.48370662,5.71830484 6.1897726,6.28758941 C5.95866418,6.73500366 5.74959751,7.20328613 5.56851198,7.67963764 C5.01997593,9.12246512 4.71601094,10.6483481 4.66282037,12.2226453 C1.77086336,14.2214017 0,17.7689962 0,21.6479777 C0,26.6976652 3.0380661,31.0979344 7.29832751,32.3380622 C8.90038008,35.5037684 11.7208004,37.5577561 14.8979803,37.901525 L14.8979803,41.258384 C13.6794806,41.7071895 12.636655,42.5945054 11.9657674,43.7863581 C9.26189121,43.9484344 7.0771181,46.0533404 6.65370528,48.8293679 C4.65952071,49.7628721 3.17691593,51.614299 2.63101962,53.8296674 L1.11343842,53.8296674 C0.498513149,53.8296674 0,54.3551287 0,55.0032951 C0,55.6514615 0.498513149,56.1769228 1.11343842,56.1769228 L3.55254962,56.1769228 L28.6872738,56.1769228 L47.9368502,56.1769228 L66.4319915,56.1769228 C67.0469168,56.1769228 67.54543,55.6514615 67.54543,55.0032951 C67.54543,54.3551287 67.0467849,53.8299457 66.4319915,53.8299457 Z M4.96625741,53.8299457 C5.49737124,52.4032562 6.61463727,51.2667739 8.03798011,50.780823 C8.4858104,50.6279286 8.79399894,50.1948439 8.80785753,49.6990154 C8.8639518,47.6941376 10.3988233,46.1235967 12.3022011,46.1235967 C12.3784893,46.1235967 12.4619048,46.127353 12.5644584,46.1352829 C13.0414577,46.1715936 13.4877042,45.8844471 13.6728813,45.4195036 C14.1918523,44.1181625 15.3922699,43.2771739 16.7311413,43.2771739 C18.450398,43.2771739 19.9017219,44.690925 20.0352923,46.4957463 C20.078056,47.0718478 20.5121597,47.5295571 21.0588479,47.5746324 C21.3624169,47.5995351 21.6559549,47.6697914 21.9339186,47.7769148 C21.9351065,47.7773322 21.9361624,47.7780278 21.9373503,47.7784451 C21.988957,47.7984786 22.0397718,47.8200425 22.0901907,47.8425801 C22.1010135,47.8474493 22.1119684,47.8523186 22.1227913,47.857327 C22.1699105,47.8788908 22.2165018,47.9015676 22.2623011,47.9253573 C22.2778755,47.9335654 22.293186,47.9420519 22.3086284,47.9503991 C22.3721139,47.984623 22.4342795,48.0210728 22.4952573,48.0593311 C22.528518,48.0803385 22.5620425,48.1006502 22.5945112,48.1229096 C22.6191927,48.1396042 22.6429503,48.1575508 22.6669719,48.1746628 C22.7035321,48.2009567 22.7398284,48.227668 22.7754648,48.2554923 C22.7956587,48.2713521 22.8155887,48.287212 22.8352547,48.3034891 C22.8782823,48.3388259 22.9207819,48.3752757 22.9620937,48.4129777 C22.9735766,48.4232726 22.9850594,48.4331502 22.9964102,48.4435843 C23.1060911,48.5459777 23.2094365,48.6563008 23.3056547,48.7734411 C23.3144978,48.7842925 23.3232089,48.795144 23.33192,48.8061346 C23.3724398,48.8566356 23.4115079,48.9085279 23.449388,48.9615331 C23.4566473,48.971689 23.4641705,48.9817057 23.4712978,48.9920007 C23.557749,49.116097 23.636545,49.246871 23.7072897,49.383349 C23.7166607,49.4014348 23.7255039,49.419938 23.7347429,49.438302 C23.7598204,49.488803 23.7837099,49.5402779 23.8065436,49.5924484 C23.8156507,49.6130384 23.8247577,49.6336284 23.8334688,49.6543575 C23.861582,49.7219704 23.8882432,49.7905573 23.9123968,49.8602571 C23.9133207,49.8627613 23.9141126,49.8649872 23.9150366,49.8674914 C24.0455712,50.2475709 24.3525719,50.5301264 24.7274136,50.6152686 C24.8269315,50.6378063 24.9244696,50.6653523 25.0204238,50.6963764 C25.0517046,50.7065322 25.0820615,50.718914 25.1130783,50.7299046 C25.1769598,50.7524423 25.2405773,50.7753973 25.302743,50.8015521 C25.3386433,50.8167163 25.3736197,50.8338282 25.4088602,50.8501054 C25.4644265,50.8757038 25.5197289,50.9017194 25.5738433,50.9301002 C25.6102716,50.9491598 25.645644,50.9697498 25.6812803,50.9900615 C25.7324911,51.0191379 25.7831739,51.0491881 25.8326689,51.0807686 C25.8679093,51.1031672 25.9026218,51.1264004 25.9370703,51.1500511 C25.9851134,51.1830228 26.0324965,51.2173858 26.0789558,51.2527226 C26.1120844,51.2779036 26.1448171,51.3030845 26.1770218,51.3293785 C26.2230851,51.3669413 26.2676966,51.4060343 26.3119121,51.4456839 C26.341873,51.4725343 26.3722299,51.4992457 26.4013989,51.5270699 C26.4466703,51.5704758 26.4899619,51.6156902 26.5331215,51.6611829 C26.5585949,51.6880333 26.5849922,51.7143273 26.6096736,51.7421516 C26.6582447,51.796548 26.704176,51.8533095 26.7497114,51.9103492 C26.7666056,51.9316348 26.7845558,51.9516683 26.8010542,51.9732321 C26.8617679,52.0530878 26.9197101,52.1351693 26.9743524,52.2198942 C26.9858353,52.2375627 26.9957343,52.2564832 27.0068211,52.2742907 C27.0489249,52.3419037 27.0899727,52.4102123 27.1281168,52.4804685 C27.145275,52.5123273 27.1607175,52.5454382 27.1770838,52.5778535 C27.2066488,52.6360062 27.2356858,52.6942981 27.2624791,52.7539811 C27.2791093,52.7911265 27.2938919,52.8291067 27.3093343,52.8666694 C27.3328279,52.9238483 27.3555296,52.9810272 27.3763835,53.0394581 C27.390638,53.0795251 27.4037047,53.1200094 27.4167713,53.1606328 C27.4353814,53.2185073 27.4528037,53.2767991 27.468906,53.3357866 C27.4802568,53.377523 27.4908158,53.4195377 27.5009787,53.4616914 C27.5151013,53.5215136 27.5275081,53.5817531 27.5389908,53.6424101 C27.547042,53.6847029 27.5548293,53.7269959 27.5615606,53.7698452 C27.5647283,53.7897395 27.5663121,53.8099122 27.5690838,53.8299457 L4.96625741,53.8299457 L4.96625741,53.8299457 Z M29.8141748,53.8300847 L29.8141748,53.8299457 C29.8132509,53.818816 29.8110071,53.8078254 29.8102152,53.7968347 C29.7974125,53.6567395 29.7809142,53.5174791 29.7591364,53.3798881 C29.7578165,53.371819 29.7561007,53.36375 29.7547808,53.355681 C29.7320792,53.2153075 29.7050219,53.0763253 29.6733451,52.9388734 C29.6720253,52.9328912 29.6709694,52.9269089 29.6695175,52.9212049 C29.6377088,52.7850052 29.6008845,52.6507531 29.5607606,52.5180313 C29.5564051,52.503841 29.5524455,52.4892332 29.5479579,52.4750428 C29.508362,52.3473294 29.4642784,52.2215637 29.4168953,52.0971892 C29.410032,52.0792426 29.4034327,52.0611568 29.3964374,52.0433492 C29.3489222,51.9216181 29.2975795,51.8019737 29.2429371,51.6841379 C29.2343579,51.6654957 29.2257788,51.6469925 29.2169357,51.6284894 C29.1612374,51.5113492 29.1023714,51.3961568 29.0400737,51.2831902 C29.0305707,51.2660783 29.0210677,51.2492446 29.0114327,51.2321327 C28.9472872,51.1181923 28.8801061,51.0063387 28.8092293,50.8971285 C28.8006501,50.8837728 28.7916751,50.8708345 28.782964,50.8577571 C28.7090515,50.7456253 28.6323673,50.6355803 28.5518556,50.5288742 C28.5468401,50.5221965 28.5414286,50.5157969 28.5364131,50.5089799 C28.4522057,50.3982393 28.3648306,50.2902812 28.273628,50.185801 C28.2725721,50.184688 28.2716481,50.183436 28.2707243,50.182323 C28.1804454,50.0790949 28.086339,49.9793449 27.9895929,49.8825165 C27.9811457,49.87403 27.9729626,49.8652654 27.9645155,49.8569181 C27.871465,49.7649589 27.7751148,49.6764778 27.6763889,49.590779 C27.6631902,49.5793711 27.6501235,49.5676848 27.6367929,49.5561378 C27.5396508,49.4733605 27.439869,49.3939223 27.3375794,49.3175446 C27.321741,49.3057193 27.3059027,49.293894 27.2900642,49.2822078 C27.1879067,49.2073605 27.0832414,49.1358522 26.9763323,49.0678219 C26.95957,49.0572486 26.9426757,49.0466754 26.9259134,49.0362413 C26.8175525,48.9687675 26.7072117,48.9046325 26.5946272,48.844393 C26.5791848,48.8360456 26.5634784,48.828394 26.5479039,48.8203249 C26.4317558,48.7598072 26.3137599,48.70235 26.1932562,48.6497622 C26.1825652,48.6450321 26.1717424,48.6409975 26.1610514,48.6364066 C26.0347403,48.5822883 25.9065813,48.5317873 25.7759147,48.486851 C25.7755187,48.486712 25.7749908,48.4864337 25.7744628,48.4861554 C25.7687874,48.4740519 25.7623201,48.4627831 25.7566447,48.4508186 C25.7116372,48.3557988 25.664518,48.2624483 25.6148911,48.1706283 C25.5895497,48.1237443 25.5624925,48.0779734 25.5360952,48.0317851 C25.5040225,47.9762757 25.4716857,47.9209054 25.4380292,47.866509 C25.4056925,47.8140602 25.3724319,47.7625853 25.3383794,47.7113887 C25.3088144,47.667009 25.2784575,47.6233248 25.2478366,47.5797799 C25.2092965,47.524827 25.1706244,47.4701523 25.1302366,47.4167296 C25.106479,47.3854274 25.0815335,47.3553772 25.057248,47.3247704 C24.9634056,47.2058217 24.8653396,47.0910466 24.762786,46.980306 C24.7450999,46.9612463 24.7282055,46.9414911 24.7103874,46.9227097 C24.6594406,46.8692872 24.606778,46.8180905 24.5539833,46.7667547 C24.5234945,46.7371219 24.4931375,46.7076281 24.4619887,46.6786909 C24.4115699,46.6319461 24.3603591,46.586036 24.3080924,46.5409607 C24.2700803,46.5081281 24.2314082,46.4765476 24.1926042,46.4446888 C24.1441651,46.4053175 24.0961221,46.3655287 24.0463631,46.3276878 C23.9764103,46.2742651 23.9048736,46.2233468 23.832545,46.1734022 C23.8132749,46.1600465 23.7949288,46.1452996 23.7753948,46.1322223 C24.586848,44.6873079 26.0722245,43.7686896 27.7133451,43.7686896 C27.8137868,43.7686896 27.9228077,43.7735589 28.0563781,43.7838539 C28.5327175,43.8212775 28.9794919,43.5328789 29.164669,43.0680745 C29.8458516,41.3593861 31.4220347,40.2553191 33.1799635,40.2553191 C35.4373292,40.2553191 37.3428188,42.1117544 37.518097,44.4815474 C37.5607286,45.0576489 37.9949643,45.5153582 38.5416526,45.5602944 C40.2399233,45.6998331 41.7121011,46.8816689 42.2923139,48.5712978 C42.4228486,48.9513773 42.7298493,49.2339327 43.1046911,49.319075 C45.1589295,49.785688 46.6828461,51.6476881 46.8540327,53.8305021 L29.8141748,53.8305021 L29.8141748,53.8300847 Z" id="Shape"></path>
                                </g>
                            </g>
                        </g>
                    </g>
                </g>
                <g id="Group-2" transform="translate(697.000000, 346.000000)">
                    <path d="M90.374846,207.609494 C119.190109,161.797505 160,126.010034 160,81.1771386 C160,36.3442429 124.18278,0 80,0 C35.81722,0 0,36.3442429 0,81.1771386 C0,115.065494 36.3756007,163.438318 68.7385901,207.609494 C88.7494746,234.92169 71.7190072,234.671693 90.374846,207.609494 Z" id="Oval" stroke="#000000" stroke-width="8" fill-opacity="0.463258605" fill="#FFFFFF"></path>
                    <g id="building-with-columns-and-rounded-roof" transform="translate(30.000000, 24.000000)" fill="#1D1D1B">
                        <g id="city-hall">
                            <rect id="Rectangle-path" x="0" y="100.5513" width="102.499554" height="3.17552407"></rect>
                            <rect id="Rectangle-path" x="0" y="42.5091117" width="102.499554" height="3.17552407"></rect>
                            <rect id="Rectangle-path" x="19.2188166" y="37.4494447" width="64.0619212" height="3.17552407"></rect>
                            <rect id="Rectangle-path" x="43.2423373" y="26.0938891" width="3.2031361" height="3.17552407"></rect>
                            <rect id="Rectangle-path" x="49.6478087" y="26.0938891" width="3.2031361" height="3.17552407"></rect>
                            <rect id="Rectangle-path" x="56.0554823" y="26.0938891" width="3.2031361" height="3.17552407"></rect>
                            <rect id="Rectangle-path" x="30.4289921" y="95.8536171" width="41.6413698" height="3.17552407"></rect>
                            <path d="M32.0655945,48.8066227 L32.0655945,61.7161754 L41.6067359,61.7161754 L41.6067359,48.8066227 L32.0655945,48.8066227 L32.0655945,48.8066227 Z M38.4718667,58.5408542 L35.2004637,58.5408542 L35.2004637,51.9823496 L38.4718667,51.9823496 L38.4718667,58.5408542 L38.4718667,58.5408542 Z" id="Shape"></path>
                            <path d="M46.4795067,48.8066227 L46.4795067,61.7161754 L56.0206482,61.7161754 L56.0206482,48.8066227 L46.4795067,48.8066227 L46.4795067,48.8066227 Z M52.8859792,58.5408542 L49.614376,58.5408542 L49.614376,51.9823496 L52.885779,51.9823496 L52.885779,58.5408542 L52.8859792,58.5408542 Z" id="Shape"></path>
                            <path d="M60.8936192,61.7163783 L70.4347607,61.7163783 L70.4347607,48.8068255 L60.8936192,48.8068255 L60.8936192,61.7163783 Z M64.0284882,51.9821468 L67.2998912,51.9821468 L67.2998912,58.5406514 L64.0284882,58.5406514 L64.0284882,51.9821468 Z" id="Shape"></path>
                            <path d="M32.0655945,74.6948801 L35.2685304,74.6948801 L35.2685304,90.9874137 L33.632929,90.9874137 L33.632929,94.1629381 L68.8674263,94.1629381 L68.8674263,90.9874137 L67.2318249,90.9874137 L67.2318249,74.6948801 L70.4347607,74.6948801 L70.4347607,65.0300042 L32.0655945,65.0300042 L32.0655945,74.6948801 Z M49.682843,90.9874137 L44.8098721,90.9874137 L44.8098721,79.5618946 L49.6826429,79.5618946 L49.6826429,90.9874137 L49.682843,90.9874137 Z M57.6906833,90.9874137 L52.8177123,90.9874137 L52.8177123,79.5618946 L57.6906833,79.5618946 L57.6906833,90.9874137 Z M64.0967553,90.9874137 L60.8255525,90.9874137 L60.8255525,76.3863709 L41.6748026,76.3863709 L41.6748026,90.9874137 L38.4035998,90.9874137 L38.4035998,74.6948801 L64.0967553,74.6948801 L64.0967553,90.9874137 L64.0967553,90.9874137 Z M35.2004637,68.205731 L67.2998912,68.205731 L67.2998912,71.5195588 L35.2004637,71.5195588 L35.2004637,68.205731 Z" id="Shape"></path>
                            <polygon id="Shape" points="3.23716942 47.1496071 3.23716942 99.0646293 6.37203865 99.0646293 6.37203865 89.2959236 33.6331292 89.2959236 33.6331292 86.1203992 6.37203865 86.1203992 6.37203865 47.1496071"></polygon>
                            <polygon id="Shape" points="68.8672256 89.2959236 96.1283164 89.2959236 96.1283164 99.0646293 99.2629852 99.0646293 99.2629852 47.1496071 96.1283164 47.1496071 96.1283164 86.1203992 68.8672256 86.1203992"></polygon>
                            <path d="M12.8467779,48.8066227 L12.8467779,82.8063683 L25.5910555,82.8063683 L25.5910555,48.8066227 L12.8467779,48.8066227 Z M22.455986,79.631047 L15.9816472,79.631047 L15.9816472,74.6950832 L22.455986,74.6950832 L22.455986,79.631047 Z M22.455986,71.5193564 L15.9816472,71.5193564 L15.9816472,51.9821468 L22.455986,51.9821468 L22.455986,71.5193564 Z" id="Shape"></path>
                            <path d="M76.9094997,48.8066227 L76.9094997,82.8063683 L89.6535775,82.8063683 L89.6535775,48.8066227 L76.9094997,48.8066227 Z M86.518708,79.631047 L80.0443692,79.631047 L80.0443692,74.6950832 L86.518708,74.6950832 L86.518708,79.631047 L86.518708,79.631047 Z M86.518708,71.5193564 L80.0443692,71.5193564 L80.0443692,51.9821468 L86.518708,51.9821468 L86.518708,71.5193564 L86.518708,71.5193564 Z" id="Shape"></path>
                            <path d="M72.0707623,32.5832415 L68.8335932,32.5832415 L68.8335932,21.1921972 C68.8335932,11.9065422 61.7812883,4.26208502 52.8177123,3.45558019 L52.8177123,0.102004509 L49.682843,0.102004509 L49.682843,3.45578298 C40.7196675,4.26208502 33.6671625,11.906745 33.6671625,21.1924 L33.6671625,32.5834443 L30.4299931,32.5834443 L30.4299931,35.7589684 L72.0707623,35.7589684 L72.0707623,32.5832415 L72.0707623,32.5832415 Z M51.2501776,6.55688232 C58.6874592,6.55688232 64.8302733,12.2784632 65.6138405,19.6047394 L36.8865145,19.6047394 C37.6700817,12.2784632 43.8130961,6.55688232 51.2501776,6.55688232 Z M65.6983236,32.5832415 L36.8020318,32.5832415 L36.8020318,22.7800607 L65.6983236,22.7800607 L65.6983236,32.5832415 Z" id="Shape"></path>
                        </g>
                    </g>
                </g>
            </g>
        </g>
    </g>
</svg>