<?xml version="1.0" encoding="UTF-8" standalone="no"?>
<svg width="944px" height="1242px" viewBox="0 0 944 1242" version="1.1" xmlns="http://www.w3.org/2000/svg" xmlns:xlink="http://www.w3.org/1999/xlink">
    <!-- Generator: Sketch 47.1 (45422) - http://www.bohemiancoding.com/sketch -->
    <title>Group 7</title>
    <desc>Created with Sketch.</desc>
    <defs>
        <linearGradient x1="77.3529582%" y1="-4.75928058%" x2="66.9408917%" y2="118.975339%" id="linearGradient-1">
            <stop stop-color="#FF1F00" stop-opacity="0.800215127" offset="0%"></stop>
            <stop stop-color="#FFD2BF" stop-opacity="0.794695094" offset="67.1915906%"></stop>
            <stop stop-color="#F9FCF4" offset="100%"></stop>
            <stop stop-color="#FA370B" stop-opacity="0.231460511" offset="100%"></stop>
            <stop stop-color="#F4FEE2" offset="100%"></stop>
            <stop stop-color="#FFFCEF" offset="100%"></stop>
        </linearGradient>
        <filter x="-4.2%" y="-3.0%" width="108.4%" height="108.4%" filterUnits="objectBoundingBox" id="filter-2">
            <feOffset dx="0" dy="2" in="SourceAlpha" result="shadowOffsetOuter1"></feOffset>
            <feGaussianBlur stdDeviation="2" in="shadowOffsetOuter1" result="shadowBlurOuter1"></feGaussianBlur>
            <feColorMatrix values="0 0 0 0 1   0 0 0 0 1   0 0 0 0 1  0 0 0 0.5 0" type="matrix" in="shadowBlurOuter1" result="shadowMatrixOuter1"></feColorMatrix>
            <feMerge>
                <feMergeNode in="shadowMatrixOuter1"></feMergeNode>
                <feMergeNode in="SourceGraphic"></feMergeNode>
            </feMerge>
        </filter>
    </defs>
    <g id="Page-2" stroke="none" stroke-width="1" fill="none" fill-rule="evenodd">
        <g id="Desktop-HD">
            <g id="Group-7" transform="translate(-507.000000, -41.000000)">
                <g id="Group-9">
                    <g id="Group-11">
                        <g id="Group-10">
                            <g id="Group-8">
                                <path d="M21.6668833,768.214552 C465.882391,732.863622 799.188196,666.324976 1021.5843,568.598613 C1255.41654,465.846926 1023.90906,321.115916 1242.25584,228.200643 C1387.82036,166.257128 1305.74228,98.289174 996.021607,24.2967805 L1113.65466,24.2967805 C1408.32464,83.6758212 1499.96259,168.359741 1388.56849,278.34854 C1221.47735,443.331738 1560.09925,450.309354 1346.53104,697.326352 C1250.74492,808.114371 978.039311,1005.86809 528.41421,1290.5875 L21.6668833,768.214552 Z" id="Rectangle-2" fill="url(#linearGradient-1)" transform="translate(728.036443, 657.442141) rotate(2.000000) translate(-728.036443, -657.442141) "></path>
                                <g id="Group-6" transform="translate(1308.515924, 82.622886)">
                                    <g id="Group-4" stroke="#000000" stroke-width="3" fill-opacity="0.463258605" fill="#FFFFFF">
                                        <path d="M35.6448178,80.2752226 C47.0098696,62.5613522 63.1057325,48.7236077 63.1057325,31.3883182 C63.1057325,14.0530287 48.9790331,0 31.5528662,0 C14.1266994,0 0,14.0530287 0,31.3883182 C0,44.4917424 14.3469308,63.1957966 27.1112443,80.2752226 C35.0037538,90.8358793 28.2867531,90.7392142 35.6448178,80.2752226 Z" id="Oval"></path>
                                    </g>
                                    <g id="meditation" transform="translate(12.992357, 8.351953)" fill-rule="nonzero" fill="#000000">
                                        <path d="M18.5612407,41.7597666 C10.3609482,41.7597666 3.71210191,42.7991208 3.71210191,44.0820737 C3.71210191,45.3615465 10.3609482,46.3997407 18.5612407,46.3997407 C26.7600709,46.3997407 33.4089172,45.3615465 33.4089172,44.0820737 C33.4089172,42.8002808 26.7615332,41.7597666 18.5612407,41.7597666 Z M18.5612407,45.2397472 C11.9884313,45.2397472 7.70696623,44.6075507 5.91132443,44.0809137 C7.70696623,43.5542766 11.9869691,42.9197602 18.5612407,42.9197602 C25.1355123,42.9197602 29.4155151,43.5531166 31.2096947,44.0809137 C29.4140529,44.6075507 25.13405,45.2397472 18.5612407,45.2397472 Z" id="Shape"></path>
                                        <path d="M37.0052588,20.2567769 C36.5315494,18.9588598 34.7510551,18.4286839 32.9037365,18.9892798 C31.0623579,18.0085991 30.2099778,17.7855197 29.8372472,16.8178761 L28.2349508,12.6474485 C27.7508464,11.3828485 26.6578991,10.438382 25.3139897,10.1153513 L21.5569834,9.21723909 L21.5569834,8.29015548 C22.4479731,7.1341981 23.0167215,5.61609869 23.0167215,4.34570443 C23.0167215,1.94542702 21.0223896,0 18.5617732,0 C16.1011568,0 14.106825,1.94542702 14.106825,4.34570443 C14.106825,5.60306157 14.6622086,7.10377817 15.5368634,8.25828698 L15.5368634,9.28821893 L12.0679437,10.1182485 C10.7240343,10.438382 9.63108705,11.384297 9.14698268,12.6474485 L7.54320132,16.8178761 C7.15859079,17.8202853 6.18741208,18.0781304 4.39206795,19.0341854 C2.63533337,18.4431696 0.64842647,18.8067602 0.118287633,20.2553283 C-0.521739927,22.0080958 1.53050622,23.9303457 3.9836977,24.1157624 C3.81292469,24.4822502 3.71194586,24.8849521 3.71194586,25.3122797 C3.71194586,26.4740314 4.41731266,27.4677491 5.42710092,27.9298424 L12.0649738,30.7980073 C10.4671323,31.5541598 9.13510282,31.9438247 8.07631013,33.2591245 C7.39173308,34.109434 7.19868533,34.9959577 7.52983648,35.7550075 C8.25747802,37.4208608 10.8606528,37.3904409 12.8505296,36.5618599 C13.7192445,36.2011664 14.4736158,35.6985133 15.0438491,35.1277774 L18.5632582,33.6067809 L22.0826673,35.1277774 C22.6529007,35.6985133 23.4072719,36.202615 24.2745018,36.5618599 C26.5108858,37.4918407 28.9299227,37.2832468 29.59668,35.7550075 C30.7386317,33.1388934 26.5450404,31.5020114 25.0600577,30.7994558 L31.6979305,27.9312909 C32.7062338,27.4677491 33.4116006,26.4740314 33.4116006,25.3122797 C33.4116006,24.882055 33.3061668,24.4808016 33.1324239,24.1143139 C35.7073839,23.9274486 37.6200417,21.9371159 37.0052588,20.2567769 Z M18.5617732,1.44856814 C20.1997092,1.44856814 21.5317387,2.74793377 21.5317387,4.34570443 C21.5317387,6.11150899 19.9962666,8.62187758 18.5617732,8.62187758 C17.1272799,8.62187758 15.5918078,6.11150899 15.5918078,4.34570443 C15.5918078,2.74793377 16.9238373,1.44856814 18.5617732,1.44856814 Z M20.0586358,9.62863244 L18.5573183,11.223506 L17.0218461,9.61269819 C17.5044655,9.89227184 18.0182696,10.0704457 18.5617732,10.0704457 C19.0889421,10.0704457 19.5893813,9.89372041 20.0586358,9.62863244 Z M8.93314517,17.3277721 L10.5369265,13.1573444 C10.8502579,12.3432491 11.5541397,11.733402 12.4198846,11.5262567 L16.000178,10.6701529 L17.3099328,12.0448441 C17.9855999,12.7531939 19.1364616,12.7502968 19.8076738,12.0376013 L21.1471282,10.6151073 L24.9620488,11.5277053 C25.8277938,11.7348505 26.5316756,12.3446977 26.845007,13.158793 L28.4473033,17.3292207 C28.9804121,18.716949 29.9798055,19.0848853 31.3073801,19.7917865 C31.0356282,19.9974832 30.7891211,20.2220113 30.5931034,20.4697164 C30.3228365,20.8130271 30.1461236,21.1809634 30.0644495,21.5474511 C28.7190552,20.9984438 27.7716362,20.6652731 26.9548957,19.280442 L24.9011645,15.7908413 C24.6368376,15.3403366 23.9299858,15.5243048 23.9299858,16.0428922 L23.9299858,23.3248442 L27.0855742,23.6942291 L18.5617732,27.7241457 L10.0364873,23.691332 L13.4489777,23.2929757 L13.4489777,16.0530322 C13.4489777,15.5315476 12.7376709,15.3548223 12.473344,15.8082241 C9.57911266,20.7869528 9.85234948,20.5102763 7.07840173,21.641608 C6.96554304,21.0042381 6.54826289,20.3813538 5.91863021,19.8729063 C7.28481433,19.1457251 8.38964148,18.7488175 8.93314517,17.3277721 Z M28.2646505,22.3687893 L25.4164536,22.0356186 L25.4164536,19.5716042 L25.6674156,19.9974832 C26.2673487,21.0201723 27.182098,21.8502019 28.2646505,22.3687893 Z M9.19747209,22.3296779 C10.5978108,21.6329166 11.2615981,20.7666729 11.9654799,19.5716042 L11.9654799,22.0066472 L9.19747209,22.3296779 Z M3.17883706,22.4933661 C2.45119551,22.2413153 1.26766427,21.4214257 1.51714137,20.7434958 C1.76364851,20.0641173 3.20853671,20.1597228 3.93766324,20.4117737 C5.10634465,20.8188213 5.77904183,21.672028 5.6008439,22.161644 C5.41967601,22.6541572 4.34454851,22.9004138 3.17883706,22.4933661 Z M6.05821859,26.6188882 C5.52659477,26.3755287 5.1969286,25.8757727 5.1969286,25.3122797 C5.1969286,24.2866935 6.28987589,23.4653553 7.45261738,24.0780997 L16.859983,28.528101 L13.8142834,29.9694263 L6.05821859,26.6188882 Z M12.2669314,35.2277287 C11.3863366,35.5927678 9.24944649,36.001264 8.89453561,35.1857202 C8.53665478,34.3687277 10.326059,33.1475848 11.1992288,32.7839942 C12.0664587,32.4233007 14.2092888,31.9988703 14.5716246,32.8274512 C14.9324754,33.6473408 13.1445562,34.8626895 12.2669314,35.2277287 Z M21.0506043,33.0968849 L20.3942419,32.8129656 L21.1218835,32.4986263 C21.0669391,32.6927344 21.0431794,32.8911882 21.0506043,33.0968849 Z M25.9228327,32.7839942 C27.6558075,33.5053811 28.4458183,34.6874127 28.2290109,35.1857202 C27.8741,36.001264 25.7386948,35.595665 24.8566151,35.2277287 C23.9760203,34.8626895 22.194041,33.6458922 22.5504369,32.8260027 C22.9172276,31.9872817 25.0526328,32.4218522 25.9228327,32.7839942 Z M31.0950275,26.6058511 L16.0729422,33.0968849 C16.083337,32.8086199 16.0551224,32.5247005 15.9392937,32.2610611 C15.7195163,31.7569594 15.2829314,31.3919202 14.7023031,31.1615979 L29.7362683,24.0476797 C30.7519965,23.5030181 31.9266179,24.2432364 31.9266179,25.3122797 C31.9266179,25.8757727 31.5969517,26.3755287 31.0950275,26.6058511 Z M33.9447094,22.4933661 C33.203703,22.7512112 31.7736647,22.8381253 31.5227026,22.1630926 C31.2776804,21.4822655 32.4523018,20.6667217 33.1843983,20.4132223 C33.9224347,20.1553771 35.353958,20.0597716 35.6064051,20.7434958 C35.8514273,21.4228743 34.6797759,22.2384181 33.9447094,22.4933661 Z" id="Shape"></path>
                                    </g>
                                </g>
                                <g id="Group-3" transform="translate(1295.523567, 294.205704)">
                                    <g id="Group-5">
                                        <path d="M83.345971,188.435522 C109.920136,146.854542 147.556051,114.372258 147.556051,73.679947 C147.556051,44.4112816 130.467311,19.1285994 105.710404,7.23995046 C96.0477114,2.599776 85.2168777,0 73.7780255,0 C33.0315471,0 0,32.9876359 0,73.679947 C0,104.438511 33.5465,148.343817 63.3924682,188.435522 C81.8470126,213.225275 66.1410845,212.998366 83.345971,188.435522 Z" id="Oval" stroke="#000000" stroke-width="5" fill-opacity="0.463258605" fill="#FFFFFF"></path>
                                        <g id="garden" transform="translate(25.056688, 31.551824)" fill-rule="nonzero" fill="#000000">
                                            <path d="M99.4404835,76.4733289 L77.8615643,76.4733289 L77.8615643,66.2370404 C82.5737477,65.603004 86.7501279,62.6589247 89.178628,58.1955693 C92.4051035,57.4577707 95.3362155,55.589063 97.5045192,52.869703 C99.8583389,49.9175204 101.154777,46.1445294 101.154777,42.2456403 C101.154777,36.3145934 98.1189543,30.8250793 93.3423639,27.9736942 C92.8446913,18.083082 85.2231284,10.1967601 75.9408127,10.1967601 C73.0189864,10.1967601 70.1279806,10.9922702 67.5805448,12.4973161 C66.7879038,12.9655307 66.5247439,13.9877365 66.9927814,14.7804796 C67.4610164,15.5736181 68.4830333,15.8366799 69.2752791,15.3684654 C71.3098296,14.1664051 73.6146525,13.5311828 75.9408127,13.5311828 C83.697907,13.5311828 90.0204633,20.4591374 90.0350833,28.9747523 C90.0362687,29.6022665 90.3893219,30.176022 90.9490308,30.4594411 C95.124028,32.5732252 97.8214176,37.1994378 97.8214176,42.2454427 C97.8214176,48.6138719 93.5102963,54.127696 87.7930869,55.0710426 C87.2576789,55.1595863 86.798927,55.502891 86.563229,55.9920556 C84.7752428,59.7014057 81.5446184,62.2088932 77.8615643,62.8617057 L77.8615643,48.1086983 L86.0637782,40.5633093 C86.7412373,39.9399456 86.7854925,38.8853264 86.1623644,38.207611 C85.5390389,37.5298957 84.485016,37.4854262 83.807557,38.1089876 L77.8615643,43.5787374 L77.8615643,32.4491058 C77.8615643,31.5282905 77.1153517,30.7817956 76.1948846,30.7817956 C75.2744174,30.7817956 74.5282048,31.5282905 74.5282048,32.4491058 L74.5282048,52.6283818 L68.5822122,47.1586319 C67.9047531,46.5350705 66.8503352,46.57954 66.2274047,47.2572554 C65.6042767,47.9349707 65.6485318,48.9895899 66.3259909,49.6129536 L74.5284024,57.1583426 L74.5284024,62.9397744 C70.5983889,62.4332172 67.1324616,59.8318496 65.2727584,55.8956062 C65.0504949,55.4250199 64.6211806,55.0852728 64.1124442,54.9773602 C58.5821337,53.8019816 54.5683516,48.4476548 54.5683516,42.2454427 C54.5683516,37.3549823 57.0335993,32.9287836 61.0019409,30.694833 C61.5330024,30.3958003 61.8585937,29.830741 61.8510862,29.2214099 C61.850691,29.1751616 61.8491105,29.1293086 61.84753,29.0836532 C61.8465421,29.0571691 61.8455543,29.0308827 61.8455543,29.0045963 C61.8455543,25.5314287 62.8701395,22.2497764 64.8084747,19.5148026 C65.3409192,18.7635644 65.1637011,17.7227801 64.4129444,17.1905295 C63.6619902,16.6576859 62.6215996,16.8353663 62.0895502,17.5862093 C59.8813378,20.7018421 58.6556288,24.3928115 58.524444,28.3007922 C54.0044938,31.2494172 51.2353872,36.5013653 51.2353872,42.2456403 C51.2353872,49.7173087 55.9770081,56.2256687 62.622785,58.0455588 C65.1241876,62.7583388 69.548515,65.8081566 74.5287975,66.2963331 L74.5287975,76.4733289 L73.4731942,76.4733289 C73.2276177,72.1099805 70.246126,68.314063 66.0942442,67.0323529 C64.7914838,64.2596295 62.2610388,62.2492123 59.2854741,61.597388 C58.3098856,57.1613073 54.3180335,53.8533686 49.6663058,53.8533686 C46.0792696,53.8533686 42.8267152,55.7819618 41.0928625,58.8517416 C37.6783028,58.9815926 34.6083008,60.8064237 32.8448129,63.6334987 C31.7457447,60.6087814 28.9304073,58.4064536 25.6341905,58.1696781 L25.6341905,53.7861702 C30.133396,53.1604348 34.1173455,50.3452182 36.4450862,46.0864226 C39.5372157,45.3717481 42.3454407,43.5771563 44.4244439,40.9698594 C46.6881728,38.1311235 47.9348239,34.5030043 47.9348239,30.7541257 C47.9348239,25.0644 45.028803,19.7966405 40.4533364,17.04882 C39.9568492,7.55981689 32.6367743,0 23.7237124,0 C20.3048062,0 17.0162945,1.10304152 14.2134038,3.19034155 C13.4752915,3.73998471 13.3221767,4.78472176 13.871612,5.52331093 C14.4210473,6.26170245 15.4651917,6.41487521 16.2036992,5.86523206 C18.4267291,4.2093851 21.0271131,3.33442277 23.7237124,3.33442277 C31.1109602,3.33442277 37.1324236,9.93527936 37.1464509,18.0488899 C37.1476363,18.6764041 37.5006895,19.2501596 38.0603984,19.5335786 C42.0338767,21.5453793 44.6010693,25.9498374 44.6010693,30.7541257 C44.6010693,36.8168024 40.4991721,42.0655882 35.059545,42.9630817 C34.5243346,43.0516255 34.0653852,43.3949301 33.8296871,43.8840947 C32.1414725,47.3863158 29.1030813,49.763557 25.6337954,50.4078708 L25.6337954,36.3989866 L33.463792,29.1963093 C34.1412511,28.5729456 34.1853087,27.5183264 33.5623782,26.8406111 C32.9394478,26.1626981 31.8850298,26.1184262 31.2075707,26.7419876 L25.6337954,31.8692234 L25.6337954,21.3756046 C25.6337954,20.4547893 24.8875828,19.7082944 23.9671156,19.7082944 C23.0466485,19.7082944 22.3004359,20.4547893 22.3004359,21.3756046 L22.3004359,40.5332677 L16.726858,35.4060318 C16.0492014,34.7824705 14.994981,34.82694 14.3720506,35.5046553 C13.7489225,36.1823707 13.7931777,37.2371875 14.4706368,37.8603536 L22.3002383,45.0630309 L22.3002383,50.4859395 C18.5946616,49.9787895 15.3316361,47.5120163 13.5742728,43.792784 C13.3520094,43.3221978 12.9226951,42.9824507 12.4139587,42.874538 C7.15214245,41.7556851 3.33296437,36.6586886 3.33296437,30.7541257 C3.33296437,26.0974761 5.67907888,21.8837429 9.45597751,19.7575073 C9.98664392,19.4586722 10.3122352,18.8946012 10.3051228,18.2854677 C10.3047277,18.2404053 10.3033447,18.1953428 10.3017641,18.150478 C10.3011714,18.126168 10.299986,18.1020557 10.299986,18.0773504 C10.299986,16.0151509 10.6799084,14.0209404 11.4290845,12.1502563 C11.6519407,11.5944862 11.9085809,11.0485983 12.1924855,10.527218 C12.632666,9.71846579 12.334339,8.70614207 11.5258926,8.26579509 C10.7174462,7.82505282 9.70530774,8.12369029 9.26532483,8.93244247 C8.91938407,9.56806002 8.60643709,10.2333239 8.33537443,10.910051 C7.51428374,12.959799 7.0592857,15.1275395 6.97966599,17.3640594 C2.65076366,20.2035859 0,25.2434639 0,30.7541257 C0,37.9279472 4.54760959,44.1791746 10.9246946,45.9409579 C13.3227694,50.4383077 17.5445901,53.3562982 22.3004359,53.8446723 L22.3004359,58.6135827 C20.4764924,59.2511766 18.9155112,60.5117391 17.9112754,62.2049404 C13.8639069,62.4351936 10.5935714,65.4255212 9.95977473,69.3692751 C6.9747268,70.6954547 4.75545064,73.3256781 3.9383113,76.4729336 L1.66667975,76.4729336 C0.746212591,76.4729336 0,77.2194285 0,78.1402438 C0,79.0610592 0.746212591,79.807554 1.66667975,79.807554 L5.31772786,79.807554 L42.9413044,79.807554 L71.755542,79.807554 L99.4404835,79.807554 C100.360951,79.807554 101.107163,79.0610592 101.107163,78.1402438 C101.107163,77.2194285 100.360753,76.4733289 99.4404835,76.4733289 Z M7.43387376,76.4733289 C8.22888553,74.4465074 9.90129474,72.8319677 12.0318631,72.1416032 C12.7022097,71.9243944 13.1635299,71.309134 13.1842745,70.6047369 C13.2682407,67.7565142 15.5657536,65.5253306 18.4148751,65.5253306 C18.5290691,65.5253306 18.6539318,65.5306669 18.8074418,65.5419325 C19.5214509,65.5935171 20.1894267,65.1855835 20.466614,64.525063 C21.2434495,62.6763172 23.0403263,61.4815697 25.0444514,61.4815697 C27.6179661,61.4815697 29.7904188,63.4900104 29.9903571,66.0540236 C30.054369,66.8724603 30.7041687,67.5227034 31.5224934,67.5867395 C31.9768987,67.6221174 32.4162889,67.7219268 32.8323662,67.8741113 C32.8341443,67.8747042 32.8357248,67.8756925 32.8375029,67.8762854 C32.9147518,67.9047459 32.9908153,67.9353804 33.0662861,67.9673985 C33.0824867,67.9743159 33.0988848,67.9812334 33.1150853,67.9883485 C33.1856169,68.0189831 33.2553583,68.0511988 33.3239142,68.0849956 C33.3472272,68.0966565 33.370145,68.1087127 33.3932604,68.1205712 C33.4882904,68.1691912 33.5813447,68.2209735 33.6726209,68.2753251 C33.7224079,68.3051691 33.7725901,68.3340249 33.8211917,68.3656476 C33.8581368,68.3893647 33.893699,68.4148606 33.9296563,68.4391706 C33.9843825,68.476525 34.0387136,68.5144723 34.0920568,68.5540007 C34.1222846,68.5765319 34.1521173,68.5990632 34.1815549,68.6221873 C34.2459619,68.6723885 34.3095787,68.7241707 34.3714173,68.7777318 C34.3886057,68.7923573 34.4057941,68.8063899 34.4227849,68.8212131 C34.5869635,68.9666778 34.7416589,69.1234081 34.8856856,69.2898229 C34.8989226,69.305239 34.9119621,69.3206551 34.9250015,69.3362688 C34.9856548,69.408013 35.0441348,69.4817336 35.1008367,69.5570353 C35.1117029,69.5714631 35.1229642,69.5856934 35.1336329,69.6003189 C35.2630396,69.7766158 35.3809874,69.9623996 35.4868836,70.1562866 C35.5009109,70.1819801 35.5141479,70.2082665 35.5279777,70.2343553 C35.5655155,70.3060995 35.6012752,70.3792271 35.6354544,70.453343 C35.6490866,70.482594 35.6627187,70.5118451 35.6757582,70.5412938 C35.7178401,70.6373479 35.7577487,70.7347856 35.7939036,70.8338043 C35.7952866,70.8373619 35.796472,70.8405242 35.7978549,70.8440817 C35.9932492,71.3840404 36.4527913,71.7854519 37.0138831,71.9064089 C37.162849,71.938427 37.3088515,71.9775602 37.4524831,72.0216344 C37.4993066,72.0360623 37.5447471,72.0536524 37.5911755,72.0692662 C37.6867982,72.1012842 37.7820257,72.1338952 37.87508,72.1710519 C37.9288184,72.192595 37.9811738,72.216905 38.0339243,72.2400291 C38.1171003,72.2763953 38.1998811,72.3133544 38.2808837,72.3536734 C38.3354124,72.3807504 38.3883605,72.4100015 38.4417037,72.4388572 C38.5183599,72.4801645 38.5942259,72.5228552 38.6683137,72.56772 C38.7210642,72.5995404 38.7730245,72.6325466 38.8245896,72.6661458 C38.8965042,72.7129871 38.9674309,72.7618047 39.0369747,72.8120058 C39.0865642,72.8477791 39.1355609,72.8835523 39.1837674,72.9209067 C39.2527185,72.9742701 39.3194963,73.0298076 39.3856814,73.0861357 C39.4305293,73.1242806 39.4759698,73.1622279 39.5196322,73.2017564 C39.5873979,73.2634208 39.6522,73.3276545 39.7168046,73.3922835 C39.7549351,73.4304285 39.7944487,73.4677829 39.8313938,73.5073113 C39.9040986,73.5845895 39.9728521,73.6652275 40.0410129,73.7462609 C40.0663016,73.7765001 40.0931708,73.8049606 40.1178667,73.8355952 C40.2087478,73.9490418 40.2954799,74.0656508 40.3772729,74.1860149 C40.3944613,74.2111155 40.4092788,74.2379948 40.4258745,74.263293 C40.4888986,74.3593472 40.5503421,74.4563895 40.6074391,74.5561989 C40.6331229,74.601459 40.6562383,74.6484978 40.6807366,74.6945485 C40.7249918,74.7771629 40.7684566,74.8599751 40.8085628,74.9447636 C40.8334563,74.9975341 40.8555839,75.0514904 40.8786993,75.1048538 C40.9138663,75.1860848 40.9478479,75.2673158 40.9790636,75.3503255 C41.0004009,75.4072465 41.0199601,75.4647604 41.0395193,75.5224719 C41.0673763,75.6046911 41.0934552,75.6875032 41.1175585,75.7713036 C41.1345493,75.8305962 41.1503547,75.8902842 41.1655674,75.9501698 C41.1867071,76.035156 41.2052784,76.1207351 41.2224668,76.2069071 C41.2345184,76.2669904 41.2461749,76.3270736 41.2562509,76.3879475 C41.2609925,76.4162103 41.2633633,76.4448684 41.2675122,76.4733289 L7.43387376,76.4733289 L7.43387376,76.4733289 Z M44.628136,76.4735266 L44.628136,76.4733289 C44.6267531,76.4575175 44.6233944,76.4419038 44.622209,76.4262901 C44.603045,76.2272643 44.578349,76.0294244 44.5457504,75.8339562 C44.5437747,75.8224929 44.5412063,75.8110297 44.5392307,75.7995664 C44.505249,75.6001454 44.4647477,75.4027007 44.4173315,75.2074302 C44.4153558,75.1989315 44.4137753,75.1904329 44.411602,75.1823296 C44.3639882,74.9888378 44.3088669,74.798113 44.2488064,74.6095623 C44.2422866,74.5894028 44.2363596,74.5686503 44.2296423,74.5484908 C44.1703721,74.3670552 44.1043845,74.1883866 44.0334578,74.0116944 C44.0231842,73.9861986 44.0133059,73.9605051 44.0028348,73.9352069 C43.9317105,73.7622699 43.8548567,73.5922975 43.7730637,73.4248945 C43.7602218,73.3984105 43.74738,73.372124 43.7341429,73.3458376 C43.6507694,73.1794228 43.5626543,73.015775 43.4694024,72.8552895 C43.4551776,72.8309795 43.4409527,72.8070648 43.4265303,72.7827548 C43.3305125,72.6208858 43.2299506,72.4619814 43.1238568,72.3068322 C43.1110149,72.2878585 43.0975803,72.2694778 43.0845409,72.2508994 C42.973903,72.0915998 42.8591163,71.9352647 42.7386001,71.7836731 C42.7310925,71.7741863 42.7229923,71.7650947 42.7154847,71.7554102 C42.5894366,71.598087 42.4586469,71.4447166 42.3221277,71.2962873 C42.3205472,71.2947061 42.3191642,71.2929273 42.3177813,71.2913462 C42.1826451,71.1446956 42.0417794,71.0029861 41.8969624,70.8654271 C41.8843181,70.8533709 41.8720689,70.8409195 41.8594246,70.8290609 C41.7201395,70.6984194 41.5759151,70.5727189 41.4281346,70.4509713 C41.4083779,70.4347646 41.3888187,70.4181626 41.3688644,70.4017583 C41.2234547,70.2841612 41.0740936,70.1713074 40.9209788,70.0628018 C40.8972707,70.0460022 40.8735626,70.0292026 40.8498544,70.0126007 C40.6969372,69.9062692 40.5402661,69.804681 40.3802364,69.708034 C40.3551453,69.6930131 40.3298567,69.6779923 40.3047656,69.6631692 C40.1425627,69.5673127 39.9773962,69.4761996 39.8088711,69.3906205 C39.7857557,69.3787619 39.7622451,69.3678916 39.7389322,69.3564284 C39.5650727,69.270454 39.3884474,69.1888277 39.2080682,69.1141189 C39.1920652,69.1073991 39.1758647,69.1016675 39.1598617,69.0951453 C38.9707896,69.0182624 38.7789515,68.9465183 38.5833596,68.8826798 C38.5827669,68.8824822 38.5819767,68.8820869 38.5811864,68.8816916 C38.572691,68.8644967 38.5630102,68.8484877 38.5545148,68.8314905 C38.4871443,68.6965008 38.4166126,68.5638828 38.3423273,68.4334389 C38.3043943,68.3668335 38.2638929,68.3018092 38.2243794,68.236192 C38.1763705,68.1573327 38.1279665,68.0786711 38.0775868,68.0013929 C38.0291827,67.9268818 37.9793957,67.8537542 37.9284233,67.7810218 C37.8841681,67.7179739 37.8387276,67.6559142 37.7928919,67.5940522 C37.7352022,67.5159835 37.6773149,67.4383101 37.6168593,67.3624155 C37.5812971,67.317946 37.5439568,67.2752552 37.5076044,67.2317739 C37.3671339,67.0627898 37.2203412,66.8997349 37.0668312,66.7424117 C37.0403572,66.7153347 37.0150685,66.6872695 36.9883969,66.6605878 C36.9121358,66.5846931 36.8333064,66.5119608 36.7542794,66.4390308 C36.7086413,66.396933 36.6632007,66.3550328 36.6165748,66.3139232 C36.541104,66.2475154 36.4644478,66.1822935 36.3862111,66.1182574 C36.3293116,66.0716138 36.2714243,66.026749 36.2133395,65.9814889 C36.1408322,65.9255562 36.0689176,65.8690305 35.9944346,65.8152718 C35.8897238,65.7393771 35.7826422,65.6670401 35.6743752,65.5960865 C35.6455304,65.5771128 35.6180685,65.5561628 35.5888285,65.5375844 C36.8034737,63.4848717 39.0268988,62.1798398 41.4834535,62.1798398 C41.6338024,62.1798398 41.7969932,62.1867573 41.9969316,62.2013828 C42.7099528,62.2545486 43.3787189,61.8448362 43.6559062,61.1845133 C44.6755523,58.757071 47.0349038,57.1885819 49.6663058,57.1885819 C53.0453034,57.1885819 55.897586,59.8259204 56.1599557,63.1925588 C56.22377,64.0109955 56.8737672,64.6612385 57.6920919,64.725077 C60.2341934,64.9233122 62.4378618,66.6022833 63.3063687,69.0026487 C63.501763,69.5426074 63.9613051,69.9440188 64.5223969,70.0649759 C67.597338,70.7278681 69.8784528,73.3731122 70.1346979,76.4741195 L44.628136,76.4741195 L44.628136,76.4735266 Z" id="Shape"></path>
                                        </g>
                                    </g>
                                </g>
                            </g>
                        </g>
                        <g id="Group-2" transform="translate(722.931847, 408.349066)">
                            <path d="M150.442099,340.535944 C198.409303,265.391841 266.343312,206.690673 266.343312,133.15255 C266.343312,59.6144272 206.720331,0 133.171656,0 C59.6229813,0 0,59.6144272 0,133.15255 C0,188.738655 60.5524874,268.083222 114.425399,340.535944 C147.736432,385.335362 119.386737,384.925298 150.442099,340.535944 Z" id="Oval" stroke="#000000" stroke-width="8" fill-opacity="0.463258605" fill="#FFFFFF"></path>
                            <g id="building-with-columns-and-rounded-roof" filter="url(#filter-2)" transform="translate(51.041401, 35.263803)" fill-rule="nonzero" fill="#1D1D1B">
                                <g id="city-hall">
                                    <rect id="Rectangle-path" x="0" y="159.96755" width="166.115263" height="5.05195664"></rect>
                                    <rect id="Rectangle-path" x="0" y="67.627952" width="166.115263" height="5.05195664"></rect>
                                    <rect id="Rectangle-path" x="31.1468551" y="59.5785032" width="103.821553" height="5.05195664"></rect>
                                    <rect id="Rectangle-path" x="70.080424" y="41.5128947" width="5.19114252" height="5.05195664"></rect>
                                    <rect id="Rectangle-path" x="80.4614112" y="41.5128947" width="5.19114252" height="5.05195664"></rect>
                                    <rect id="Rectangle-path" x="90.8459674" y="41.5128947" width="5.19114252" height="5.05195664"></rect>
                                    <rect id="Rectangle-path" x="49.3145561" y="152.493984" width="67.485826" height="5.05195664"></rect>
                                    <path d="M51.9669055,77.6466927 L51.9669055,98.1845629 L67.4296968,98.1845629 L67.4296968,77.6466927 L51.9669055,77.6466927 L51.9669055,77.6466927 Z M62.3491905,93.1329288 L57.0474118,93.1329288 L57.0474118,82.698972 L62.3491905,82.698972 L62.3491905,93.1329288 L62.3491905,93.1329288 Z" id="Shape"></path>
                                    <path d="M75.3267224,77.6466927 L75.3267224,98.1845629 L90.7895137,98.1845629 L90.7895137,77.6466927 L75.3267224,77.6466927 L75.3267224,77.6466927 Z M85.7093318,93.1329288 L80.4072287,93.1329288 L80.4072287,82.698972 L85.7090074,82.698972 L85.7090074,93.1329288 L85.7093318,93.1329288 Z" id="Shape"></path>
                                    <path d="M98.6868637,98.1848855 L114.149655,98.1848855 L114.149655,77.6470154 L98.6868637,77.6470154 L98.6868637,98.1848855 Z M103.76737,82.6986494 L109.069149,82.6986494 L109.069149,93.1326062 L103.76737,93.1326062 L103.76737,82.6986494 Z" id="Shape"></path>
                                    <path d="M51.9669055,118.832447 L57.1577236,118.832447 L57.1577236,144.752318 L54.5069964,144.752318 L54.5069964,149.804274 L111.609564,149.804274 L111.609564,144.752318 L108.958837,144.752318 L108.958837,118.832447 L114.149655,118.832447 L114.149655,103.456549 L51.9669055,103.456549 L51.9669055,118.832447 Z M80.5181893,144.752318 L72.6208393,144.752318 L72.6208393,126.575404 L80.5178649,126.575404 L80.5178649,144.752318 L80.5181893,144.752318 Z M93.4960456,144.752318 L85.5986956,144.752318 L85.5986956,126.575404 L93.4960456,126.575404 L93.4960456,144.752318 Z M103.878006,144.752318 L98.5765519,144.752318 L98.5765519,121.523448 L67.5400086,121.523448 L67.5400086,144.752318 L62.2385543,144.752318 L62.2385543,118.832447 L103.878006,118.832447 L103.878006,144.752318 L103.878006,144.752318 Z M57.0474118,108.508828 L109.069149,108.508828 L109.069149,113.780813 L57.0474118,113.780813 L57.0474118,108.508828 Z" id="Shape"></path>
                                    <polygon id="Shape" points="5.24629841 75.0105386 5.24629841 157.6024 10.3268047 157.6024 10.3268047 142.061318 54.5073209 142.061318 54.5073209 137.009361 10.3268047 137.009361 10.3268047 75.0105386"></polygon>
                                    <polygon id="Shape" points="111.60924 142.061318 155.789756 142.061318 155.789756 157.6024 160.869938 157.6024 160.869938 75.0105386 155.789756 75.0105386 155.789756 137.009361 111.60924 137.009361"></polygon>
                                    <path d="M20.8200504,77.6466927 L20.8200504,131.737053 L41.4739842,131.737053 L41.4739842,77.6466927 L20.8200504,77.6466927 Z M36.3931535,126.685419 L25.9005567,126.685419 L25.9005567,118.83277 L36.3931535,118.83277 L36.3931535,126.685419 Z M36.3931535,113.780491 L25.9005567,113.780491 L25.9005567,82.6986494 L36.3931535,82.6986494 L36.3931535,113.780491 Z" id="Shape"></path>
                                    <path d="M124.642901,77.6466927 L124.642901,131.737053 L145.29651,131.737053 L145.29651,77.6466927 L124.642901,77.6466927 Z M140.216004,126.685419 L129.723407,126.685419 L129.723407,118.83277 L140.216004,118.83277 L140.216004,126.685419 L140.216004,126.685419 Z M140.216004,113.780491 L129.723407,113.780491 L129.723407,82.6986494 L140.216004,82.6986494 L140.216004,113.780491 L140.216004,113.780491 Z" id="Shape"></path>
                                    <path d="M116.801031,51.836837 L111.554733,51.836837 L111.554733,33.7147694 C111.554733,18.9421758 100.125459,6.78057174 85.5986956,5.49749928 L85.5986956,0.162279468 L80.5181893,0.162279468 L80.5181893,5.4978219 C65.9920748,6.78057174 54.5624768,18.9424984 54.5624768,33.715092 L54.5624768,51.8371596 L49.3161783,51.8371596 L49.3161783,56.8891162 L116.801031,56.8891162 L116.801031,51.836837 L116.801031,51.836837 Z M83.0582803,10.4313758 C95.1114643,10.4313758 105.066778,19.5338667 106.336661,31.189275 L59.7798994,31.189275 C61.0497827,19.5338667 71.0054207,10.4313758 83.0582803,10.4313758 Z M106.473577,51.836837 L59.642983,51.836837 L59.642983,36.240909 L106.473577,36.240909 L106.473577,51.836837 Z" id="Shape"></path>
                                </g>
                            </g>
                        </g>
                    </g>
                </g>
            </g>
        </g>
    </g>
</svg>