<?xml version="1.0" encoding="UTF-8" standalone="no"?>
<svg width="933px" height="1214px" viewBox="0 0 933 1214" version="1.1" xmlns="http://www.w3.org/2000/svg" xmlns:xlink="http://www.w3.org/1999/xlink">
    <!-- Generator: Sketch 47.1 (45422) - http://www.bohemiancoding.com/sketch -->
    <title>Group 7</title>
    <desc>Created with Sketch.</desc>
    <defs>
        <linearGradient x1="77.3529582%" y1="-4.75928058%" x2="66.9408917%" y2="118.975339%" id="linearGradient-1">
            <stop stop-color="#FF1F00" stop-opacity="0.800215127" offset="0%"></stop>
            <stop stop-color="#FFD2BF" stop-opacity="0.794695094" offset="67.1915906%"></stop>
            <stop stop-color="#F9FCF4" offset="100%"></stop>
            <stop stop-color="#FA370B" stop-opacity="0.231460511" offset="100%"></stop>
            <stop stop-color="#F4FEE2" offset="100%"></stop>
            <stop stop-color="#FFFCEF" offset="100%"></stop>
        </linearGradient>
        <filter x="-4.3%" y="-3.1%" width="108.6%" height="108.7%" filterUnits="objectBoundingBox" id="filter-2">
            <feOffset dx="0" dy="2" in="SourceAlpha" result="shadowOffsetOuter1"></feOffset>
            <feGaussianBlur stdDeviation="2" in="shadowOffsetOuter1" result="shadowBlurOuter1"></feGaussianBlur>
            <feColorMatrix values="0 0 0 0 1   0 0 0 0 1   0 0 0 0 1  0 0 0 0.5 0" type="matrix" in="shadowBlurOuter1" result="shadowMatrixOuter1"></feColorMatrix>
            <feMerge>
                <feMergeNode in="shadowMatrixOuter1"></feMergeNode>
                <feMergeNode in="SourceGraphic"></feMergeNode>
            </feMerge>
        </filter>
    </defs>
    <g id="Page-2" stroke="none" stroke-width="1" fill="none" fill-rule="evenodd">
        <g id="Desktop-HD">
            <g id="Group-7" transform="translate(-482.000000, -37.000000)">
                <g id="Group-9">
                    <g id="Group-11">
                        <g id="Group-10">
                            <g id="Group-8">
                                <path d="M22.1166605,748.936164 C455.051472,714.472368 779.893094,649.603512 996.641527,554.329598 C1224.53568,454.156471 998.907252,313.057493 1211.70919,222.473935 C1353.57715,162.084896 1273.58342,95.8226016 971.72799,23.6870514 L1086.3738,23.6870514 C1373.56074,81.5759717 1462.87157,164.134744 1354.30628,271.363367 C1191.45836,432.206302 1521.48108,439.008815 1313.33636,679.826907 C1219.9827,787.834695 954.202349,980.625771 515.995318,1258.20014 L22.1166605,748.936164 Z" id="Rectangle-2" fill="url(#linearGradient-1)" transform="translate(710.548214, 640.943593) rotate(2.000000) translate(-710.548214, -640.943593) "></path>
                                <g id="Group-6" transform="translate(1276.286624, 80.549460)">
                                    <g id="Group-4" stroke="#000000" stroke-width="3" fill-opacity="0.463258605" fill="#FFFFFF">
                                        <path d="M34.7396302,78.2607113 C45.8160706,60.9913715 61.5031847,47.500886 61.5031847,30.6006266 C61.5031847,13.7003672 47.7352278,0 30.7515924,0 C13.7679569,0 0,13.7003672 0,30.6006266 C0,43.3752196 13.9825956,61.6098945 26.4227638,78.2607113 C34.1148459,88.5563477 27.568421,88.4621085 34.7396302,78.2607113 Z" id="Oval"></path>
                                    </g>
                                    <g id="meditation" transform="translate(12.662420, 8.142361)" fill-rule="nonzero" fill="#000000">
                                        <path d="M18.0898845,40.7118029 C10.0978356,40.7118029 3.61783439,41.7250745 3.61783439,42.9758315 C3.61783439,44.2231959 10.0978356,45.2353366 18.0898845,45.2353366 C26.0805084,45.2353366 32.5605096,44.2231959 32.5605096,42.9758315 C32.5605096,41.7262053 26.0819335,40.7118029 18.0898845,40.7118029 Z M18.0898845,44.1044532 C11.6839894,44.1044532 7.51125054,43.4881217 5.76120844,42.9747006 C7.51125054,42.4612796 11.6825643,41.8426863 18.0898845,41.8426863 C24.4972048,41.8426863 28.6685185,42.4601487 30.4171355,42.9747006 C28.6670934,43.4881217 24.4957797,44.1044532 18.0898845,44.1044532 Z" id="Shape"></path>
                                        <path d="M36.0655234,19.7484319 C35.6038436,18.4830862 33.8685643,17.966215 32.0681578,18.5127427 C30.2735403,17.5566723 29.4428061,17.339191 29.0795408,16.3958306 L27.5179342,12.33006 C27.0461235,11.0971952 25.9809312,10.1764302 24.6711499,9.86150602 L21.0095514,8.98593195 L21.0095514,8.08211355 C21.8779147,6.95516499 22.4322199,5.47516237 22.4322199,4.23664873 C22.4322199,1.89660641 20.4885335,0 18.0904036,0 C15.6922737,0 13.7485872,1.89660641 13.7485872,4.23664873 C13.7485872,5.46245242 14.289867,6.92550845 15.1423102,8.0510448 L15.1423102,9.05513054 L11.7614826,9.86433045 C10.4517013,10.1764302 9.386509,11.0986074 8.91469829,12.33006 L7.35164439,16.3958306 C6.97680091,17.3730842 6.03028494,17.6244587 4.28053294,18.5565214 C2.56841001,17.9803372 0.631959909,18.3348035 0.11528376,19.7470197 C-0.508490526,21.4558014 1.49163955,23.3298123 3.88253311,23.510576 C3.71609681,23.8678667 3.61768231,24.2604628 3.61768231,24.6770666 C3.61768231,25.809664 4.30513657,26.7784444 5.28928161,27.2289414 L11.758588,30.0251295 C10.2013232,30.7623064 8.90312011,31.1421926 7.87121509,32.4244849 C7.20402264,33.2534559 7.01587726,34.1177322 7.33861894,34.8577335 C8.04778228,36.4817822 10.5848503,36.4521256 12.524195,35.644338 C13.3708492,35.2926961 14.1060634,34.8026571 14.6618159,34.2462439 L18.0918508,32.7634168 L21.5218858,34.2462439 C22.0776383,34.8026571 22.8128525,35.2941083 23.6580594,35.644338 C25.8376513,36.5509808 28.1952576,36.3476216 28.8450827,34.8577335 C29.958035,32.307271 25.8709385,30.7114666 24.4236664,30.0265417 L30.8929728,27.2303536 C31.8756706,26.7784444 32.5631248,25.809664 32.5631248,24.6770666 C32.5631248,24.2576384 32.4603685,23.8664545 32.2910377,23.5091638 C34.8006075,23.3269879 36.664694,21.3866028 36.0655234,19.7484319 Z M18.0904036,1.41221624 C19.6867447,1.41221624 20.9849478,2.67897421 20.9849478,4.23664873 C20.9849478,5.95814033 19.4884684,8.40551107 18.0904036,8.40551107 C16.6923387,8.40551107 15.1958593,5.95814033 15.1958593,4.23664873 C15.1958593,2.67897421 16.4940624,1.41221624 18.0904036,1.41221624 Z M19.5492539,9.38700136 L18.0860618,10.9418514 L16.5895824,9.37146698 C17.0599458,9.64402472 17.560702,9.81772732 18.0904036,9.81772732 C18.6041852,9.81772732 19.0919159,9.64543693 19.5492539,9.38700136 Z M8.7062911,16.8929307 L10.269345,12.8271601 C10.5747194,12.0334946 11.2607264,11.4389516 12.1044861,11.2370046 L15.5938592,10.4023848 L16.8703532,11.7425781 C17.528862,12.4331518 18.6504979,12.4303274 19.3046649,11.735517 L20.6101043,10.3487206 L24.3281464,11.2384169 C25.1719061,11.4403638 25.8579131,12.0349068 26.1632875,12.8285723 L27.7248941,16.8943429 C28.2444648,18.2472461 29.2184789,18.605949 30.5123402,19.2951105 C30.2474894,19.4956452 30.0072423,19.7145387 29.8162023,19.9560277 C29.5527988,20.290723 29.3805734,20.6494259 29.3009735,21.0067166 C27.9897449,20.4714866 27.0663853,20.1466769 26.2703856,18.7965982 L24.2688083,15.3945693 C24.0111938,14.95537 23.3222923,15.1347215 23.3222923,15.6402949 L23.3222923,22.7395059 L26.3977456,23.0996211 L18.0904036,27.0284067 L9.78161429,23.0967966 L13.1074456,22.7084372 L13.1074456,15.6501804 C13.1074456,15.1417825 12.4142023,14.9694922 12.1565879,15.4115159 C9.33585448,20.2653031 9.60215255,19.9955698 6.89864822,21.0985107 C6.78865553,20.4771355 6.38197207,19.8698825 5.76832869,19.3741946 C7.09981904,18.6652621 8.1765895,18.2783148 8.7062911,16.8929307 Z M27.5468796,21.8074432 L24.7710117,21.4826335 L24.7710117,19.0804536 L25.0156007,19.4956452 C25.6002986,20.4926699 26.4918183,21.3018698 27.5468796,21.8074432 Z M8.96390554,21.7693134 C10.3286832,21.0900374 10.9756138,20.245532 11.6616208,19.0804536 L11.6616208,21.4543892 L8.96390554,21.7693134 Z M3.09811161,21.9288938 C2.38894827,21.6831682 1.23547239,20.8838538 1.4786141,20.2229366 C1.71886128,19.5606072 3.12705706,19.6538134 3.83766767,19.8995391 C4.97667083,20.2963718 5.63228511,21.1281672 5.45861245,21.6054963 C5.28204525,22.0856498 4.23422023,22.3257266 3.09811161,21.9288938 Z M5.90437227,25.9508857 C5.38624884,25.7136333 5.06495443,25.2264187 5.06495443,24.6770666 C5.06495443,23.6772175 6.13014672,22.8764909 7.26336079,23.4738584 L16.4318297,27.8121867 L13.4634746,29.2173418 L5.90437227,25.9508857 Z M11.955417,34.3436868 C11.0971847,34.6995653 9.01456007,35.0978103 8.66866203,34.3027325 C8.31986944,33.5062426 10.0638324,32.3157443 10.9148284,31.961278 C11.7600353,31.6096361 13.848449,31.1958568 14.2015834,32.0036445 C14.5532705,32.8029589 12.8107549,33.9878083 11.955417,34.3436868 Z M20.5160317,32.2663167 L19.8763374,31.9895223 L20.5855007,31.6830714 C20.5319516,31.8723084 20.5087953,32.065782 20.5160317,32.2663167 Z M25.2645315,31.961278 C26.9534981,32.6645617 27.7234468,33.8169301 27.5121451,34.3027325 C27.1662471,35.0978103 25.0850698,34.7023897 24.2253901,34.3436868 C23.3671577,33.9878083 21.6304312,32.8015467 21.9777765,32.0022323 C22.3352527,31.1845591 24.41643,31.6082239 25.2645315,31.961278 Z M30.3053803,25.9381757 L15.6647755,32.2663167 C15.6749064,31.9852857 15.6474082,31.7084913 15.534521,31.4514679 C15.3203247,30.9600167 14.8948267,30.6041382 14.3289433,30.3795958 L28.9811263,23.4442018 C29.9710605,22.9132085 31.1158527,23.634851 31.1158527,24.6770666 C31.1158527,25.2264187 30.7945583,25.7136333 30.3053803,25.9381757 Z M33.0826955,21.9288938 C32.3605067,22.1802683 30.9667837,22.2650013 30.7221947,21.6069085 C30.4833948,20.9431669 31.628187,20.1480891 32.3416922,19.9009513 C33.0609864,19.6495768 34.4561568,19.5563705 34.702193,20.2229366 C34.9409929,20.885266 33.7990952,21.6803437 33.0826955,21.9288938 Z" id="Shape"></path>
                                    </g>
                                </g>
                                <g id="Group-3" transform="translate(1263.624204, 286.822595)">
                                    <g id="Group-5">
                                        <path d="M81.2294295,183.706722 C107.128753,143.169219 143.808917,111.50208 143.808917,71.8309445 C143.808917,43.2967779 127.15414,18.6485661 103.025926,7.05826349 C93.6086137,2.53453448 83.0528252,0 71.9044586,0 C32.1927227,0 0,32.1598093 0,71.8309445 C0,101.817621 32.6945985,144.621121 61.7826389,183.706722 C79.7685367,207.874374 64.461455,207.65316 81.2294295,183.706722 Z" id="Oval" stroke="#000000" stroke-width="5" fill-opacity="0.463258605" fill="#FFFFFF"></path>
                                        <g id="garden" transform="translate(24.420382, 30.760029)" fill-rule="nonzero" fill="#000000">
                                            <path d="M96.9152276,74.5542264 L75.8842974,74.5542264 L75.8842974,64.5748181 C80.4768165,63.9566928 84.547139,61.0864954 86.9139683,56.7351481 C90.0585086,56.0158646 92.915186,54.1940523 95.0284264,51.5429348 C97.3224717,48.6648373 98.5859873,44.9865298 98.5859873,41.1854835 C98.5859873,35.4032766 95.6272581,30.0515221 90.9719676,27.2716928 C90.4869332,17.629286 83.0589171,9.94087181 74.0123226,9.94087181 C71.1646951,9.94087181 68.3471053,10.7164186 65.8643607,12.1836953 C65.0918486,12.6401599 64.8353715,13.6367135 65.2915234,14.4095627 C65.7478678,15.1827973 66.7439309,15.4392576 67.5160579,14.9827929 C69.4989417,13.8108984 71.7452344,13.191617 74.0123226,13.191617 C81.5724282,13.191617 87.7344255,19.9457142 87.7486742,28.2476293 C87.7498295,28.859396 88.093917,29.4187531 88.6394123,29.6950597 C92.7083869,31.7557982 95.3372772,36.2659158 95.3372772,41.1852909 C95.3372772,47.393904 91.1356354,52.7693584 85.5636125,53.6890316 C85.041801,53.7753534 84.594699,54.1100427 84.3649864,54.5869318 C82.6224054,58.2031956 79.4738216,60.6477575 75.8842974,61.2841876 L75.8842974,46.9014078 L83.878219,39.5453707 C84.5384743,38.9376503 84.5816056,37.9094969 83.9743017,37.2487889 C83.3668052,36.5880808 82.3395489,36.5447273 81.6792937,37.1526403 L75.8842974,42.4851265 L75.8842974,31.6347937 C75.8842974,30.7370862 75.1570346,30.0093247 74.2599424,30.0093247 C73.3628502,30.0093247 72.6355874,30.7370862 72.6355874,31.6347937 L72.6355874,51.3076695 L66.8405912,45.9751833 C66.1803359,45.3672703 65.1526945,45.4106238 64.5455832,46.0713319 C63.9382793,46.7320399 63.9814106,47.7601933 64.6416658,48.3679137 L72.63578,55.7239508 L72.63578,61.3602971 C68.8055678,60.8664521 65.4276565,58.330366 63.6151797,54.4929027 C63.3985606,54.0341259 62.9801486,53.7029048 62.4843314,53.5977002 C57.0944611,52.4518178 53.1826076,47.2318581 53.1826076,41.1852909 C53.1826076,36.4175569 55.5852512,32.1024339 59.4528182,29.9245444 C59.9703936,29.6330159 60.2877166,29.0821369 60.2803997,28.4880969 C60.2800146,28.4430092 60.2784742,28.3983069 60.2769338,28.3537973 C60.275971,28.3279778 60.2750083,28.3023511 60.2750083,28.2767243 C60.2750083,24.890716 61.2735746,21.691417 63.1626863,19.0250775 C63.6816096,18.2926916 63.5088919,17.278026 62.7772005,16.7591322 C62.0453165,16.2396604 61.0313462,16.4128819 60.512808,17.1448824 C58.3606724,20.1823282 57.1660899,23.7806725 57.0382364,27.5905822 C52.6330688,30.4652113 49.9342827,35.5853615 49.9342827,41.1854835 C49.9342827,48.46965 54.5554918,54.8146824 61.0325015,56.5889022 C63.4703819,61.1834147 67.7823551,64.1566972 72.6361651,64.6326228 L72.6361651,74.5542264 L71.6073684,74.5542264 C71.3680283,70.3003764 68.4622505,66.5997177 64.4158042,65.3501722 C63.146127,62.6470304 60.6799417,60.6870647 57.7799405,60.0515981 C56.8291267,55.726841 52.9386463,52.5019152 48.4050476,52.5019152 C44.9091028,52.5019152 41.7391459,54.3821103 40.0493238,57.3748538 C36.7214756,57.5014462 33.7294352,59.280483 32.0107305,62.0366125 C30.9395728,59.0878006 28.1957298,56.9407403 24.9832193,56.7099067 L24.9832193,52.4364032 C29.3681691,51.8263706 33.2509475,49.0818021 35.5195761,44.9298812 C38.5331821,44.2331415 41.2700932,42.4835851 43.2963009,39.9417185 C45.5025431,37.1742208 46.717536,33.6371494 46.717536,29.9823492 C46.717536,24.4354074 43.8853125,19.2998427 39.4260382,16.6209789 C38.9421591,7.37010286 31.807975,0 23.1212571,0 C19.7891728,0 16.5841717,1.07536063 13.8524595,3.11027975 C13.1330912,3.64612958 12.9838647,4.66464889 13.5193473,5.38470312 C14.0548299,6.10456467 15.0724587,6.25389355 15.792212,5.71804372 C17.9587889,4.10375034 20.493137,3.25074524 23.1212571,3.25074524 C30.3209084,3.25074524 36.1894589,9.68595296 36.20313,17.595952 C36.2042853,18.2077187 36.5483728,18.7670758 37.093868,19.0433824 C40.9664413,21.0046968 43.4684409,25.2986247 43.4684409,29.9823492 C43.4684409,35.8928826 39.4707099,41.0099499 34.1692203,41.8849208 C33.6476013,41.9712425 33.2003068,42.3059319 32.9705942,42.7828209 C31.3252512,46.1971535 28.3640189,48.5147377 24.9828342,49.1428824 L24.9828342,35.485552 L32.6139909,28.4636263 C33.2742461,27.8559059 33.3171849,26.8277524 32.7100735,26.1670444 C32.1029622,25.5061437 31.0753208,25.4629828 30.4150655,26.0708959 L24.9828342,31.0694634 L24.9828342,20.8391826 C24.9828342,19.9414752 24.2555714,19.2137136 23.3584792,19.2137136 C22.461387,19.2137136 21.7341242,19.9414752 21.7341242,20.8391826 L21.7341242,39.516083 L16.3020854,34.5175155 C15.6416376,33.9096024 14.6141888,33.9529559 14.0070774,34.613664 C13.3997735,35.274372 13.4429048,36.3027181 14.1031601,36.9102458 L21.7339316,43.9321716 L21.7339316,49.218992 C18.1224567,48.7245689 14.9422946,46.3196995 13.229559,42.6938016 C13.0129398,42.2350247 12.5945278,41.9038036 12.0987106,41.798599 C6.97051632,40.7078238 3.24832492,35.7387367 3.24832492,29.9823492 C3.24832492,25.4425585 5.53486068,21.3345691 9.2158463,19.2616916 C9.73303662,18.9703557 10.0503596,18.4204401 10.0434278,17.8265928 C10.0430427,17.7826612 10.0416949,17.7387297 10.0401545,17.6949907 C10.0395768,17.6712908 10.0384215,17.6477835 10.0384215,17.6236982 C10.0384215,15.6132498 10.4086959,13.6690841 11.1388469,11.8453449 C11.3560438,11.3035219 11.6061667,10.7713331 11.8828616,10.2630368 C12.3118639,9.47458033 12.0211128,8.48766094 11.2331966,8.05836449 C10.4452805,7.62868268 9.45884488,7.91982582 9.03003518,8.70828232 C8.69287947,9.327949 8.38787967,9.97651806 8.12370054,10.6362627 C7.32346116,12.6345721 6.88001764,14.747913 6.80241984,16.9283074 C2.58344845,19.6965758 0,24.6099777 0,29.9823492 C0,36.9761432 4.43212465,43.0704957 10.6472658,44.7880669 C12.9844423,49.1725555 17.0990514,52.0173189 21.7341242,52.4934372 L21.7341242,57.1426715 C19.9564991,57.764265 18.4351585,58.9931935 17.4564249,60.6439039 C13.5118378,60.8683789 10.3245514,63.783664 9.70684977,67.6284492 C6.79760608,68.9213483 4.63468765,71.485566 3.83829928,74.553841 L1.62435501,74.553841 C0.727262786,74.553841 0,75.2816025 0,76.17931 C0,77.0770174 0.727262786,77.8047789 1.62435501,77.8047789 L5.18268604,77.8047789 L41.8508252,77.8047789 L69.9333354,77.8047789 L96.9152276,77.8047789 C97.8123198,77.8047789 98.5395826,77.0770174 98.5395826,76.17931 C98.5395826,75.2816025 97.8121273,74.5542264 96.9152276,74.5542264 Z M7.24509316,74.5542264 C8.01991589,72.5782681 9.64985486,71.0042453 11.7263182,70.3312056 C12.3796416,70.1194476 12.8292467,69.5196272 12.8494645,68.832907 C12.9312984,66.0561606 15.1704668,63.8809687 17.9472358,63.8809687 C18.05853,63.8809687 18.1802218,63.8861711 18.3298335,63.897154 C19.0257105,63.9474441 19.6767234,63.5497476 19.9468715,62.9058029 C20.7039796,61.1034515 22.4552253,59.9386862 24.4084564,59.9386862 C26.9166177,59.9386862 29.0339016,61.896725 29.2287626,64.3963941 C29.291149,65.1942921 29.9244472,65.8282173 30.7219908,65.8906464 C31.1648567,65.9251365 31.5930887,66.0224412 31.9985998,66.1708066 C32.0003328,66.1713847 32.0018732,66.1723481 32.0036062,66.1729261 C32.0788934,66.2006724 32.1530253,66.2305382 32.2265795,66.2617527 C32.2423686,66.2684966 32.2583503,66.2752405 32.2741394,66.2821771 C32.3428799,66.3120428 32.4108502,66.3434501 32.4776652,66.3763988 C32.5003861,66.387767 32.522722,66.3995207 32.5452504,66.4110816 C32.6378671,66.4584815 32.7285583,66.5089643 32.8175166,66.5619519 C32.8660393,66.591047 32.9149471,66.6191786 32.9623145,66.6500078 C32.9983214,66.6731297 33.0329805,66.6979857 33.0680247,66.7216857 C33.1213611,66.7581027 33.1743125,66.7950977 33.2263011,66.8336342 C33.2557613,66.8556 33.2848364,66.8775658 33.3135264,66.9001096 C33.3762978,66.9490509 33.438299,66.9995337 33.4985673,67.0517507 C33.5153192,67.0660092 33.5320711,67.0796896 33.5486304,67.0941408 C33.7086398,67.2359551 33.8594067,67.3887522 33.999776,67.5509909 C34.0126768,67.5660201 34.0253852,67.5810493 34.0380935,67.5962712 C34.0972064,67.6662149 34.1542014,67.7380855 34.2094633,67.8114975 C34.2200536,67.8255633 34.231029,67.8394364 34.2414267,67.8536949 C34.3675472,68.0255677 34.4824998,68.2066892 34.5857068,68.3957106 C34.5993778,68.4207593 34.6122787,68.4463861 34.6257572,68.4718202 C34.6623418,68.5417639 34.6971934,68.6130564 34.7305046,68.6853123 C34.7437906,68.7138293 34.7570766,68.7423463 34.7697849,68.771056 C34.8107982,68.8646996 34.8496933,68.9596921 34.88493,69.056226 C34.8862779,69.0596943 34.8874332,69.0627772 34.8887811,69.0662455 C35.0792134,69.5926539 35.5270856,69.9839919 36.0739286,70.1019135 C36.2191116,70.1331281 36.3614064,70.1712792 36.5013905,70.2142474 C36.5470249,70.2283132 36.5913115,70.2454619 36.6365609,70.2606838 C36.7297552,70.2918984 36.8225645,70.323691 36.9132558,70.3599153 C36.9656295,70.3809177 37.0166553,70.4046176 37.0680663,70.4271614 C37.14913,70.462615 37.2298086,70.4986466 37.3087542,70.5379538 C37.3618981,70.5643513 37.4135016,70.5928683 37.4654902,70.621 C37.5401998,70.6612706 37.6141391,70.70289 37.6863455,70.7466289 C37.7377565,70.7776508 37.7883972,70.8098287 37.8386529,70.8425848 C37.9087412,70.8882505 37.9778668,70.9358431 38.0456445,70.9847844 C38.0939747,71.0196599 38.1417272,71.0545354 38.1887095,71.0909524 C38.2559096,71.1429767 38.3209916,71.1971204 38.385496,71.2520349 C38.4292049,71.2892226 38.4734915,71.3262177 38.5160451,71.3647541 C38.5820899,71.4248711 38.6452464,71.4874928 38.7082104,71.5505 C38.7453726,71.5876877 38.7838827,71.6241047 38.8198896,71.6626412 C38.8907482,71.73798 38.9577557,71.8165944 39.0241856,71.8955942 C39.048832,71.9250746 39.0750189,71.9528209 39.0990877,71.9826867 C39.1876608,72.0932864 39.2721905,72.206969 39.3519063,72.3243126 C39.3686582,72.3487833 39.3830995,72.3749881 39.3992737,72.3996515 C39.4606973,72.4932951 39.5205805,72.5879022 39.5762275,72.6852068 C39.6012591,72.7293311 39.6237875,72.7751895 39.6476637,72.8200845 C39.690795,72.9006258 39.7331561,72.9813597 39.7722438,73.0640205 C39.7965051,73.1154667 39.8180708,73.168069 39.8405992,73.2200932 C39.8748732,73.2992857 39.9079918,73.3784782 39.9384148,73.4594048 C39.9592102,73.5148974 39.9782727,73.5709679 39.9973352,73.6272312 C40.0244848,73.7073871 40.0499015,73.788121 40.0733926,73.8698184 C40.0899519,73.9276231 40.105356,73.9858132 40.1201823,74.044196 C40.1407852,74.1270494 40.158885,74.2104809 40.1756368,74.2944905 C40.1873824,74.3530659 40.1987429,74.4116414 40.208563,74.4709876 C40.2131842,74.4985411 40.2154948,74.5264801 40.2195383,74.5542264 L7.24509316,74.5542264 L7.24509316,74.5542264 Z M43.4948203,74.554419 L43.4948203,74.5542264 C43.4934725,74.5388118 43.4901991,74.5235899 43.4890438,74.5083679 C43.4703664,74.3143367 43.4462976,74.1214616 43.4145268,73.9308987 C43.4126013,73.9197231 43.4100981,73.9085476 43.4081726,73.897372 C43.375054,73.7029554 43.3355811,73.5104657 43.289369,73.3200954 C43.2874435,73.3118101 43.2859031,73.3035247 43.2837851,73.2956247 C43.2373804,73.1069887 43.1836589,72.9210501 43.1251236,72.7372311 C43.1187694,72.7175775 43.1129929,72.6973458 43.1064462,72.6776922 C43.0486811,72.5008097 42.9843692,72.3266248 42.9152437,72.1543667 C42.905231,72.1295107 42.8956035,72.104462 42.8853984,72.0797986 C42.8160802,71.9112015 42.7411781,71.7454946 42.6614623,71.5822926 C42.6489465,71.5564732 42.6364307,71.5308464 42.6235298,71.5052196 C42.5422736,71.342981 42.4563961,71.18344 42.3655123,71.0269818 C42.3516487,71.0032819 42.3377851,70.9799673 42.3237289,70.9562674 C42.2301494,70.7984605 42.1321413,70.6435438 42.0287417,70.4922881 C42.0162259,70.4737906 42.0031325,70.4558711 41.9904242,70.437759 C41.882596,70.2824569 41.7707242,70.1300451 41.6532685,69.9822577 C41.6459516,69.973009 41.638057,69.9641456 41.6307401,69.9547041 C41.5078929,69.8013289 41.3804246,69.6518074 41.2473723,69.5071029 C41.2458319,69.5055614 41.244484,69.5038273 41.2431362,69.5022858 C41.1114317,69.3593154 40.9741433,69.2211621 40.8330038,69.0870552 C40.8206806,69.0753015 40.8087425,69.0631625 40.7964193,69.0516016 C40.6606713,68.9242385 40.5201095,68.8016925 40.3760818,68.6830001 C40.3568268,68.6672002 40.3377643,68.6510148 40.3183167,68.6350222 C40.1765996,68.5203761 40.0310315,68.4103545 39.881805,68.3045718 C39.8586989,68.2881938 39.8355929,68.2718158 39.8124868,68.2556305 C39.6634528,68.1519673 39.5107604,68.0529286 39.3547946,67.9587069 C39.3303407,67.944063 39.3056942,67.9294191 39.2812403,67.914968 C39.1231565,67.821517 38.9621844,67.7326904 38.7979389,67.6492589 C38.7754105,67.6376979 38.752497,67.6271004 38.729776,67.6159248 C38.5603317,67.532108 38.3881917,67.4525301 38.2123932,67.3796962 C38.1967966,67.373145 38.1810075,67.3675572 38.1654109,67.3611987 C37.9811402,67.2862452 37.7941737,67.2163015 37.6035489,67.154065 C37.6029712,67.1538724 37.602201,67.153487 37.6014308,67.1531016 C37.5931511,67.1363383 37.5837162,67.120731 37.5754365,67.1041603 C37.5097768,66.9725582 37.4410363,66.8432683 37.3686374,66.7160979 C37.3316677,66.6511639 37.2921949,66.5877714 37.2536848,66.5238008 C37.2068951,66.4469205 37.1597202,66.3702329 37.1106199,66.2948941 C37.0634451,66.2222528 37.0149224,66.1509603 36.9652444,66.0800532 C36.9221131,66.0185875 36.8778265,65.9580852 36.8331548,65.8977756 C36.7769301,65.8216661 36.7205128,65.7459419 36.6615924,65.6719518 C36.6269333,65.6285983 36.5905413,65.5869789 36.555112,65.5445887 C36.4182087,65.3798453 36.2751438,65.2208823 36.1255321,65.067507 C36.0997304,65.0411095 36.0750839,65.0137486 36.0490896,64.9877365 C35.9747652,64.9137465 35.8979376,64.8428393 35.8209174,64.7717395 C35.7764383,64.7306982 35.7321517,64.6898495 35.6867098,64.6497715 C35.6131556,64.5850302 35.538446,64.521445 35.4621961,64.4590159 C35.4067416,64.4135429 35.3503243,64.369804 35.2937145,64.3256797 C35.2230485,64.2711506 35.1529602,64.2160434 35.0803687,64.1636338 C34.978317,64.0896437 34.8739547,64.019122 34.7684371,63.949949 C34.7403247,63.9314514 34.7135602,63.9110271 34.6850628,63.892915 C35.8688625,61.8917153 38.0358245,60.6194332 40.4299959,60.6194332 C40.5765267,60.6194332 40.7355734,60.6261771 40.9304343,60.6404356 C41.6253487,60.6922672 42.2771317,60.2928365 42.5472799,59.6490845 C43.5410324,57.2825589 45.840469,55.7534312 48.4050476,55.7534312 C51.6982367,55.7534312 54.4780865,58.3245855 54.7337935,61.606738 C54.7959872,62.4046359 55.429478,63.0385611 56.2270217,63.1007975 C58.7045674,63.294058 60.8522743,64.9308952 61.6987258,67.2710233 C61.8891581,67.7974317 62.3370303,68.1887697 62.8838734,68.3066913 C65.8807275,68.9529482 68.1039142,71.5318098 68.3536521,74.5549971 L43.4948203,74.5549971 L43.4948203,74.554419 Z" id="Shape"></path>
                                        </g>
                                    </g>
                                </g>
                            </g>
                        </g>
                        <g id="Group-2" transform="translate(705.573248, 398.101523)">
                            <path d="M146.621675,331.990175 C193.370768,258.731818 259.579618,201.503758 259.579618,129.811079 C259.579618,58.1183997 201.470741,0 129.789809,0 C58.1088768,0 0,58.1183997 0,129.811079 C0,184.002247 59.0147784,261.355658 111.519606,331.990175 C143.984717,375.665349 116.354953,375.265576 146.621675,331.990175 Z" id="Oval" stroke="#000000" stroke-width="8" fill-opacity="0.463258605" fill="#FFFFFF"></path>
                            <g id="building-with-columns-and-rounded-roof" filter="url(#filter-2)" transform="translate(49.745223, 34.378856)" fill-rule="nonzero" fill="#1D1D1B">
                                <g id="city-hall">
                                    <rect id="Rectangle-path" x="0" y="155.953156" width="161.896824" height="4.9251775"></rect>
                                    <rect id="Rectangle-path" x="0" y="65.9308247" width="161.896824" height="4.9251775"></rect>
                                    <rect id="Rectangle-path" x="30.3558917" y="58.0833773" width="101.185041" height="4.9251775"></rect>
                                    <rect id="Rectangle-path" x="68.3007564" y="40.4711262" width="5.05931529" height="4.9251775"></rect>
                                    <rect id="Rectangle-path" x="78.4181221" y="40.4711262" width="5.05931529" height="4.9251775"></rect>
                                    <rect id="Rectangle-path" x="88.5389661" y="40.4711262" width="5.05931529" height="4.9251775"></rect>
                                    <rect id="Rectangle-path" x="48.0622304" y="148.667139" width="65.7720473" height="4.9251775"></rect>
                                    <path d="M50.6472243,75.6981446 L50.6472243,95.7206156 L65.7173435,95.7206156 L65.7173435,75.6981446 L50.6472243,75.6981446 L50.6472243,75.6981446 Z M60.7658549,90.7957527 L55.5987129,90.7957527 L55.5987129,80.6236366 L60.7658549,80.6236366 L60.7658549,90.7957527 L60.7658549,90.7957527 Z" id="Shape"></path>
                                    <path d="M73.4138269,75.6981446 L73.4138269,95.7206156 L88.4839461,95.7206156 L88.4839461,75.6981446 L73.4138269,75.6981446 L73.4138269,75.6981446 Z M83.5327737,90.7957527 L78.3653155,90.7957527 L78.3653155,80.6236366 L83.5324575,80.6236366 L83.5324575,90.7957527 L83.5327737,90.7957527 Z" id="Shape"></path>
                                    <path d="M96.1807457,95.7209302 L111.250865,95.7209302 L111.250865,75.6984591 L96.1807457,75.6984591 L96.1807457,95.7209302 Z M101.132234,80.6233221 L106.299376,80.6233221 L106.299376,90.7954381 L101.132234,90.7954381 L101.132234,80.6233221 Z" id="Shape"></path>
                                    <path d="M50.6472243,115.85034 L55.7062234,115.85034 L55.7062234,141.11975 L53.1228105,141.11975 L53.1228105,146.044928 L108.775279,146.044928 L108.775279,141.11975 L106.191866,141.11975 L106.191866,115.85034 L111.250865,115.85034 L111.250865,100.860301 L50.6472243,100.860301 L50.6472243,115.85034 Z M78.4734584,141.11975 L70.7766588,141.11975 L70.7766588,123.398987 L78.4731422,123.398987 L78.4731422,141.11975 L78.4734584,141.11975 Z M91.1217466,141.11975 L83.424947,141.11975 L83.424947,123.398987 L91.1217466,123.398987 L91.1217466,141.11975 Z M101.240061,141.11975 L96.0732352,141.11975 L96.0732352,118.47381 L65.824854,118.47381 L65.824854,141.11975 L60.6580282,141.11975 L60.6580282,115.85034 L101.240061,115.85034 L101.240061,141.11975 L101.240061,141.11975 Z M55.5987129,105.785793 L106.299376,105.785793 L106.299376,110.925477 L55.5987129,110.925477 L55.5987129,105.785793 Z" id="Shape"></path>
                                    <polygon id="Shape" points="5.11307051 73.1281449 5.11307051 153.647358 10.0645591 153.647358 10.0645591 138.496281 53.1231267 138.496281 53.1231267 133.571103 10.0645591 133.571103 10.0645591 73.1281449"></polygon>
                                    <polygon id="Shape" points="108.774962 138.496281 151.83353 138.496281 151.83353 153.647358 156.784702 153.647358 156.784702 73.1281449 151.83353 73.1281449 151.83353 133.571103 108.774962 133.571103"></polygon>
                                    <path d="M20.2913326,75.6981446 L20.2913326,128.431104 L40.4207671,128.431104 L40.4207671,75.6981446 L20.2913326,75.6981446 Z M35.4689622,123.506241 L25.2428212,123.506241 L25.2428212,115.850655 L35.4689622,115.850655 L35.4689622,123.506241 Z M35.4689622,110.925163 L25.2428212,110.925163 L25.2428212,80.6233221 L35.4689622,80.6233221 L35.4689622,110.925163 Z" id="Shape"></path>
                                    <path d="M121.477638,75.6981446 L121.477638,128.431104 L141.606757,128.431104 L141.606757,75.6981446 L121.477638,75.6981446 Z M136.655268,123.506241 L126.429127,123.506241 L126.429127,115.850655 L136.655268,115.850655 L136.655268,123.506241 L136.655268,123.506241 Z M136.655268,110.925163 L126.429127,110.925163 L126.429127,80.6233221 L136.655268,80.6233221 L136.655268,110.925163 L136.655268,110.925163 Z" id="Shape"></path>
                                    <path d="M113.83491,50.5359886 L108.72184,50.5359886 L108.72184,32.8686953 C108.72184,18.4668208 97.5828084,6.6104129 83.424947,5.35953922 L83.424947,0.158207056 L78.4734584,0.158207056 L78.4734584,5.35985375 C64.3162294,6.6104129 53.1768819,18.4671353 53.1768819,32.8690098 L53.1768819,50.5363031 L48.0638114,50.5363031 L48.0638114,55.4614806 L113.83491,55.4614806 L113.83491,50.5359886 L113.83491,50.5359886 Z M80.9490446,10.1695999 C92.6961423,10.1695999 102.398644,19.0436632 103.636279,30.4065783 L58.26181,30.4065783 C59.499445,19.0436632 69.2022631,10.1695999 80.9490446,10.1695999 Z M103.769719,50.5359886 L58.1283706,50.5359886 L58.1283706,35.3314413 L103.769719,35.3314413 L103.769719,50.5359886 Z" id="Shape"></path>
                                </g>
                            </g>
                        </g>
                    </g>
                </g>
            </g>
        </g>
    </g>
</svg>