<?xml version="1.0" encoding="iso-8859-1"?>
<!-- Generator: Adobe Illustrator 19.0.0, SVG Export Plug-In . SVG Version: 6.00 Build 0)  -->
<svg version="1.1" id="Capa_1" xmlns="http://www.w3.org/2000/svg" xmlns:xlink="http://www.w3.org/1999/xlink" x="0px" y="0px"
	 viewBox="0 0 512 512" style="enable-background:new 0 0 512 512;" xml:space="preserve">
<g>
	<g>
		<path d="M432,255.956c-11.104,0-21.68,2.28-31.304,6.392l6.16-10.272c0.752-1.248,1.144-2.672,1.144-4.12v-80h17.472
			c3.312,9.288,12.112,16,22.528,16c13.232,0,24-10.768,24-24v-56c0-13.232-10.768-24-24-24c-10.416,0-19.216,6.712-22.528,16H384
			c-13.232,0-24,10.768-24,24v85.704l-76.432,122.296H192v-36.688l35.688-35.688C239.16,253.796,248,243.932,248,231.956
			c0-13.232-10.768-24-24-24h-92.688L117.656,194.3c-1.496-1.504-3.536-2.344-5.656-2.344H48c-17.648,0-32,14.352-32,32
			c0,12.336,7.088,22.936,17.336,28.272C11.776,278.124,0,310.412,0,344.524v23.432c0,39.696,32.304,72,72,72
			c36.992,0,67.528-28.056,71.528-64H328c2.808,0,5.416-1.472,6.856-3.88l18.848-31.408c1.456,1.944,3.672,3.288,6.296,3.288h3.728
			c-2.744,7.712-4.312,15.8-4.312,24c0,39.696,32.304,72,72,72c39.696,0,72-32.304,72-72c0-8.2-1.56-16.296-4.304-24H504
			c4.416,0,8-3.584,8-8C512,291.844,476.112,255.956,432,255.956z M440,103.956c0-4.408,3.592-8,8-8c4.408,0,8,3.592,8,8v56
			c0,4.408-3.592,8-8,8c-4.408,0-8-3.592-8-8V103.956z M384,111.956c4.408,0,8,3.592,8,8s-3.592,8-8,8c-4.408,0-8-3.592-8-8
			S379.592,111.956,384,111.956z M32,223.956c0-8.824,7.176-16,16-16h60.688l13.656,13.656c1.496,1.504,3.536,2.344,5.656,2.344h96
			c4.408,0,8,3.592,8,8s-3.592,8-8,8H48C39.176,239.956,32,232.78,32,223.956z M72,423.956c-28.152,0-51.456-20.904-55.36-48h16.168
			c3.72,18.232,19.88,32,39.192,32s35.472-13.768,39.192-32h16.168C123.456,403.052,100.152,423.956,72,423.956z M49.472,375.956
			H94.52c-3.312,9.288-12.112,16-22.528,16S52.784,385.244,49.472,375.956z M323.472,359.956H16v-15.432
			c0-33.248,12.536-64.576,35.368-88.568h153.32L178.344,282.3c-1.504,1.496-2.344,3.536-2.344,5.656v48c0,4.416,3.584,8,8,8h104
			c2.76,0,5.32-1.424,6.784-3.76l80-128c0.792-1.272,1.216-2.736,1.216-4.24v-65.472c2.512,0.896,5.184,1.472,8,1.472
			c13.232,0,24-10.768,24-24c0-2.816-0.576-5.488-1.472-8H424v40h-24c-4.416,0-8,3.584-8,8v85.784L323.472,359.956z
			 M431.416,423.956c-30.88,0-56-25.12-56-56c0-8.28,1.872-16.496,5.456-24h19.336c-5.08,6.704-8.208,14.96-8.208,24
			c0,22.056,17.944,40,40,40c22.056,0,40-17.944,40-40c0-9.04-3.128-17.296-8.208-24h18.176c3.576,7.504,5.448,15.712,5.448,24
			C487.416,398.836,462.296,423.956,431.416,423.956z M440,367.956v-22.528c9.288,3.312,16,12.112,16,22.528
			c0,13.232-10.768,24-24,24s-24-10.768-24-24c0-10.416,6.712-19.216,16-22.528v22.528H440z M486.792,327.956H376.048h-7.552
			c3.952-31.528,30.928-56,63.504-56s59.552,24.472,63.504,56H486.792z"/>
	</g>
</g>
<g>
	<g>
		<rect x="40" y="295.956" width="56" height="16"/>
	</g>
</g>
<g>
	<g>
		<rect x="32" y="327.956" width="56" height="16"/>
	</g>
</g>
<g>
	<g>
		<rect x="144" y="271.956" width="16" height="16"/>
	</g>
</g>
<g>
	<g>
		<rect x="112" y="271.956" width="16" height="16"/>
	</g>
</g>
<g>
	<g>
		<rect x="80" y="271.956" width="16" height="16"/>
	</g>
</g>
<g>
	<g>
		<path d="M295.08,476.564c-5.136,0.904-10.368,1.632-15.56,2.176l1.664,15.912c5.56-0.584,11.168-1.36,16.664-2.336L295.08,476.564
			z"/>
	</g>
</g>
<g>
	<g>
		<path d="M186.384,468.932l-4.96,15.208c5.328,1.736,10.776,3.304,16.184,4.656l3.872-15.52
			C196.44,472.012,191.36,470.556,186.384,468.932z"/>
	</g>
</g>
<g>
	<g>
		<path d="M216.856,476.548l-2.784,15.76c5.488,0.968,11.096,1.752,16.688,2.336l1.656-15.912
			C227.208,478.188,221.976,477.452,216.856,476.548z"/>
	</g>
</g>
<g>
	<g>
		<path d="M157.304,457.1l-7.056,14.36c5.016,2.472,10.184,4.784,15.368,6.888l6.024-14.824
			C166.808,461.564,161.984,459.404,157.304,457.1z"/>
	</g>
</g>
<g>
	<g>
		<path d="M381.768,441.34c-4.312,2.936-8.784,5.752-13.296,8.376l8.056,13.832c4.832-2.816,9.624-5.84,14.24-8.976L381.768,441.34z
			"/>
	</g>
</g>
<g>
	<g>
		<path d="M130.152,441.3l-9.008,13.224c4.616,3.144,9.408,6.16,14.256,8.984l8.048-13.832
			C138.928,447.044,134.456,444.228,130.152,441.3z"/>
	</g>
</g>
<g>
	<g>
		<path d="M354.624,457.132c-4.704,2.312-9.52,4.472-14.328,6.416l6.008,14.832c5.16-2.088,10.328-4.408,15.368-6.888
			L354.624,457.132z"/>
	</g>
</g>
<g>
	<g>
		<path d="M263.848,479.82c-5.216,0.184-10.496,0.176-15.736,0l-0.552,15.992c2.808,0.096,5.616,0.144,8.44,0.144
			c2.816,0,5.616-0.048,8.4-0.144L263.848,479.82z"/>
	</g>
</g>
<g>
	<g>
		<path d="M325.536,468.956c-4.952,1.616-10.024,3.072-15.096,4.336l3.872,15.52c5.432-1.352,10.88-2.92,16.184-4.656
			L325.536,468.956z"/>
	</g>
</g>
<g>
	<g>
		<path d="M122.968,56.172c-4.648,3.104-9.248,6.408-13.664,9.832l9.784,12.648c4.128-3.192,8.416-6.28,12.76-9.168L122.968,56.172z
			"/>
	</g>
</g>
<g>
	<g>
		<path d="M152.2,39.508c-5,2.4-10.016,5.032-14.912,7.824l7.92,13.896c4.568-2.6,9.248-5.056,13.912-7.288L152.2,39.508z"/>
	</g>
</g>
<g>
	<g>
		<path d="M183.472,27.108c-5.32,1.688-10.656,3.584-15.856,5.648l5.896,14.872c4.848-1.928,9.824-3.696,14.784-5.264
			L183.472,27.108z"/>
	</g>
</g>
<g>
	<g>
		<path d="M96.352,76.756c-4.168,3.712-8.256,7.624-12.168,11.632L95.64,99.556c3.656-3.744,7.472-7.392,11.36-10.856L96.352,76.756
			z"/>
	</g>
</g>
<g>
	<g>
		<path d="M72.872,100.828c-3.6,4.248-7.112,8.688-10.44,13.216l12.896,9.472c3.104-4.224,6.376-8.376,9.736-12.336L72.872,100.828z
			"/>
	</g>
</g>
<g>
	<g>
		<path d="M37.016,157.604c-2.288,5.08-4.424,10.328-6.36,15.592l15.016,5.52c1.808-4.92,3.808-9.808,5.936-14.552L37.016,157.604z"
			/>
	</g>
</g>
<g>
	<g>
		<path d="M216.192,19.244c-5.528,0.92-11.08,2.048-16.496,3.352l3.736,15.56c5.056-1.216,10.232-2.272,15.392-3.128L216.192,19.244
			z"/>
	</g>
</g>
<g>
	<g>
		<path d="M52.944,127.956c-3,4.752-5.848,9.648-8.488,14.536l14.096,7.576c2.456-4.568,5.12-9.128,7.928-13.568L52.944,127.956z"/>
	</g>
</g>
<g>
	<g>
		<path d="M392.544,58.556l-9.104,13.152c4.296,2.984,8.536,6.144,12.592,9.4l10.016-12.48
			C401.696,65.132,397.152,61.748,392.544,58.556z"/>
	</g>
</g>
<g>
	<g>
		<path d="M249.664,16.044c-5.568,0.144-11.216,0.488-16.8,1.016l1.528,15.928c5.208-0.496,10.488-0.816,15.688-0.952
			L249.664,16.044z"/>
	</g>
</g>
<g>
	<g>
		<path d="M363.616,41.372l-7.176,14.296c4.608,2.328,9.248,4.864,13.784,7.552l8.16-13.768
			C373.536,46.58,368.568,43.86,363.616,41.372z"/>
	</g>
</g>
<g>
	<g>
		<path d="M332.544,28.42l-5.104,15.168c4.928,1.656,9.88,3.512,14.712,5.528l6.16-14.768
			C343.136,32.188,337.824,30.188,332.544,28.42z"/>
	</g>
</g>
<g>
	<g>
		<path d="M266.496,16.18l-0.688,15.984c5.2,0.224,10.48,0.64,15.68,1.224l1.8-15.896C277.72,16.86,272.072,16.42,266.496,16.18z"/>
	</g>
</g>
<g>
	<g>
		<path d="M299.944,19.964L297.04,35.7c5.112,0.944,10.272,2.088,15.336,3.408l4.016-15.488
			C310.96,22.212,305.424,20.98,299.944,19.964z"/>
	</g>
</g>
<g>
</g>
<g>
</g>
<g>
</g>
<g>
</g>
<g>
</g>
<g>
</g>
<g>
</g>
<g>
</g>
<g>
</g>
<g>
</g>
<g>
</g>
<g>
</g>
<g>
</g>
<g>
</g>
<g>
</g>
</svg>
