<?xml version="1.0" encoding="iso-8859-1"?>
<!-- Generator: Adobe Illustrator 19.0.0, SVG Export Plug-In . SVG Version: 6.00 Build 0)  -->
<svg version="1.1" id="Layer_1" xmlns="http://www.w3.org/2000/svg" xmlns:xlink="http://www.w3.org/1999/xlink" x="0px" y="0px"
	 viewBox="0 0 512 512" style="enable-background:new 0 0 512 512;" xml:space="preserve">
<g>
	<g>
		<g>
			<path d="M382.077,376.041h31.167c1.835-0.001,2.755-0.786,2.755-2.361v-6.785c0-1.769-0.921-2.654-2.756-2.654H388.86
				c-1.377,0-2.343-0.295-2.9-0.885c-0.56-0.59-0.837-1.573-0.837-2.95v-14.356h23.992c1.838,0,2.756-0.785,2.756-2.361v-6.883
				c0-1.771-0.918-2.656-2.756-2.656h-23.992v-12.094c0-2.427,1.05-3.637,3.146-3.637h23.309c1.831,0,2.752-0.754,2.752-2.262
				v-6.881c0-1.771-0.921-2.656-2.752-2.656h-29.5c-7.019,0-10.525,3.604-10.525,10.817v48.082c0,3.804,0.87,6.509,2.608,8.115
				C375.896,375.24,378.536,376.041,382.077,376.041z"/>
			<path d="M183.798,374.466c5.769,1.902,12.652,2.852,20.648,2.852c9.438,0,16.144-1.851,20.111-5.556
				c3.963-3.702,5.948-9.062,5.948-16.075c0-5.901-1.165-10.21-3.489-12.932c-2.331-2.72-6.706-4.965-13.135-6.736l-8.648-2.162
				c-3.412-0.852-5.69-1.982-6.835-3.393c-1.146-1.409-1.718-3.162-1.718-5.261c0-2.687,0.75-4.768,2.26-6.243
				c1.506-1.477,4.227-2.214,8.158-2.214c4.723,0,9.41,0.427,14.063,1.279c1.442,0.327,2.588,0.492,3.442,0.492
				c1.311,0,2.131-0.754,2.457-2.262c0.792-2.885,1.181-4.817,1.181-5.802c0-1.573-0.785-2.589-2.361-3.045
				c-4.327-1.379-10.291-2.067-17.896-2.067c-8.979,0-15.438,1.836-19.369,5.508c-3.934,3.668-5.898,8.879-5.898,15.633
				c0,5.637,1.292,10.031,3.879,13.178c2.592,3.146,6.606,5.375,12.048,6.686l8.555,2.064c3.867,0.986,6.378,2.116,7.523,3.394
				c1.146,1.279,1.718,3.165,1.718,5.654c0,2.623-0.804,4.704-2.411,6.243c-1.606,1.539-4.7,2.313-9.292,2.313
				c-5.502,0-10.614-0.723-15.338-2.163c-1.771-0.526-2.981-0.788-3.637-0.788c-1.576,0-2.621,0.854-3.146,2.556
				c-0.857,3.213-1.281,5.148-1.281,5.804C181.337,372.926,182.159,373.943,183.798,374.466z"/>
			<path d="M241.856,375.846c1.444,0.327,4.691,0.49,9.733,0.49c0.921,0,1.606-0.244,2.067-0.736
				c0.461-0.492,0.885-1.362,1.281-2.608l4.817-14.846h23.893l5.017,14.846c0.391,1.246,0.833,2.116,1.329,2.608
				c0.49,0.491,1.194,0.736,2.112,0.736c5.705,0,8.946-0.162,9.736-0.49c0.852-0.394,1.277-1.084,1.277-2.067
				c0-0.917-0.232-1.998-0.686-3.244l-18.881-56.151c-1.05-3.211-2.131-5.373-3.246-6.49c-1.117-1.115-3.181-1.67-6.194-1.67h-3.152
				c-3.27,0-5.569,0.606-6.879,1.819c-1.311,1.213-2.525,3.425-3.642,6.639l-19.271,56.049c-0.459,1.245-0.689,2.295-0.689,3.146
				C240.479,374.926,240.94,375.583,241.856,375.846z M271.945,318.025c1.246,4.654,4.133,14.192,8.654,28.615h-17.504
				C267.753,332.217,270.699,322.679,271.945,318.025z"/>
			<path d="M325.979,376.041h30.778c1.836,0,2.756-0.785,2.756-2.359v-6.785c-0.001-1.77-0.922-2.655-2.757-2.655h-23.893
				c-2.427,0-3.637-1.213-3.637-3.637v-51.232c0-1.901-0.821-2.851-2.461-2.851h-8.457c-1.771,0-2.656,0.983-2.656,2.948v56.544
				C315.651,372.697,319.095,376.041,325.979,376.041z"/>
			<path d="M288.251,447.997h-6.396c-5.891,0-10.667,4.777-10.667,10.667c0,5.891,4.775,10.667,10.667,10.667h6.396
				c5.891,0,10.667-4.775,10.667-10.667C298.918,452.773,294.143,447.997,288.251,447.997z"/>
			<path d="M243.451,447.997h-62.117c-5.891,0-10.667,4.777-10.667,10.667c0,5.891,4.776,10.667,10.667,10.667h62.117
				c5.891,0,10.667-4.775,10.667-10.667C254.117,452.773,249.343,447.997,243.451,447.997z"/>
			<path d="M409.518,394.663c-5.89,0-10.667,4.777-10.667,10.667c0,5.891,4.777,10.667,10.667,10.667h6.402
				c5.891,0,10.667-4.775,10.667-10.667c0-5.89-4.776-10.667-10.667-10.667H409.518z"/>
			<path d="M88.096,266.662c-5.891,0-10.667,4.776-10.667,10.667s4.774,10.667,10.667,10.667h6.402
				c5.889,0,10.667-4.775,10.667-10.667c0-5.89-4.778-10.667-10.667-10.667H88.096z"/>
			<path d="M501.333,490.667h-32.002V202.665c0-29.406-23.923-53.331-53.327-53.331h-32.007V85.333
				C383.997,38.281,345.716,0,298.664,0c-15.537,0-30.105,4.195-42.665,11.481C243.437,4.195,228.868,0,213.33,0
				c-47.052,0-85.332,38.281-85.332,85.333v64.001H96c-29.41,0-53.338,23.925-53.338,53.331v288.001H10.667
				C4.776,490.667,0,495.442,0,501.333S4.776,512,10.667,512h42.663h85.336h319.999h42.669c5.89,0,10.667-4.775,10.667-10.667
				S507.223,490.667,501.333,490.667z M298.664,21.333c35.29,0,64,28.711,64,63.999v64.001h-63.996V85.333
				c0-23.021-9.181-43.928-24.052-59.293C282.045,23.015,290.159,21.333,298.664,21.333z M255.999,37.681
				c13.084,11.727,21.336,28.741,21.336,47.651v64.001h-42.669V85.333C234.666,66.423,242.915,49.408,255.999,37.681z
				 M149.332,85.333c0-35.289,28.708-63.999,63.998-63.999c8.505,0,16.621,1.682,24.052,4.707
				c-14.87,15.364-24.05,36.271-24.05,59.292v64.001H181.33h-31.998V85.333z M127.998,490.667H63.996v-74.67h64.002V490.667z
				 M127.998,202.665v63.997h-0.771c-5.891,0-10.667,4.776-10.667,10.667s4.775,10.667,10.667,10.667h0.771v106.667H63.996V202.665
				c0-17.644,14.356-31.998,32.004-31.998h42.691C131.981,179.587,127.998,190.67,127.998,202.665z M447.998,490.667H149.332v-74.67
				H371.12c5.89,0,10.667-4.775,10.667-10.667c0-5.89-4.777-10.667-10.667-10.667H149.332V287.996h298.666V490.667z
				 M447.998,266.662H149.332v-63.997c0-17.644,14.354-31.998,31.998-31.998h32.002v53.33c0,5.891,4.776,10.667,10.667,10.667
				c5.889,0,10.667-4.776,10.667-10.667v-53.33h127.998v53.33c0,5.891,4.775,10.667,10.667,10.667
				c5.89,0,10.667-4.775,10.667-10.667v-53.33h32.007c17.642,0,31.994,14.354,31.994,31.998V266.662z"/>
		</g>
	</g>
</g>
<g>
</g>
<g>
</g>
<g>
</g>
<g>
</g>
<g>
</g>
<g>
</g>
<g>
</g>
<g>
</g>
<g>
</g>
<g>
</g>
<g>
</g>
<g>
</g>
<g>
</g>
<g>
</g>
<g>
</g>
</svg>
