<?xml version="1.0" encoding="UTF-8" standalone="no"?>
<svg width="197px" height="190px" viewBox="0 0 197 190" version="1.1" xmlns="http://www.w3.org/2000/svg" xmlns:xlink="http://www.w3.org/1999/xlink">
    <!-- Generator: Sketch 47.1 (45422) - http://www.bohemiancoding.com/sketch -->
    <title>Group 2</title>
    <desc>Created with Sketch.</desc>
    <defs></defs>
    <g id="Page-2" stroke="none" stroke-width="1" fill="none" fill-rule="evenodd">
        <g id="Desktop-HD-Copy" transform="translate(-1070.000000, -715.000000)" fill-rule="nonzero" fill="#000000">
            <g id="map" transform="translate(1070.000000, 715.000000)">
                <g id="Group-2">
                    <path d="M164.274235,96.7555287 C164.704012,96.9245015 165.144534,97 165.577893,97 C167.010485,97 168.360703,96.133565 168.915832,94.7134744 C170.599127,90.4028703 171.949345,85.5350155 172.937833,80.2465262 C173.303144,78.2979462 172.020975,76.4212695 170.076231,76.0509674 C168.120744,75.7274025 166.261956,76.9749251 165.896645,78.9271002 C164.994112,83.7733841 163.765665,88.2026287 162.247117,92.0961935 C161.52724,93.9405137 162.433354,96.0293052 164.274235,96.7555287 Z" id="Shape"></path>
                    <path d="M46.4905505,114.564051 C42.1463442,117.35124 38.2304399,120.84167 34.8472138,124.946976 C33.5659069,126.500732 33.7602624,128.824004 35.279115,130.134756 C35.9557602,130.716495 36.7799717,131 37.5969848,131 C38.6227502,131 39.637718,130.554492 40.350355,129.69293 C43.2512914,126.173044 46.602125,123.179669 50.3128762,120.804851 C51.9972909,119.722376 52.5047748,117.450651 51.450216,115.727527 C50.3956573,114.004404 48.171366,113.481575 46.4905505,114.564051 Z" id="Shape"></path>
                    <path d="M31.8269482,136.331285 C29.9493776,135.500636 27.7277103,136.284335 26.8637286,138.097317 C23.0263034,146.136555 22.0762976,152.626452 22.0351556,152.900928 C21.754642,154.876428 23.183391,156.693021 25.2292697,156.963885 C25.401318,156.989165 25.5771065,157 25.7454147,157 C27.5818433,157 29.1826405,155.692631 29.4481934,153.890483 C29.4556737,153.832699 30.3121751,148.12289 33.6558964,141.12738 C34.5198781,139.310787 33.7007786,137.169157 31.8269482,136.331285 Z M40,29 C30.0748,29 22,37.2818462 22,47.4615385 C22,56.3784615 28.1956,63.8332308 36.4,65.5501538 L36.4,73.3076923 C36.4,75.3495385 38.0128,77 40,77 C41.9872,77 43.6,75.3495385 43.6,73.3076923 L43.6,65.5501538 C51.8044,63.8332308 58,56.3784615 58,47.4615385 C58,37.2818462 49.9252,29 40,29 Z M40,58.5384615 C34.0456,58.5384615 29.2,53.5686154 29.2,47.4615385 C29.2,41.3544615 34.0456,36.3846154 40,36.3846154 C45.9544,36.3846154 50.8,41.3544615 50.8,47.4615385 C50.8,53.5686154 45.9544,58.5384615 40,58.5384615 Z" id="Shape"></path>
                    <path d="M147.564672,120 C148.108883,120 148.663766,119.868356 149.179522,119.590024 C153.775089,117.103842 157.826444,113.575796 161.216208,109.111199 C162.446909,107.490103 162.20148,105.120519 160.668439,103.82289 C159.138955,102.532784 156.898083,102.784787 155.667381,104.402122 C152.907196,108.039245 149.634811,110.894029 145.93915,112.891249 C144.189135,113.839083 143.495532,116.103351 144.391881,117.953883 C145.025016,119.251512 146.273502,120 147.564672,120 Z" id="Shape"></path>
                    <path d="M105.797292,110.922277 C104.216966,110.241727 103.292422,109.770859 103.231502,109.737751 C102.998574,109.616356 102.751313,109.517032 102.496884,109.450817 C98.6159476,108.428152 94.7923475,107.618849 91.1264216,107.044979 C89.1734112,106.728615 87.3422401,108.115467 87.0412256,110.12401 C86.7437947,112.132553 88.0876092,114.012343 90.044203,114.317671 C93.3625289,114.840039 96.8277784,115.568412 100.353948,116.488075 C100.834137,116.723508 101.751515,117.168625 103.03441,117.716744 C103.485931,117.911712 103.95537,118 104.414059,118 C105.81521,118 107.148274,117.15391 107.721634,115.741309 C108.484921,113.85784 107.62488,111.702151 105.797292,110.922277 Z" id="Shape"></path>
                    <path d="M30.0751604,100.925711 C30.7901008,101.640682 31.7286893,102 32.6672777,102 C33.6058662,102 34.5444546,101.640682 35.2593951,100.925711 L40,96.184909 L44.7406049,100.925711 C45.4555454,101.640682 46.3941338,102 47.3327223,102 C48.2713107,102 49.2098992,101.640682 49.9248396,100.925711 C51.3583868,99.4921045 51.3583868,97.1748677 49.9248396,95.7412608 L45.1842346,91.0004583 L49.9248396,86.2596558 C51.3583868,84.8260489 51.3583868,82.5088121 49.9248396,81.0752052 C48.4912924,79.6415983 46.1741522,79.6415983 44.7406049,81.0752052 L40,85.8160077 L35.2593951,81.0752052 C33.8258478,79.6415983 31.5087076,79.6415983 30.0751604,81.0752052 C28.6416132,82.5088121 28.6416132,84.8260489 30.0751604,86.2596558 L34.8157654,91.0004583 L30.0751604,95.7412608 C28.6416132,97.1712012 28.6416132,99.4921045 30.0751604,100.925711 Z" id="Shape"></path>
                    <path d="M163.07516,62.9257114 C163.790101,63.6406816 164.728689,64 165.667278,64 C166.605866,64 167.544455,63.6406816 168.259395,62.9257114 L173,58.184909 L177.740605,62.9257114 C178.455545,63.6406816 179.394134,64 180.332722,64 C181.271311,64 182.209899,63.6406816 182.92484,62.9257114 C184.358387,61.4921045 184.358387,59.1748677 182.92484,57.7412608 L178.184235,53.0004583 L182.92484,48.2596558 C184.358387,46.8260489 184.358387,44.5088121 182.92484,43.0752052 C181.491292,41.6415983 179.174152,41.6415983 177.740605,43.0752052 L173,47.8160077 L168.259395,43.0752052 C166.825848,41.6415983 164.508708,41.6415983 163.07516,43.0752052 C161.641613,44.5088121 161.641613,46.8260489 163.07516,48.2596558 L167.815765,53.0004583 L163.07516,57.7412608 C161.641613,59.1712012 161.641613,61.4921045 163.07516,62.9257114 Z" id="Shape"></path>
                    <path d="M98.0751604,151.925711 C98.7901008,152.640682 99.7286893,153 100.667278,153 C101.605866,153 102.544455,152.640682 103.259395,151.925711 L108,147.184909 L112.740605,151.925711 C113.455545,152.640682 114.394134,153 115.332722,153 C116.271311,153 117.209899,152.640682 117.92484,151.925711 C119.358387,150.492104 119.358387,148.174868 117.92484,146.741261 L113.184235,142.000458 L117.92484,137.259656 C119.358387,135.826049 119.358387,133.508812 117.92484,132.075205 C116.491292,130.641598 114.174152,130.641598 112.740605,132.075205 L108,136.816008 L103.259395,132.075205 C101.825848,130.641598 99.5087076,130.641598 98.0751604,132.075205 C96.6416132,133.508812 96.6416132,135.826049 98.0751604,137.259656 L102.815765,142.000458 L98.0751604,146.741261 C96.6416132,148.171201 96.6416132,150.492104 98.0751604,151.925711 Z M195.234296,0.52325765 C194.139852,-0.141739691 192.775444,-0.170970344 191.648167,0.424604198 L131.333333,32.4065917 L71.0221481,0.424604198 C70.9747222,0.399027377 70.92,0.391719714 70.8725741,0.369796725 C70.697463,0.285758599 70.5187037,0.223643463 70.3362963,0.16883599 C70.2341481,0.139605338 70.1356481,0.106720854 70.0335,0.0847978645 C69.8328519,0.0446057175 69.6285556,0.0299903913 69.4206111,0.0226827282 C69.3294074,0.0190288967 69.2382037,0.00806740206 69.1433519,0.0117212336 C68.9463519,0.0226827282 68.753,0.0592210437 68.5596481,0.103067022 C68.4502037,0.124990011 68.3407593,0.139605338 68.234963,0.172489822 C68.2094259,0.179797485 68.1838889,0.179797485 68.162,0.187105148 L2.49533333,22.1100944 C1.00324074,22.6070155 0,24.0027791 0,25.5775805 L0,182.692337 C0,183.865217 0.561814815,184.968674 1.51762963,185.659248 C2.14511111,186.108669 2.89298148,186.346168 3.64814815,186.346168 C4.03485185,186.346168 4.4252037,186.284053 4.80096296,186.156169 L69.1761852,164.664332 L129.943389,189.725963 C129.994463,189.747886 130.052833,189.740578 130.103907,189.758847 C130.505204,189.901347 130.913796,190 131.333333,190 C131.661667,190 131.986352,189.945193 132.303741,189.857501 C132.405889,189.82827 132.500741,189.78077 132.602889,189.744232 C132.748815,189.689424 132.902037,189.649232 133.040667,189.576156 L195.059185,156.691672 C196.25213,156.059559 197,154.813602 197,153.461685 L197,3.65459128 C197,2.37209641 196.328741,1.18460116 195.234296,0.52325765 Z M7.2962963,28.2119931 L65.6666667,8.72610946 L65.6666667,107.35033 C64.097963,107.635329 62.5511481,107.956867 61.0554074,108.35148 C59.1072963,108.870324 57.9471852,110.86897 58.4652222,112.820116 C58.8993519,114.457033 60.3732037,115.538567 61.9893333,115.538567 C62.2957778,115.538567 62.6131667,115.498375 62.9269074,115.417991 C63.802463,115.184145 64.7582778,115.067223 65.6666667,114.877223 L65.6666667,158.138589 L7.2962963,177.620819 L7.2962963,28.2119931 Z M72.962963,113.854151 C74.1340185,113.762805 75.2685926,113.612998 76.4688333,113.587421 C78.4826111,113.543575 80.0805,111.873774 80.0403704,109.856859 C79.9965926,107.865521 78.3731667,106.279758 76.3922222,106.279758 C76.3666852,106.279758 76.3375,106.279758 76.311963,106.279758 C75.181037,106.305335 74.0683519,106.36745 72.962963,106.44418 L72.962963,9.72360548 L127.685185,38.7386818 L127.685185,116.177987 C125.080407,116.064719 122.431852,115.757797 119.655611,115.220684 C117.671019,114.829724 115.763037,116.130488 115.379981,118.110864 C114.996926,120.091241 116.292019,122.009503 118.269315,122.393155 C121.501574,123.021614 124.638981,123.328536 127.688833,123.449112 L127.688833,180.890998 L72.962963,158.321281 L72.962963,113.854151 Z M189.703704,151.258424 L134.981481,180.2735 L134.981481,123.054498 C136.338593,122.437001 137.243333,121.048545 137.122944,119.473744 C137.017148,118.107211 136.141593,117.011061 134.981481,116.473948 L134.981481,38.7386818 L189.703704,9.72360548 L189.703704,151.258424 Z" id="Shape"></path>
                    <path d="M144.581395,145.326052 C144.581395,146.985052 145.925395,148.326052 147.581395,148.326052 L177.581395,148.326052 C179.237395,148.326052 180.581395,146.985052 180.581395,145.326052 C180.581395,143.667052 179.237395,142.326052 177.581395,142.326052 L147.581395,142.326052 C145.925395,142.326052 144.581395,143.667052 144.581395,145.326052 Z" id="Shape" transform="translate(162.581395, 145.326052) rotate(-25.000000) translate(-162.581395, -145.326052) "></path>
                    <path d="M143.581395,134.326052 C143.581395,135.985052 144.925395,137.326052 146.581395,137.326052 L176.581395,137.326052 C178.237395,137.326052 179.581395,135.985052 179.581395,134.326052 C179.581395,132.667052 178.237395,131.326052 176.581395,131.326052 L146.581395,131.326052 C144.925395,131.326052 143.581395,132.667052 143.581395,134.326052 Z" id="Shape" transform="translate(161.581395, 134.326052) rotate(-25.000000) translate(-161.581395, -134.326052) "></path>
                    <path d="M145.581395,156.326052 C145.581395,157.985052 146.925395,159.326052 148.581395,159.326052 L178.581395,159.326052 C180.237395,159.326052 181.581395,157.985052 181.581395,156.326052 C181.581395,154.667052 180.237395,153.326052 178.581395,153.326052 L148.581395,153.326052 C146.925395,153.326052 145.581395,154.667052 145.581395,156.326052 Z" id="Shape" transform="translate(163.581395, 156.326052) rotate(-25.000000) translate(-163.581395, -156.326052) "></path>
                </g>
            </g>
        </g>
    </g>
</svg>