<?xml version="1.0" encoding="iso-8859-1"?>
<!-- Generator: Adobe Illustrator 19.0.0, SVG Export Plug-In . SVG Version: 6.00 Build 0)  -->
<svg version="1.1" id="Capa_1" xmlns="http://www.w3.org/2000/svg" xmlns:xlink="http://www.w3.org/1999/xlink" x="0px" y="0px"
	 viewBox="0 0 480.002 480.002" style="enable-background:new 0 0 480.002 480.002;" xml:space="preserve">
<g>
	<g>
		<path d="M315.632,40.209c-0.008,0-0.008,0-0.008,0c-2.984-0.336-5.944-0.272-8.872,0.224
			C299.776,25.545,286.536,16.001,272,16.001s-27.776,9.544-34.76,24.44c-0.656-0.112-1.32-0.12-1.976-0.184
			c-5.096-8.864-13.744-14.872-23.632-16.04c-2.984-0.344-5.944-0.272-8.872,0.224C195.776,9.545,182.536,0.001,168,0.001
			s-27.776,9.544-34.76,24.44c-2.928-0.496-5.888-0.568-8.88-0.224C108.192,26.113,96,40.473,96,57.601
			c0,12.352,10.048,22.4,22.4,22.4h82.64c2.776,9.224,11.24,16,21.352,16h99.2c12.352,0,22.4-10.048,22.4-22.4
			C343.992,56.465,331.8,42.105,315.632,40.209z M207.584,51.953c-0.04,0.056-0.072,0.112-0.12,0.168
			c-1.312,1.656-2.448,3.448-3.44,5.344c-0.08,0.16-0.152,0.336-0.232,0.496c-0.92,1.824-1.664,3.736-2.248,5.736
			c-0.032,0.104-0.088,0.2-0.12,0.304H118.4c-3.536,0-6.4-2.864-6.4-6.4c0-8.872,6.248-16.56,14.224-17.496
			c0.592-0.072,1.176-0.104,1.752-0.104c2.264,0,4.512,0.512,6.712,1.528c2.12,0.968,4.544,0.992,6.664,0.032
			c2.128-0.96,3.728-2.8,4.384-5.032c3.6-12.28,12.552-20.528,22.264-20.528c9.712,0,18.664,8.248,22.264,20.528
			c0.656,2.232,2.256,4.072,4.384,5.032c2.112,0.96,4.544,0.936,6.664-0.032c2.768-1.288,5.648-1.768,8.456-1.432
			c2.888,0.344,5.584,1.568,7.84,3.48c-0.04,0.016-0.064,0.048-0.104,0.072C213.664,45.697,210.32,48.545,207.584,51.953z
			 M321.6,80.001h-99.2c-3.528,0-6.4-2.864-6.4-6.4c0-0.32,0.064-0.624,0.08-0.944c0.008-0.056,0.04-0.104,0.04-0.168
			c0.48-7.76,5.632-14.256,12.28-15.976c0.56-0.144,1.12-0.312,1.704-0.384c0.232-0.008,0.6-0.024,0.728-0.032
			c0.04,0,0.064-0.032,0.104-0.032c0.352-0.024,0.696-0.064,1.04-0.064c2.264,0,4.512,0.512,6.712,1.528
			c2.12,0.968,4.544,0.992,6.664,0.032c2.128-0.96,3.728-2.8,4.384-5.032c3.6-12.28,12.552-20.528,22.264-20.528
			c9.712,0,18.664,8.248,22.264,20.528c0.656,2.232,2.256,4.072,4.384,5.032c2.12,0.96,4.544,0.936,6.664-0.032
			c2.76-1.272,5.592-1.768,8.464-1.432C321.752,57.049,328,64.729,328,73.601C328,77.129,325.136,80.001,321.6,80.001z"/>
	</g>
</g>
<g>
	<g>
		<path d="M400,40.001c-22.056,0-40,17.944-40,40c0,22.056,17.944,40,40,40c22.056,0,40-17.944,40-40
			C440,57.945,422.056,40.001,400,40.001z M400,104.001c-13.232,0-24-10.768-24-24s10.768-24,24-24s24,10.768,24,24
			S413.232,104.001,400,104.001z"/>
	</g>
</g>
<g>
	<g>
		<rect x="392" y="0.001" width="16" height="24"/>
	</g>
</g>
<g>
	<g>
		<rect x="436.705" y="15.984" transform="matrix(0.7071 -0.7071 0.7071 0.7071 114.2619 323.8206)" width="22.624" height="16"/>
	</g>
</g>
<g>
	<g>
		<rect x="456" y="64.001" width="24" height="16"/>
	</g>
</g>
<g>
	<g>
		<rect x="447.997" y="108.696" transform="matrix(0.7071 -0.7071 0.7071 0.7071 48.7002 357.5878)" width="16" height="22.624"/>
	</g>
</g>
<g>
	<g>
		<rect x="392" y="136.001" width="16" height="24"/>
	</g>
</g>
<g>
	<g>
		<rect x="332.682" y="112.003" transform="matrix(0.7071 -0.7071 0.7071 0.7071 15.8984 278.3875)" width="22.624" height="16"/>
	</g>
</g>
<g>
	<g>
		<rect x="344.001" y="12.688" transform="matrix(0.7071 -0.7071 0.7071 0.7071 86.1279 255.9317)" width="16" height="22.624"/>
	</g>
</g>
<g>
	<g>
		<path d="M424,382.537v-54.984c33.344-3.472,56-28.608,56-63.552c0-37.768-27.368-80-64-80c-36.632,0-64,42.232-64,80
			c0,34.944,22.656,60.08,56,63.552v39.536l-160-154.48v-15.656l43.576-21.792c2.712-1.36,4.424-4.128,4.424-7.16
			s-1.712-5.8-4.424-7.16l-48-24c-2.48-1.232-5.424-1.112-7.784,0.352c-2.36,1.464-3.792,4.032-3.792,6.808v48v20.6l-88,84.968
			v-34.152c25.792-2.808,40-19.296,40-47.424c0-32.616-18.696-80-48-80c-8.512,0-16.6,4.128-23.872,11.92
			C100.512,127.097,83.464,112.001,64,112.001c-36.048,0-64,51.608-64,96c0,37.328,20.768,60.616,56,63.64v48.36h16v-48.36
			c14.784-1.272,26.984-6.144,36.208-14.088c5.536,3.176,12.192,5.104,19.792,5.92v48.528h1.056L2.448,434.241
			c-2.352,2.264-3.088,5.736-1.856,8.76c1.216,3.024,4.152,5,7.408,5h8v24c0,4.424,3.576,8,8,8h432c4.424,0,8-3.576,8-8v-24h8
			c3.256,0,6.192-1.976,7.416-5s0.496-6.496-1.856-8.76L424,382.537z M248,156.945l22.112,11.056L248,179.057V156.945z
			 M111.4,217.177c-0.096,0.792-0.224,1.552-0.344,2.312c-0.384,2.376-0.88,4.648-1.504,6.8c-0.128,0.44-0.224,0.936-0.36,1.36
			c-0.768,2.36-1.728,4.544-2.808,6.624c-0.344,0.664-0.712,1.304-1.088,1.936c-1.12,1.888-2.328,3.688-3.728,5.312
			c-8.096,9.4-19.576,12.928-29.568,14.04v-11.56l28.8-21.6l-9.6-12.8l-19.2,14.4v-56H56v28.688l-10.344-10.344l-11.312,11.312
			L56,219.313v36.232c-17.656-1.952-40-11.528-40-47.544c0-35.264,22.6-80,48-80c17.456,0,33.592,21.128,41.976,45.8
			c0,0.008,0.008,0.016,0.008,0.024c0.672,1.984,1.28,3.992,1.848,6.016c0.28,1.016,0.536,2.024,0.792,3.04
			c0.6,2.36,1.12,4.728,1.568,7.104c0.376,2.048,0.728,4.096,0.976,6.12c0.136,1.032,0.24,2.064,0.344,3.096
			c0.28,2.976,0.488,5.936,0.488,8.8C112,211.233,111.76,214.257,111.4,217.177z M368,264.001c0-32.896,23.328-64,48-64
			s48,31.104,48,64c0,29.44-19.016,44.416-40,47.408v-11.408l28.8-21.6l-9.6-12.8l-19.2,14.4v-56h-16v28.688l-10.344-10.344
			l-11.312,11.312L408,275.313v36.096C387.016,308.417,368,293.441,368,264.001z M118.784,245.041
			c0.032-0.056,0.056-0.12,0.088-0.168c1.272-2.128,2.4-4.392,3.408-6.752c0.28-0.64,0.56-1.28,0.816-1.936
			c0.944-2.424,1.792-4.928,2.472-7.576c0.152-0.584,0.24-1.216,0.376-1.816c0.504-2.216,0.912-4.504,1.224-6.864
			c0.12-0.888,0.232-1.776,0.32-2.68c0.304-2.992,0.512-6.048,0.512-9.248c0-3.328-0.208-6.704-0.512-10.096
			c-0.064-0.656-0.152-1.32-0.224-1.976c-0.328-3.088-0.784-6.168-1.352-9.256c-0.056-0.304-0.104-0.6-0.168-0.904
			c-1.416-7.4-3.48-14.712-6.136-21.72c5.368-7.704,11.224-12.048,16.392-12.048c14.952,0,32,34.096,32,64c0,22.136-9.864,32-32,32
			C129.136,248.001,123.376,247.009,118.784,245.041z M448,464.001H32v-16h416V464.001z M232,343.625v88.376H114.856l17.088-17.68
			C175.76,407.865,212.232,380.737,232,343.625z M136,397.489v-2.168l94.12-94.12C221.512,349.025,184.352,387.681,136,397.489z
			 M348.52,414.401l21.264,17.6H248v-88.376C267.84,380.873,304.496,408.073,348.52,414.401z M249.88,301.193l94.12,94.12v2.168
			C295.648,387.681,258.488,349.025,249.88,301.193z M394.88,432.001L360,403.129v-11.128c0-2.128-0.84-4.16-2.344-5.656l-112-112
			c-0.088-0.088-0.2-0.128-0.288-0.216c-0.304-0.28-0.648-0.504-1-0.736c-0.32-0.208-0.632-0.424-0.976-0.584
			c-0.12-0.056-0.208-0.152-0.336-0.2c-0.248-0.104-0.504-0.112-0.76-0.192c-0.376-0.112-0.752-0.224-1.144-0.288
			c-0.392-0.056-0.784-0.064-1.176-0.064c-0.376,0-0.744,0-1.12,0.056c-0.416,0.056-0.8,0.176-1.2,0.296
			c-0.24,0.072-0.488,0.08-0.72,0.176c-0.12,0.048-0.208,0.136-0.32,0.192c-0.352,0.168-0.68,0.384-1.008,0.608
			c-0.344,0.224-0.672,0.448-0.976,0.72c-0.088,0.08-0.2,0.128-0.288,0.216l-112,112c-1.504,1.512-2.344,3.544-2.344,5.672v11.656
			l-27.392,28.344h-64.8L240,227.121l212.192,204.88H394.88z"/>
	</g>
</g>
<g>
</g>
<g>
</g>
<g>
</g>
<g>
</g>
<g>
</g>
<g>
</g>
<g>
</g>
<g>
</g>
<g>
</g>
<g>
</g>
<g>
</g>
<g>
</g>
<g>
</g>
<g>
</g>
<g>
</g>
</svg>
