<?xml version="1.0" encoding="iso-8859-1"?>
<!-- Generator: Adobe Illustrator 19.0.0, SVG Export Plug-In . SVG Version: 6.00 Build 0)  -->
<svg version="1.1" id="Capa_1" xmlns="http://www.w3.org/2000/svg" xmlns:xlink="http://www.w3.org/1999/xlink" x="0px" y="0px"
	 viewBox="0 0 480 480" style="enable-background:new 0 0 480 480;" xml:space="preserve">
<g>
	<g>
		<path d="M472,0h-32c-4.424,0-8,3.576-8,8v16h-24h-40h-24V8c0-4.424-3.576-8-8-8h-32c-4.424,0-8,3.576-8,8v48c0,4.424,3.576,8,8,8
			h32c4.424,0,8-3.576,8-8V40h14.144l-27.296,129.656c-0.776,3.672-4.064,6.344-7.832,6.344h-40.824
			C295.528,164.264,304,147.12,304,128c0-35.288-28.712-64-64-64c-35.288,0-64,28.712-64,64c0,19.12,8.472,36.264,21.808,48h-40.824
			c-3.768,0-7.056-2.672-7.832-6.352L121.856,40H136v16c0,4.424,3.576,8,8,8h32c4.424,0,8-3.576,8-8V8c0-4.424-3.576-8-8-8h-32
			c-4.424,0-8,3.576-8,8v16h-24H72H48V8c0-4.424-3.576-8-8-8H8C3.576,0,0,3.576,0,8v48c0,4.424,3.576,8,8,8h32c4.424,0,8-3.576,8-8
			V40h17.224l26.432,158.568C94.88,217.944,111.48,232,131.112,232H176v95.128l-31.816,143.144c-0.52,2.368,0.056,4.84,1.568,6.744
			c1.528,1.88,3.816,2.984,6.248,2.984h56c3.752,0,6.992-2.6,7.816-6.264L240,364.872l24.184,108.856
			C265.008,477.4,268.248,480,272,480h56c2.432,0,4.72-1.104,6.24-2.992c1.512-1.896,2.096-4.376,1.568-6.744L304,327.128V232
			h44.888c19.632,0,36.224-14.056,39.456-33.432L414.776,40H432v16c0,4.424,3.576,8,8,8h32c4.424,0,8-3.576,8-8V8
			C480,3.576,476.424,0,472,0z M328,48h-16V16h16V48z M152,16h16v32h-16V16z M32,48H16V16h16V48z M192,128c0-26.472,21.528-48,48-48
			s48,21.528,48,48s-21.528,48-48,48S192,154.472,192,128z M372.56,195.944C370.624,207.56,360.672,216,348.888,216H296
			c-4.424,0-8,3.576-8,8v104c0,0.584,0.064,1.168,0.184,1.736L318.024,464h-39.608l-30.6-137.736C246.992,322.6,243.752,320,240,320
			s-6.992,2.6-7.816,6.264L201.584,464h-39.608l29.832-134.264c0.128-0.568,0.192-1.152,0.192-1.736V224c0-4.424-3.576-8-8-8
			h-52.888c-11.784,0-21.736-8.44-23.672-20.056L81.448,40h24.064l27.992,132.936c2.32,11.048,12.192,19.064,23.48,19.064h166.032
			c11.288,0,21.168-8.016,23.488-19.056L374.496,40h24.064L372.56,195.944z M464,48h-16V16h16V48z"/>
	</g>
</g>
<g>
	<g>
		<rect x="456" y="160" width="16" height="24"/>
	</g>
</g>
<g>
	<g>
		<rect x="456" y="200" width="16" height="152"/>
	</g>
</g>
<g>
	<g>
		<rect x="408" y="208" width="16" height="24"/>
	</g>
</g>
<g>
	<g>
		<rect x="408" y="248" width="16" height="152"/>
	</g>
</g>
<g>
	<g>
		<rect x="8" y="168" width="16" height="24"/>
	</g>
</g>
<g>
	<g>
		<rect x="8" y="208" width="16" height="152"/>
	</g>
</g>
<g>
	<g>
		<rect x="56" y="216" width="16" height="24"/>
	</g>
</g>
<g>
	<g>
		<rect x="56" y="256" width="16" height="152"/>
	</g>
</g>
<g>
</g>
<g>
</g>
<g>
</g>
<g>
</g>
<g>
</g>
<g>
</g>
<g>
</g>
<g>
</g>
<g>
</g>
<g>
</g>
<g>
</g>
<g>
</g>
<g>
</g>
<g>
</g>
<g>
</g>
</svg>
