<?xml version="1.0" encoding="iso-8859-1"?>
<!-- Generator: Adobe Illustrator 19.0.0, SVG Export Plug-In . SVG Version: 6.00 Build 0)  -->
<svg version="1.1" id="Capa_1" xmlns="http://www.w3.org/2000/svg" xmlns:xlink="http://www.w3.org/1999/xlink" x="0px" y="0px"
	 viewBox="0 0 480 480" style="enable-background:new 0 0 480 480;" xml:space="preserve">
<g>
	<g>
		<path d="M479.04,468.208l-56-104c-1.392-2.592-4.096-4.208-7.04-4.208h-53.76l28-35c1.144-1.424,1.76-3.184,1.76-5v-24
			c0-0.328-0.12-0.624-0.16-0.944l69-46c12.136-8.088,17.912-23.032,14.376-37.176c-2.92-11.712-13.392-19.88-25.456-19.88
			c-8.792,0-16.952,4.368-21.832,11.68l-9.776,14.664l-47.936,34.24l-51.472-80.88c-0.432-0.68-0.96-1.28-1.56-1.784
			c-0.072-0.064-0.176-0.096-0.256-0.16c-0.632-0.496-1.328-0.88-2.08-1.168c-0.12-0.048-0.208-0.144-0.328-0.184l-32.512-10.832
			c0,0-0.008,0-0.008-0.008l-11.32-3.768l-2.432-9.8H288c26.472,0,48-21.528,48-48c0-52.936-43.064-96-96-96
			c-52.936,0-96,43.064-96,96c0,26.472,21.528,48,48,48h19.752l-2.448,9.8l-11.32,3.768c0,0-0.008,0-0.008,0.008l-32.512,10.832
			c-0.104,0.04-0.184,0.12-0.288,0.16c-0.808,0.304-1.56,0.704-2.232,1.248c-0.04,0.032-0.096,0.048-0.128,0.08
			c-0.6,0.512-1.136,1.104-1.568,1.8l-51.12,80.328l-40.12-33.432l-9.936-14.912C55.192,196.368,47.032,192,38.24,192h-2.968
			c-10,0-19,5.56-23.456,14.48l-0.472,0.944C3.56,223,8.616,242.032,23.104,251.68l65.056,43.376C88.12,295.376,88,295.672,88,296
			v24c0,1.816,0.616,3.576,1.752,5l28.008,35H64c-2.944,0-5.648,1.616-7.04,4.208l-56,104c-1.336,2.48-1.272,5.48,0.176,7.896
			C2.576,478.52,5.184,480,8,480h464c2.816,0,5.424-1.48,6.864-3.896C480.312,473.688,480.376,470.688,479.04,468.208z M376,317.192
			l-29.04,36.304l-16.016,7.208l-2.416,1.088l-41.144,18.512l-25.12-11.16l-8.376-3.72L323.312,296H338h13.016L376,302.248V317.192z
			 M280.336,290.296l1.712,5.704h-84.096l1.712-5.704c0.224-0.744,0.336-1.52,0.336-2.296v-8h80v8
			C280,288.776,280.112,289.552,280.336,290.296z M200,312h80v4.688l-40,40l-40-40V312z M315.248,196l46,72.296
			c1.184,1.856,3.072,3.136,5.224,3.552c2.168,0.432,4.392-0.072,6.176-1.336l56-40c0.792-0.568,1.472-1.264,2.008-2.072
			l10.584-15.88c1.904-2.856,5.096-4.56,8.52-4.56c4.704,0,8.792,3.184,9.928,7.752c1.904,7.608-1.2,15.64-7.728,19.992
			l-75.28,50.184l-22.744-5.688c-0.632-0.16-1.28-0.24-1.936-0.24h-9.408l-33.84-58.016L315.248,196z M324.072,280H320
			c-2.12,0-4.16,0.84-5.656,2.344L299.2,297.488l-3.2-10.656v-13.84l7.192-28.776L324.072,280z M192,128.008V128
			c-17.648,0-32-14.352-32-32c0-44.112,35.888-80,80-80s80,35.888,80,80c0,17.648-14.352,32-32,32h-11.024
			c0.272-0.272,0.504-0.584,0.768-0.856c1.008-1.056,1.984-2.136,2.92-3.272c0.376-0.456,0.744-0.92,1.104-1.392
			c0.928-1.192,1.816-2.416,2.664-3.68c0.304-0.448,0.6-0.896,0.888-1.36c0.856-1.352,1.664-2.752,2.432-4.184
			c0.224-0.416,0.456-0.832,0.672-1.256c0.776-1.52,1.48-3.088,2.144-4.68c0.16-0.384,0.328-0.76,0.48-1.144
			c0.656-1.656,1.232-3.352,1.76-5.08c0.112-0.376,0.248-0.736,0.36-1.112c0.504-1.736,0.92-3.512,1.288-5.312
			c0.08-0.392,0.184-0.768,0.264-1.168c0.336-1.784,0.584-3.6,0.784-5.44c0.048-0.424,0.128-0.832,0.168-1.256
			C295.88,84.568,296,82.296,296,80c0-9.352-1.776-18.44-5.272-27.016c-1.224-3.016-4.16-4.984-7.408-4.984h-86.64
			c-3.248,0-6.176,1.968-7.408,4.984C185.776,61.56,184,70.648,184,80c0,2.304,0.12,4.568,0.328,6.808
			c0.04,0.408,0.12,0.808,0.16,1.216c0.208,1.848,0.448,3.68,0.792,5.48c0.072,0.392,0.184,0.776,0.264,1.168
			c0.368,1.8,0.792,3.576,1.288,5.312c0.112,0.376,0.24,0.736,0.36,1.112c0.528,1.728,1.104,3.424,1.76,5.08
			c0.152,0.384,0.32,0.76,0.48,1.144c0.664,1.6,1.376,3.168,2.144,4.688c0.216,0.424,0.44,0.832,0.664,1.248
			c0.768,1.432,1.576,2.832,2.44,4.192c0.288,0.456,0.592,0.912,0.888,1.36c0.848,1.264,1.736,2.488,2.664,3.68
			c0.368,0.472,0.728,0.936,1.104,1.392c0.936,1.136,1.912,2.216,2.92,3.272c0.264,0.28,0.496,0.584,0.768,0.856H192z
			 M207.632,108.048c-0.088-0.112-0.168-0.232-0.248-0.352c-1.112-1.872-2.104-3.848-2.976-5.896
			c-0.088-0.208-0.168-0.424-0.256-0.632c-0.832-2.008-1.552-4.08-2.144-6.224c-0.024-0.08-0.048-0.152-0.072-0.232
			c-0.576-2.128-0.992-4.32-1.32-6.544c-0.064-0.448-0.12-0.904-0.176-1.36C200.184,84.568,200,82.304,200,80
			c0-5.48,0.784-10.84,2.328-16h75.344C279.216,69.16,280,74.52,280,80c0,2.304-0.184,4.568-0.448,6.8
			c-0.056,0.456-0.112,0.912-0.176,1.36c-0.32,2.224-0.744,4.424-1.32,6.544c-0.024,0.08-0.048,0.152-0.072,0.232
			c-0.592,2.144-1.312,4.216-2.144,6.224c-0.088,0.208-0.168,0.424-0.256,0.632c-0.88,2.048-1.872,4.024-2.976,5.896
			c-0.072,0.12-0.152,0.24-0.224,0.36c-2.32,3.84-5.112,7.288-8.304,10.176c-0.056,0.048-0.112,0.104-0.168,0.152
			c-3.152,2.824-6.696,5.088-10.528,6.736c-2.088,0.896-4.2,1.616-6.328,2.08c-0.08,0.016-0.16,0.032-0.248,0.048
			c-4.512,0.96-9.096,0.96-13.608,0c-0.08-0.016-0.16-0.024-0.24-0.048c-2.128-0.472-4.248-1.184-6.328-2.08
			c-3.84-1.648-7.384-3.912-10.528-6.736c-0.056-0.048-0.112-0.104-0.168-0.152C212.744,115.328,209.952,111.888,207.632,108.048z
			 M218.528,167.592c2.592-0.864,4.568-3,5.232-5.648l4.824-19.288C232.272,143.528,236.088,144,240,144s7.728-0.472,11.416-1.344
			l4.824,19.288c0.664,2.656,2.64,4.784,5.232,5.648l8.128,2.712C265.736,178.52,257.464,184,248,184h-16
			c-9.464,0-17.736-5.48-21.6-13.696L218.528,167.592z M195.288,175.344C201.336,190.008,215.528,200,232,200h16
			c16.472,0,30.664-9.992,36.728-24.656l17.72,5.904l-10,40.008v0.008L281.752,264h-83.504l-10.68-42.736v-0.008l-10-40.008
			L195.288,175.344z M184,272.992v13.84l-3.2,10.664l-15.144-15.152C164.16,280.84,162.12,280,160,280h-4.072l20.88-35.792
			L184,272.992z M31.976,238.368c-7.792-5.192-10.504-15.416-6.328-23.768l0.472-0.944c1.736-3.488,5.248-5.656,9.152-5.656h2.968
			c3.432,0,6.616,1.704,8.52,4.56l10.584,15.88c0.424,0.64,0.944,1.216,1.536,1.704l48,40c1.768,1.48,4.056,2.104,6.352,1.76
			c2.272-0.352,4.28-1.672,5.512-3.608l46-72.296l6.496,25.984L137.408,280H128c-0.656,0-1.304,0.08-1.944,0.24l-22.744,5.688
			L31.976,238.368z M104,317.192v-14.944L128.984,296H142h14.688l22.272,22.272l7.384,7.384l48,48
			c0.08,0.08,0.184,0.112,0.264,0.184c0.632,0.584,1.328,1.112,2.136,1.472l47.384,21.064c0.008,0,0.016,0.008,0.016,0.016
			l15.424,6.848l-14.128,18.84l-42.16-18.976l-46.848-21.08l-6.832-3.072l-40.544-18.248l-16.016-7.208L104,317.192z M220.504,410.4
			l-25.944,11.68l-14.136-18.84l12.152-5.4L220.504,410.4z M21.392,464l47.384-88h75.28l28.936,13.024l-8.248,3.664
			c-1.408,0.632-2.456,1.72-3.288,2.976l-28.336,16.192c-4.368,2.496-7.256,6.784-7.92,11.768s0.992,9.88,4.544,13.432l4.36,4.36
			c6.152,6.152,14.328,9.384,22.624,9.384c4.856,0,9.76-1.112,14.32-3.384l17.048-8.528c0.024,0.008,0.04,0.016,0.064,0.032
			c0.28,0.152,0.56,0.256,0.848,0.376c0.784,0.32,1.592,0.504,2.432,0.568c0.2,0.024,0.368,0.136,0.56,0.136
			c0.088,0,0.184-0.056,0.272-0.056c1.016-0.032,2.032-0.208,3.008-0.648l44.72-20.12l44.72,20.128
			c0.968,0.44,1.992,0.608,3.008,0.648c0.088-0.008,0.176,0.048,0.272,0.048c0.192,0,0.36-0.112,0.552-0.128
			c0.848-0.064,1.656-0.248,2.44-0.568c0.288-0.12,0.568-0.224,0.84-0.376c0.024-0.008,0.048-0.016,0.064-0.032l17.048,8.52
			c4.56,2.28,9.456,3.384,14.32,3.384c8.296,0,16.472-3.232,22.624-9.384l4.36-4.36c3.552-3.552,5.208-8.448,4.544-13.432
			s-3.552-9.272-7.92-11.768l-28.336-16.192c-0.264-0.4-0.496-0.784-0.824-1.128c-0.712-0.744-1.504-1.416-2.464-1.848L307,389.024
			L335.944,376h75.28l47.384,88H21.392z M177.672,426.224l-13.776,6.888c-6.168,3.08-13.6,1.872-18.472-3l-4.36-4.36l25.376-14.504
			L177.672,426.224z M302.328,426.216l11.232-14.968l25.376,14.496l-4.36,4.36c-4.872,4.88-12.304,6.088-18.472,3L302.328,426.216z"
			/>
	</g>
</g>
<g>
</g>
<g>
</g>
<g>
</g>
<g>
</g>
<g>
</g>
<g>
</g>
<g>
</g>
<g>
</g>
<g>
</g>
<g>
</g>
<g>
</g>
<g>
</g>
<g>
</g>
<g>
</g>
<g>
</g>
</svg>
