<?xml version="1.0" encoding="iso-8859-1"?>
<!-- Generator: Adobe Illustrator 19.0.0, SVG Export Plug-In . SVG Version: 6.00 Build 0)  -->
<svg version="1.1" id="Layer_1" xmlns="http://www.w3.org/2000/svg" xmlns:xlink="http://www.w3.org/1999/xlink" x="0px" y="0px"
	 viewBox="0 0 511.996 511.996" style="enable-background:new 0 0 511.996 511.996;" xml:space="preserve">
<g>
	<rect y="495.834" style="fill:#1D1D1B;" width="511.996" height="15.659"/>
	<rect y="209.619" style="fill:#1D1D1B;" width="511.996" height="15.659"/>
	<rect x="96" y="184.669" style="fill:#1D1D1B;" width="319.996" height="15.659"/>
	<rect x="216" y="128.673" style="fill:#1D1D1B;" width="16" height="15.659"/>
	<rect x="247.996" y="128.673" style="fill:#1D1D1B;" width="16" height="15.659"/>
	<rect x="280.003" y="128.673" style="fill:#1D1D1B;" width="16" height="15.659"/>
	<rect x="151.996" y="472.669" style="fill:#1D1D1B;" width="208.003" height="15.659"/>
	<path style="fill:#1D1D1B;" d="M160.171,240.673v63.659h47.659v-63.659L160.171,240.673L160.171,240.673z M192.171,288.674H175.83
		v-32.341h16.341V288.674z"/>
	<path style="fill:#1D1D1B;" d="M232.17,240.673v63.659h47.659v-63.659L232.17,240.673L232.17,240.673z M264.171,288.674h-16.342
		v-32.341h16.341v32.341H264.171z"/>
	<path style="fill:#1D1D1B;" d="M304.17,304.333h47.659v-63.659H304.17V304.333z M319.829,256.332h16.341v32.341h-16.341V256.332z"
		/>
	<path style="fill:#1D1D1B;" d="M160.171,368.332h15.999v80.341h-8.17v15.659H344v-15.659h-8.17v-80.341h15.999v-47.659H160.171
		V368.332z M248.171,448.673h-24.341v-56.341h24.34v56.341H248.171z M288.171,448.673h-24.341v-56.341h24.341V448.673z
		 M320.17,448.673H303.83v-72h-95.66v72H191.83v-80.341H320.17L320.17,448.673L320.17,448.673z M175.83,336.333h160.34v16.341
		H175.83V336.333z"/>
	<polygon style="fill:#1D1D1B;" points="16.17,232.502 16.17,488.503 31.829,488.503 31.829,440.332 168.001,440.332 
		168.001,424.673 31.829,424.673 31.829,232.502 	"/>
	<polygon style="fill:#1D1D1B;" points="343.999,440.332 480.171,440.332 480.171,488.503 495.829,488.503 495.829,232.502 
		480.171,232.502 480.171,424.673 343.999,424.673 	"/>
	<path style="fill:#1D1D1B;" d="M64.171,240.673v167.658h63.659V240.673H64.171z M112.17,392.673H79.83v-24.34h32.34V392.673z
		 M112.17,352.673H79.83v-96.341h32.34V352.673z"/>
	<path style="fill:#1D1D1B;" d="M384.171,240.673v167.658h63.658V240.673H384.171z M432.17,392.673h-32.34v-24.34h32.34V392.673z
		 M432.17,352.673h-32.34v-96.341h32.34V352.673z"/>
	<path style="fill:#1D1D1B;" d="M360.001,160.673h-16.17v-56.171c0-45.789-35.227-83.485-80.001-87.462V0.503h-15.659v16.538
		c-44.772,3.976-80,41.673-80,87.462v56.171h-16.17v15.659h208V160.673z M256,32.333c37.15,0,67.834,28.214,71.748,64.341H184.252
		C188.166,60.547,218.851,32.333,256,32.333z M328.17,160.673H183.83v-48.341h144.34V160.673z"/>
</g>
<g>
</g>
<g>
</g>
<g>
</g>
<g>
</g>
<g>
</g>
<g>
</g>
<g>
</g>
<g>
</g>
<g>
</g>
<g>
</g>
<g>
</g>
<g>
</g>
<g>
</g>
<g>
</g>
<g>
</g>
</svg>
