<?xml version="1.0" encoding="iso-8859-1"?>
<!-- Generator: Adobe Illustrator 16.0.0, SVG Export Plug-In . SVG Version: 6.00 Build 0)  -->
<!DOCTYPE svg PUBLIC "-//W3C//DTD SVG 1.1//EN" "http://www.w3.org/Graphics/SVG/1.1/DTD/svg11.dtd">
<svg version="1.1" id="Capa_1" xmlns="http://www.w3.org/2000/svg" xmlns:xlink="http://www.w3.org/1999/xlink" x="0px" y="0px"
	 width="325.536px" height="325.536px" viewBox="0 0 325.536 325.536" style="enable-background:new 0 0 325.536 325.536;"
	 xml:space="preserve">
<g>
	<g>
		<path d="M254.489,192.648c-0.174-15.678-11.023-19.927-24.209-19.82l-65.9,0.012c-2.908-6.404-5.828-18.135-14.24-24.815
			c-14.982-11.895-27.469-6.413-36.889-0.785c-21.281,12.704-45.342,39.316-59.986,44.25c-18.006,6.066-39.805,4.485-39.805,4.485
			v91.683c37.328,0,60.121,13.123,79.125,20.917c43.068,17.662,73.184,17.358,88.932,16.773
			c32.658-1.215,35.402-27.871,36.287-33.175c8.475-3.372,14.045-8.527,16.6-15.342c0.998-2.656,1.504-5.561,1.504-8.605
			c0-5.12-1.402-9.727-2.654-12.816c7.424-4.092,12.027-9.552,13.707-16.24c0.467-1.838,0.678-3.779,0.699-5.774
			c0.152-13.563-6.672-16.868-6.672-16.868S254.661,208.328,254.489,192.648z"/>
		<path d="M244.112,91.775c0.545-1.209,0.588-2.585,0.117-3.825c-0.469-1.24-1.412-2.243-2.621-2.788L216.44,73.827
			c-2.521-1.136-5.479-0.012-6.613,2.505l-12.695,28.211l34.283,15.444L244.112,91.775z"/>
		<path d="M189.958,119.986l-15.854,35.651c-0.697,1.547-0.563,3.343,0.358,4.768l39.029,0.021l10.747-24.997L189.958,119.986z"/>
		<path d="M309.672,75.537l-3.186-1.929c-9.111-5.521-16.492-10.418-23.221-15.414l0,0c0.764-8.356,2.035-17.121,4-27.583
			l0.686-3.658c0.314-1.67-0.242-3.385-1.479-4.553c-1.234-1.168-2.979-1.63-4.629-1.223l-3.613,0.887
			c-10.359,2.542-19.041,4.296-27.32,5.519c-5.354-6.435-10.65-13.531-16.674-22.333l-2.104-3.073
			c-0.959-1.402-2.535-2.228-4.266-2.174c-1.697,0.047-3.256,0.954-4.137,2.407l-1.93,3.185
			c-5.525,9.119-10.425,16.497-15.416,23.22c-8.337-0.763-17.101-2.034-27.58-4l-3.658-0.686c-1.678-0.312-3.387,0.244-4.555,1.478
			c-1.169,1.235-1.63,2.978-1.224,4.629l0.887,3.615c2.423,9.875,4.185,18.523,5.386,26.438c0.407,2.688,2.901,4.553,5.582,4.209
			l4.76-0.613c1.334-0.172,2.543-0.874,3.354-1.948s1.152-2.429,0.951-3.759c-0.812-5.375-1.836-10.9-3.127-16.893l0,0
			c7.914,1.252,15.154,2.108,22.131,2.616l1.285,0.094c1.678,0.121,3.297-0.603,4.322-1.931l0.789-1.021
			c4.223-5.47,8.412-11.437,12.809-18.242l0,0c4.711,6.484,9.227,12.21,13.801,17.504l0.842,0.975
			c1.098,1.271,2.758,1.903,4.426,1.691l1.275-0.165c6.857-0.882,14.043-2.139,21.961-3.841c-1.262,8.006-2.119,15.248-2.621,22.138
			l-0.094,1.285c-0.123,1.673,0.602,3.296,1.93,4.322l1.023,0.789c5.479,4.228,11.445,8.417,18.242,12.807h-0.002
			c-4.957,3.604-9.404,7.04-13.6,10.504c-1.037,0.857-1.688,2.096-1.799,3.436c-0.111,1.341,0.318,2.67,1.197,3.688l3.141,3.631
			c0.984,1.143,2.381,1.731,3.785,1.731c1.121,0,2.25-0.375,3.18-1.144c6.18-5.1,13.26-10.369,21.645-16.107l3.072-2.103
			c1.402-0.96,2.221-2.566,2.174-4.265C312.032,77.976,311.125,76.417,309.672,75.537z"/>
	</g>
</g>
<g>
</g>
<g>
</g>
<g>
</g>
<g>
</g>
<g>
</g>
<g>
</g>
<g>
</g>
<g>
</g>
<g>
</g>
<g>
</g>
<g>
</g>
<g>
</g>
<g>
</g>
<g>
</g>
<g>
</g>
</svg>
