<?xml version="1.0" encoding="UTF-8" standalone="no"?>
<svg width="63px" height="86px" viewBox="0 0 63 86" version="1.1" xmlns="http://www.w3.org/2000/svg" xmlns:xlink="http://www.w3.org/1999/xlink">
    <!-- Generator: Sketch 47.1 (45422) - http://www.bohemiancoding.com/sketch -->
    <title>Group 4</title>
    <desc>Created with Sketch.</desc>
    <defs></defs>
    <g id="Page-2" stroke="none" stroke-width="1" fill="none" fill-rule="evenodd">
        <g id="Desktop-HD" transform="translate(-822.000000, -87.000000)">
            <g id="Group-4" transform="translate(825.000000, 90.000000)">
                <path d="M32.1960388,72.8454366 C42.4614764,56.7710542 57,44.2140471 57,28.4832065 C57,12.7523659 44.2401154,0 28.5,0 C12.7598846,0 0,12.7523659 0,28.4832065 C0,40.3738575 12.9588078,57.3467784 24.4881227,72.8454366 C31.6170004,82.4286632 25.5498964,82.3409449 32.1960388,72.8454366 Z" id="Oval" stroke="#000000" stroke-width="5" fill-opacity="0.463258605" fill="#FFFFFF"></path>
                <g id="tree-silhouette" transform="translate(15.000000, 14.000000)" fill-rule="nonzero" fill="#000000">
                    <path d="M27.1334428,9.47339914 C27.1334428,7.04539592 25.2953765,5.04836165 22.9379601,4.80307757 C22.2763298,3.01450494 20.5639894,1.73721646 18.5490195,1.73721646 C17.66699,1.73721646 16.8449562,1.98613397 16.1408582,2.41086642 C15.3400854,0.97338135 13.8093553,0 12.0499488,0 C9.71736383,0 7.78824893,1.71129433 7.4302761,3.94846079 C7.23990185,3.92514172 7.04747184,3.90903529 6.85087621,3.90903529 C4.26375563,3.90903529 2.16601426,6.01138499 2.16601426,8.60527899 C2.16601426,8.7323408 2.17531928,8.85679956 2.18516529,8.98125831 C0.873265452,9.81358641 0,11.2769936 0,12.9483744 C0,14.4258272 0.681863323,15.7419447 1.74593582,16.6027979 C1.7412833,16.6873431 1.73300616,16.7712918 1.73300616,16.8569216 C1.73300616,19.4503275 3.83026064,21.5531653 6.41786811,21.5531653 C7.19332264,21.5531653 7.92273895,21.3612981 8.5668412,21.0273474 C9.45920359,21.6698691 10.7370211,22.473672 11.3556968,22.3134212 C11.3556968,22.3134212 11.5858879,25.8874753 11.5362251,26.795021 C11.4415519,28.5218794 10.9247445,30.4442384 10.5610913,32 L16.1937129,32 C16.1937129,32 15.3634021,28.5317494 15.3271557,27.3737677 C15.2909635,26.2157319 15.6882663,24.0833386 15.6882663,24.0833386 L17.6422126,22.057291 C18.3943505,22.5727509 19.3027803,22.8657577 20.2826207,22.8657577 C22.7046854,22.8657577 24.6969337,21.018562 24.9416234,18.6553641 C26.7258071,17.9921264 28,16.2709622 28,14.2510969 C28,13.0583536 27.5530344,11.9734746 26.8225361,11.1448341 C27.0201596,10.6251443 27.1334428,10.0630462 27.1334428,9.47339914 Z M9.64903685,20.2520154 C10.0245918,19.8926306 10.3396642,19.4726162 10.5801882,19.0063975 L11.4999787,20.9380841 C11.4994919,20.9381384 10.9992388,21.1595611 9.64903685,20.2520154 Z M13.0882161,21.4447587 C12.6122534,21.5313647 11.8016346,20.062209 11.2263462,18.8678931 C11.8642271,19.1940889 12.5843384,19.3818345 13.3499469,19.3818345 C13.5465425,19.3818345 13.7395135,19.3657823 13.9298877,19.3419209 C13.7819271,20.2976774 13.5212242,21.3654197 13.0882161,21.4447587 Z M15.1104353,22.3849511 C14.0095214,22.691407 14.6686091,20.4054874 14.9841683,19.0821031 C15.2123577,18.9970699 15.4332438,18.8970148 15.643256,18.778196 C15.7700099,19.7427378 16.1879784,20.6129187 16.8072493,21.3010482 C16.2707499,21.7787637 15.6530479,22.2340279 15.1104353,22.3849511 Z" id="Shape"></path>
                </g>
            </g>
        </g>
    </g>
</svg>