<?xml version="1.0" encoding="UTF-8" standalone="no"?>
<svg width="167px" height="231px" viewBox="0 0 167 231" version="1.1" xmlns="http://www.w3.org/2000/svg" xmlns:xlink="http://www.w3.org/1999/xlink">
    <!-- Generator: Sketch 47.1 (45422) - http://www.bohemiancoding.com/sketch -->
    <title>Group 3</title>
    <desc>Created with Sketch.</desc>
    <defs></defs>
    <g id="Page-2" stroke="none" stroke-width="1" fill="none" fill-rule="evenodd">
        <g id="Desktop-HD" transform="translate(-567.000000, -269.000000)">
            <g id="Group-3" transform="translate(571.000000, 273.000000)">
                <path d="M89.8100031,203.056655 C118.445171,158.249314 159,123.246656 159,79.3969382 C159,35.5472201 123.406638,0 79.5,0 C35.5933624,0 0,35.5472201 0,79.3969382 C0,112.542128 36.1482532,159.854145 68.308974,203.056655 C88.1947905,229.769899 71.2707637,229.525384 89.8100031,203.056655 Z" id="Oval" stroke="#000000" stroke-width="7" fill-opacity="0.463258605" fill="#FFFFFF"></path>
                <g id="meditation" transform="translate(40.000000, 30.000000)" fill-rule="nonzero" fill="#000000">
                    <path d="M39.9356475,86.8421053 C22.196331,86.8421053 7.81318681,89.5654737 7.81318681,92.9271316 C7.81318681,96.2796711 22.196331,99 39.9356475,99 C57.6718009,99 72.0549451,96.2796711 72.0549451,92.9271316 C72.0549451,89.5685132 57.6749641,86.8421053 39.9356475,86.8421053 Z M39.9356475,95.9605263 C25.7169906,95.9605263 16.4550935,94.3040132 12.570664,92.9240921 C16.4550935,91.5441711 25.7138274,89.8815789 39.9356475,89.8815789 C54.1574677,89.8815789 63.4162016,91.5411316 67.2974679,92.9240921 C63.4130383,94.3040132 54.1543045,95.9605263 39.9356475,95.9605263 Z" id="Shape"></path>
                    <path d="M78.753642,44.0735564 C77.7455056,41.2496214 73.9563033,40.0960944 70.0248875,41.3158074 C66.1061128,39.1820976 64.2920994,38.6967338 63.4988635,36.5913894 L60.0888975,27.5176073 C59.058639,24.7661618 56.7326566,22.7112448 53.8725832,22.0084128 L45.8770188,20.0543506 L45.8770188,18.0372542 C47.7732001,15.5221872 48.9835958,12.2191918 48.9835958,9.45513939 C48.9835958,4.23275073 44.73931,0 39.5026893,0 C34.2660687,0 30.0217829,4.23275073 30.0217829,9.45513939 C30.0217829,12.1908264 31.2037359,15.4560012 33.0651539,17.9679165 L33.0651539,20.2087846 L25.6826881,22.0147162 C22.8226146,22.7112448 20.4966322,24.7693135 19.4663737,27.5176073 L16.0532474,36.5913894 C15.2347292,38.7723749 13.1678916,39.3333798 9.34708628,41.4135105 C5.60844884,40.1276116 1.37996457,40.9186915 0.251736704,44.0704047 C-1.11035352,47.8839776 3.25718404,52.0663009 8.47800319,52.4697202 C8.11456844,53.2671036 7.89966789,54.1432798 7.89966789,55.0730352 C7.89966789,57.6007091 9.40081141,59.7627843 11.5498169,60.7681808 L25.6763675,67.0085728 C22.2758824,68.6537671 19.4410913,69.5015779 17.1877959,72.3633334 C15.7308966,74.213389 15.3200573,76.1422375 16.0248047,77.7937352 C17.5733528,81.4182053 23.1133624,81.3520193 27.3481673,79.5492394 C29.196944,78.7644628 30.8023775,77.6708183 32.0159336,76.4290434 L39.5058496,73.1197446 L46.9957657,76.4290434 C48.2093218,77.6708183 49.8147552,78.7676145 51.6603717,79.5492394 C56.4197867,81.5726392 61.5679189,81.1187925 62.9868946,77.7937352 C65.4171669,72.1017412 56.4924737,68.5403054 53.3321715,67.0117245 L67.4587221,60.7713325 C69.6045673,59.7627843 71.1057108,57.6007091 71.1057108,55.0730352 C71.1057108,54.1369764 70.8813293,53.2639519 70.511574,52.4665685 C75.9915379,52.0599975 80.0620071,47.7295436 78.753642,44.0735564 Z M39.5026893,3.15171313 C42.9885026,3.15171313 45.8232936,5.9787998 45.8232936,9.45513939 C45.8232936,13.2970777 42.5555412,18.7589965 39.5026893,18.7589965 C36.4498375,18.7589965 33.1820851,13.2970777 33.1820851,9.45513939 C33.1820851,5.9787998 36.0168761,3.15171313 39.5026893,3.15171313 Z M42.6882739,20.9494372 L39.4932084,24.4194733 L36.225456,20.9147683 C37.2525542,21.523049 38.3460188,21.9107097 39.5026893,21.9107097 C40.6245966,21.9107097 41.6896184,21.5262007 42.6882739,20.9494372 Z M19.0112902,37.7007924 L22.4244166,28.6270103 C23.0912403,26.8557476 24.5892235,25.5288763 26.4316797,25.0781814 L34.0511681,23.2155189 L36.8385546,26.2064947 C38.2764921,27.7476824 40.7257263,27.741379 42.1541828,26.1907361 L45.0047754,23.0957538 L53.1235916,25.0813331 C54.9660477,25.5320281 56.464031,26.8588993 57.1308547,28.6301621 L60.5408207,37.7039442 C61.6753692,40.7232853 63.8022525,41.5238205 66.6275627,43.0618565 C66.0492274,43.5093997 65.5246172,43.9979153 65.1074573,44.5368582 C64.5322823,45.2838142 64.1562064,46.0843494 63.9823898,46.8817328 C61.119156,45.6872335 59.1028832,44.9623395 57.3647171,41.9493017 L52.9940192,34.3568248 C52.4314854,33.376642 50.9271816,33.7769096 50.9271816,34.9052229 L50.9271816,50.7488848 L57.6428237,51.5525716 L39.5026893,60.3206376 L21.3593947,51.5462682 L28.6217691,50.6795471 L28.6217691,34.9272849 C28.6217691,33.7926682 27.1079843,33.4081592 26.5454505,34.3946454 C20.3860217,45.2270834 20.9675173,44.6251062 15.0640729,47.0865941 C14.8238899,45.6998404 13.935845,44.3446037 12.5958769,43.2383524 C15.5033549,41.6561924 17.8546197,40.792623 19.0112902,37.7007924 Z M60.1521036,48.6687541 L54.090644,47.9438601 L54.090644,42.5827961 L54.6247351,43.5093997 C55.9014972,45.7345092 57.8482433,47.5404408 60.1521036,48.6687541 Z M19.573824,48.5836579 C22.5539889,47.0676839 23.966644,45.1829594 25.4646272,42.5827961 L25.4646272,47.8808258 L19.573824,48.5836579 Z M6.76511942,48.9398015 C5.21657137,48.3914034 2.69781056,46.6075337 3.22874132,45.132532 C3.75335148,43.6543785 6.82832547,43.8623916 8.38003382,44.4107897 C10.8671916,45.2964211 12.2988085,47.1527801 11.9195722,48.2180592 C11.5340154,49.2896416 9.24595661,49.8254328 6.76511942,48.9398015 Z M12.8929453,57.9158805 C11.7615571,57.3863926 11.05997,56.2990516 11.05997,55.0730352 C11.05997,52.8416223 13.3859524,51.054601 15.860469,52.3877756 L35.8809831,62.0698384 L29.3992034,65.2057929 L12.8929453,57.9158805 Z M26.1061686,76.6465116 C24.2321094,77.4407433 19.6844346,78.3295264 18.9291224,76.5551119 C18.1674896,74.7775457 21.9756536,72.1206515 23.8339113,71.3295715 C25.6795278,70.544795 30.2398438,69.621343 31.0109575,71.4241229 C31.7789109,73.2079926 27.9739071,75.8522799 26.1061686,76.6465116 Z M44.7993557,72.0103416 L43.4025022,71.3926058 L44.9510502,70.708684 C44.8341191,71.1310136 44.7835542,71.5627983 44.7993557,72.0103416 Z M55.1683071,71.3295715 C58.8563797,72.8991247 60.5376604,75.4709226 60.0762563,76.5551119 C59.3209441,78.3295264 54.7764296,77.4470467 52.8992101,76.6465116 C51.025151,75.8522799 47.2327884,73.2048408 47.9912609,71.4209712 C48.7718555,69.5961293 53.31637,70.5416432 55.1683071,71.3295715 Z M66.1756394,57.887515 L34.2060229,72.0103416 C34.2281451,71.3831506 34.1680993,70.7654149 33.9215958,70.1918031 C33.453871,69.0950069 32.5247422,68.3007752 31.2890641,67.7996528 L63.283963,52.3215896 C65.4456097,51.1365455 67.9454086,52.7470709 67.9454086,55.0730352 C67.9454086,56.2990516 67.2438216,57.3863926 66.1756394,57.887515 Z M72.2402593,48.9398015 C70.6632685,49.5008064 67.6198975,49.6899092 67.0858065,48.2212109 C66.5643566,46.7399057 69.0641556,44.9654912 70.6221846,44.4139414 C72.1928547,43.8529365 75.239386,43.6449234 75.7766374,45.132532 C76.2980872,46.6106855 73.8046088,48.3850999 72.2402593,48.9398015 Z" id="Shape"></path>
                </g>
            </g>
        </g>
    </g>
</svg>