<?xml version="1.0" encoding="UTF-8" standalone="no"?>
<svg width="297px" height="413px" viewBox="0 0 297 413" version="1.1" xmlns="http://www.w3.org/2000/svg" xmlns:xlink="http://www.w3.org/1999/xlink">
    <!-- Generator: Sketch 47.1 (45422) - http://www.bohemiancoding.com/sketch -->
    <title>Group 2</title>
    <desc>Created with Sketch.</desc>
    <defs>
        <filter x="-3.9%" y="-2.8%" width="107.8%" height="107.9%" filterUnits="objectBoundingBox" id="filter-1">
            <feOffset dx="0" dy="2" in="SourceAlpha" result="shadowOffsetOuter1"></feOffset>
            <feGaussianBlur stdDeviation="2" in="shadowOffsetOuter1" result="shadowBlurOuter1"></feGaussianBlur>
            <feColorMatrix values="0 0 0 0 1   0 0 0 0 1   0 0 0 0 1  0 0 0 0.5 0" type="matrix" in="shadowBlurOuter1" result="shadowMatrixOuter1"></feColorMatrix>
            <feMerge>
                <feMergeNode in="shadowMatrixOuter1"></feMergeNode>
                <feMergeNode in="SourceGraphic"></feMergeNode>
            </feMerge>
        </filter>
    </defs>
    <g id="Page-2" stroke="none" stroke-width="1" fill="none" fill-rule="evenodd">
        <g id="Desktop-HD" transform="translate(-120.000000, -449.000000)">
            <g id="Group-2" transform="translate(125.000000, 454.000000)">
                <path d="M162.10988,366.958887 C213.797258,285.984186 287,222.728262 287,143.484153 C287,64.2400434 222.752862,0 143.5,0 C64.2471384,0 0,64.2400434 0,143.484153 C0,203.383307 65.2487338,288.884396 123.299846,366.958887 C159.19437,415.234391 128.64597,414.79251 162.10988,366.958887 Z" id="Oval" stroke="#000000" stroke-width="10" fill-opacity="0.463258605" fill="#FFFFFF"></path>
                <g id="building-with-columns-and-rounded-roof" filter="url(#filter-1)" transform="translate(55.000000, 38.000000)" fill-rule="nonzero" fill="#1D1D1B">
                    <g id="city-hall">
                        <rect id="Rectangle-path" x="0" y="172.379789" width="178.998602" height="5.44394922"></rect>
                        <rect id="Rectangle-path" x="0" y="72.8753555" width="178.998602" height="5.44394922"></rect>
                        <rect id="Rectangle-path" x="33.5625" y="64.201332" width="111.873602" height="5.44394922"></rect>
                        <rect id="Rectangle-path" x="75.515625" y="44.7339727" width="5.59375" height="5.44394922"></rect>
                        <rect id="Rectangle-path" x="86.7017266" y="44.7339727" width="5.59375" height="5.44394922"></rect>
                        <rect id="Rectangle-path" x="97.8916738" y="44.7339727" width="5.59375" height="5.44394922"></rect>
                        <rect id="Rectangle-path" x="53.1392266" y="164.326332" width="72.7197988" height="5.44394922"></rect>
                        <path d="M55.9972832,83.6714727 L55.9972832,105.802922 L72.6593164,105.802922 L72.6593164,83.6714727 L55.9972832,83.6714727 L55.9972832,83.6714727 Z M67.1847832,100.35932 L61.4718164,100.35932 L61.4718164,89.1157695 L67.1847832,89.1157695 L67.1847832,100.35932 L67.1847832,100.35932 Z" id="Shape"></path>
                        <path d="M81.1688086,83.6714727 L81.1688086,105.802922 L97.8308418,105.802922 L97.8308418,83.6714727 L81.1688086,83.6714727 L81.1688086,83.6714727 Z M92.3566582,100.35932 L86.6433418,100.35932 L86.6433418,89.1157695 L92.3563086,89.1157695 L92.3563086,100.35932 L92.3566582,100.35932 Z" id="Shape"></path>
                        <path d="M106.340684,105.80327 L123.002717,105.80327 L123.002717,83.6718203 L106.340684,83.6718203 L106.340684,105.80327 Z M111.815217,89.1154219 L117.528184,89.1154219 L117.528184,100.358973 L111.815217,100.358973 L111.815217,89.1154219 Z" id="Shape"></path>
                        <path d="M55.9972832,128.052922 L61.5906836,128.052922 L61.5906836,155.983973 L58.734375,155.983973 L58.734375,161.427922 L120.265625,161.427922 L120.265625,155.983973 L117.409316,155.983973 L117.409316,128.052922 L123.002717,128.052922 L123.002717,111.483973 L55.9972832,111.483973 L55.9972832,128.052922 Z M86.7629082,155.983973 L78.2530664,155.983973 L78.2530664,136.396672 L86.7625586,136.396672 L86.7625586,155.983973 L86.7629082,155.983973 Z M100.747283,155.983973 L92.2374414,155.983973 L92.2374414,136.396672 L100.747283,136.396672 L100.747283,155.983973 Z M111.934434,155.983973 L106.221816,155.983973 L106.221816,130.952723 L72.7781836,130.952723 L72.7781836,155.983973 L67.0655664,155.983973 L67.0655664,128.052922 L111.934434,128.052922 L111.934434,155.983973 L111.934434,155.983973 Z M61.4718164,116.92827 L117.528184,116.92827 L117.528184,122.60932 L61.4718164,122.60932 L61.4718164,116.92827 Z" id="Shape"></path>
                        <polygon id="Shape" points="5.65318359 80.8307734 5.65318359 169.831121 11.1277168 169.831121 11.1277168 153.084172 58.7347246 153.084172 58.7347246 147.640223 11.1277168 147.640223 11.1277168 80.8307734"></polygon>
                        <polygon id="Shape" points="120.265275 153.084172 167.872283 153.084172 167.872283 169.831121 173.346467 169.831121 173.346467 80.8307734 167.872283 80.8307734 167.872283 147.640223 120.265275 147.640223"></polygon>
                        <path d="M22.4347832,83.6714727 L22.4347832,141.958824 L44.6905664,141.958824 L44.6905664,83.6714727 L22.4347832,83.6714727 Z M39.2156836,136.515223 L27.9093164,136.515223 L27.9093164,128.05327 L39.2156836,128.05327 L39.2156836,136.515223 Z M39.2156836,122.608973 L27.9093164,122.608973 L27.9093164,89.1154219 L39.2156836,89.1154219 L39.2156836,122.608973 Z" id="Shape"></path>
                        <path d="M134.309783,83.6714727 L134.309783,141.958824 L156.565217,141.958824 L156.565217,83.6714727 L134.309783,83.6714727 Z M151.090684,136.515223 L139.784316,136.515223 L139.784316,128.05327 L151.090684,128.05327 L151.090684,136.515223 L151.090684,136.515223 Z M151.090684,122.608973 L139.784316,122.608973 L139.784316,89.1154219 L151.090684,89.1154219 L151.090684,122.608973 L151.090684,122.608973 Z" id="Shape"></path>
                        <path d="M125.859725,55.8589727 L120.206541,55.8589727 L120.206541,36.3307734 C120.206541,20.4119414 107.890852,7.30669141 92.2374414,5.9240625 L92.2374414,0.174871094 L86.7629082,0.174871094 L86.7629082,5.92441016 C71.1101973,7.30669141 58.7941582,20.4122891 58.7941582,36.3311211 L58.7941582,55.8593203 L53.1409746,55.8593203 L53.1409746,61.3032695 L125.859725,61.3032695 L125.859725,55.8589727 L125.859725,55.8589727 Z M89.5,11.2407695 C102.487988,11.2407695 113.215402,21.049543 114.583773,33.6093203 L64.4162266,33.6093203 C65.7845977,21.049543 76.5123613,11.2407695 89.5,11.2407695 Z M114.731309,55.8589727 L64.2686914,55.8589727 L64.2686914,39.0529219 L114.731309,39.0529219 L114.731309,55.8589727 Z" id="Shape"></path>
                    </g>
                </g>
            </g>
        </g>
    </g>
</svg>