<?xml version="1.0" encoding="iso-8859-1"?>
<!-- Generator: Adobe Illustrator 19.0.0, SVG Export Plug-In . SVG Version: 6.00 Build 0)  -->
<svg version="1.1" id="Capa_1" xmlns="http://www.w3.org/2000/svg" xmlns:xlink="http://www.w3.org/1999/xlink" x="0px" y="0px"
	 viewBox="0 0 495.935 495.935" style="enable-background:new 0 0 495.935 495.935;" xml:space="preserve">
<g>
	<g>
		<path d="M492.192,274.151c-0.393-0.491-0.813-0.96-1.258-1.405l-17.355-17.354c9.486-14.881,11.174-33.435,4.528-49.783
			l0.701-0.401c0.281-0.214,0.548-0.448,0.798-0.698c0.484-0.339,0.931-0.729,1.332-1.164c0.659-0.85,1.201-1.784,1.611-2.779
			c0.177-0.56,0.293-1.137,0.348-1.722c0.093-0.344,0.164-0.693,0.21-1.046v-31.746c-0.05-0.407-0.131-0.809-0.243-1.203
			c0.907-3.642-0.761-7.436-4.057-9.23l-230.4-131.658c-2.623-1.5-5.844-1.5-8.467,0L9.542,155.621
			c-3.297,1.794-4.965,5.589-4.057,9.231c-0.111,0.394-0.193,0.796-0.243,1.203V197.8c0.047,0.352,0.117,0.701,0.21,1.043
			c0.054,0.588,0.172,1.169,0.35,1.732c0.189,0.5,0.426,0.981,0.708,1.434c0.256,0.476,0.559,0.926,0.905,1.342
			c0.399,0.432,0.843,0.819,1.325,1.157c0.251,0.251,0.519,0.485,0.802,0.701l0.701,0.401c-5.959,14.737-5.23,31.336,1.999,45.494
			L2.875,265.15c-2.527,3.762-3.439,8.38-2.533,12.821c0.874,4.443,3.491,8.35,7.267,10.85l2.586,1.724L9.567,290.9
			c-2.643,1.497-4.291,4.287-4.325,7.325c0.003,0.65,0.082,1.297,0.233,1.929c-0.106,0.379-0.184,0.765-0.233,1.155v31.742
			c0.047,0.353,0.117,0.702,0.21,1.045c0.055,0.586,0.171,1.164,0.348,1.725c0.19,0.504,0.43,0.989,0.715,1.446
			c0.254,0.472,0.555,0.918,0.897,1.331c0.401,0.434,0.847,0.824,1.331,1.163c0.25,0.251,0.517,0.484,0.799,0.698l46.9,26.813
			v29.183c-0.004,4.709,3.81,8.529,8.519,8.533c0.005,0,0.009,0,0.014,0c0.622,0,1.243-0.068,1.85-0.204l39.779-8.848
			l133.338,76.194c1.211,0.659,2.572,0.992,3.95,0.967c1.759-0.001,3.489-0.451,5.025-1.308l145.925-83.36l52.867,7.93
			c0.419,0.065,0.843,0.097,1.267,0.096c4.712-0.001,8.532-3.821,8.533-8.533v-35.322l21.292-12.136
			c0.281-0.214,0.548-0.447,0.798-0.696c0.487-0.34,0.936-0.732,1.34-1.168c0.658-0.85,1.201-1.784,1.613-2.778
			c0.176-0.56,0.292-1.137,0.346-1.721c0.094-0.345,0.165-0.695,0.212-1.05v-29.773l6.425-5.14
			C496.892,292.248,498.082,281.508,492.192,274.151z M244.175,41.2l213.2,121.829l-213.2,121.825l-213.2-121.825L244.175,41.2z
			 M466.042,177.733v15.116L252.708,314.761v-15.127L466.042,177.733z M22.308,177.733l213.333,121.902v15.127L22.308,192.849
			V177.733z M56.442,347.614L22.308,328.1v-15.061l5.235,2.998l1.94,7.758c1.89,7.604,8.723,12.938,16.558,12.925h10.4V347.614z
			 M56.442,319.654H46.033l-2.856-11.428l-0.016-0.066l-3.245-12.985c-1.025-4.116-3.552-7.7-7.083-10.05L17.075,274.62
			l7.898-11.846l31.469,18.155V319.654z M73.508,385.813v-95.036L192.4,359.371L73.508,385.813z M131.364,390.429l19.059-4.239
			l2.106,1.202l4.246,12.675c0.983,3.115,2.849,5.877,5.372,7.952L131.364,390.429z M235.642,450.015l-68.864-39.35
			c3.31,1.277,6.929,1.521,10.38,0.702l0,0l18.133-4.546l3.541,13.929c2.145,9.124,11.279,14.781,20.403,12.637
			c1.998-0.47,3.895-1.298,5.597-2.445l1.808-1.198l9,5.124V450.015z M252.708,449.968v-15.112l3.094-1.767l2.498,1.244
			c4.033,2.073,8.732,2.432,13.033,0.996c4.32-1.416,7.896-4.498,9.933-8.563l4.692-9.471c0.169-0.345,0.314-0.701,0.433-1.067
			l5.425-16.25l19.083,9.542c3.16,1.485,6.696,1.978,10.142,1.413L252.708,449.968z M318.392,394.184l-18.942-9.471
			c-8.409-4.203-18.634-0.794-22.838,7.615c-0.363,0.726-0.673,1.477-0.929,2.247l-5.275,15.654l-4.425,8.867l-22.092-11.004
			c-5.469-2.728-11.977-2.332-17.075,1.037l-11.408,7.563l-3.558-14.008c-2.295-9.151-11.556-14.724-20.717-12.467l-18.142,4.538
			l-4.234-12.643l45.511-10.123l17.115,9.874c7.921,4.55,17.662,4.55,25.583,0l19.567-11.289c0.181,0.039,0.322,0.157,0.508,0.184
			l52.99,7.948L318.392,394.184z M331.598,404.902c0.146-0.18,0.321-0.327,0.461-0.515l17.156-22.803l18.377,2.757L331.598,404.902z
			 M440.442,378.013l-140.321-21.047l140.321-80.959V378.013z M248.433,367.079c-2.636,1.517-5.88,1.517-8.516,0l-19.412-11.199
			c-0.166-0.112-0.338-0.195-0.51-0.295L28.408,245.054c-5.465-9.334-6.585-20.589-3.067-30.817l214.6,122.637
			c2.623,1.5,5.844,1.5,8.467,0l214.6-122.637c3.519,10.228,2.399,21.483-3.067,30.817L248.433,367.079z M466.042,328.093
			l-8.533,4.864v-9.2l8.533-6.827V328.093z M457.508,301.899V266.16l1.906-1.1c0.177,0.311,0.376,0.61,0.594,0.894l18.859,18.859
			L457.508,301.899z"/>
	</g>
</g>
<g>
</g>
<g>
</g>
<g>
</g>
<g>
</g>
<g>
</g>
<g>
</g>
<g>
</g>
<g>
</g>
<g>
</g>
<g>
</g>
<g>
</g>
<g>
</g>
<g>
</g>
<g>
</g>
<g>
</g>
</svg>
