<?xml version="1.0" encoding="UTF-8" standalone="no"?>
<svg width="168px" height="220px" viewBox="0 0 168 220" version="1.1" xmlns="http://www.w3.org/2000/svg" xmlns:xlink="http://www.w3.org/1999/xlink">
    <!-- Generator: Sketch 47.1 (45422) - http://www.bohemiancoding.com/sketch -->
    <title>Shape</title>
    <desc>Created with Sketch.</desc>
    <defs></defs>
    <g id="Page-2" stroke="none" stroke-width="1" fill="none" fill-rule="evenodd">
        <g id="Desktop-HD" transform="translate(-714.000000, -1197.000000)" fill-rule="nonzero" fill="#FFFFFF">
            <g id="user" transform="translate(714.000000, 1197.000000)">
                <path d="M135.057175,142.854916 C134.881739,142.83601 109.477077,143.583235 105.699806,116.445085 C109.896918,113.525794 113.765141,109.735958 117.173004,105.137451 C123.802519,96.1913746 128.074202,84.9688184 129.5958,72.8297406 C130.118661,72.3583743 130.551433,71.771852 130.842822,71.0804862 C133.595924,64.5428036 134.992087,57.5621141 134.992087,50.331347 C134.992087,22.578745 113.99101,0 88.1755596,0 C81.4240586,0 74.873857,1.55030947 68.6874596,4.61182693 C66.3274731,4.79143595 64.0149019,5.20522421 61.7971612,5.84373859 C51.1946796,8.89752168 42.5668278,16.7337173 37.5024477,27.9098674 C32.5859171,38.7611743 31.6169217,51.535329 34.7747775,63.8797971 C35.4420395,66.4875655 36.2903415,69.0502167 37.2964069,71.4985713 C37.5688291,72.1607184 37.9748761,72.7257564 38.4623911,73.1906774 C40.9271221,92.1377107 49.9709351,107.836313 62.3023492,116.407273 C58.5134395,143.591399 33.11783,142.836869 32.9428246,142.855776 C14.6741587,143.473665 0,158.471019 0,176.829811 L0,215.046572 C0,217.782387 2.22463746,220 4.96911851,220 L48.6045137,220 L119.394193,220 L163.03045,220 C165.7745,220 168,217.782387 168,215.046572 L168,176.829811 C167.999569,158.470159 153.326703,143.472376 135.057175,142.854916 Z M64.6149289,15.4566097 C66.4249752,14.9339031 68.3365596,14.6239759 70.2967618,14.5358552 C71.0243083,14.503186 71.7355055,14.3110397 72.3804447,13.9723121 C77.4018496,11.3364266 82.7214151,10 88.1907063,10 C108.487146,10 125,28.1412714 125,50.4401234 C125,51.1094113 124.981069,51.7752604 124.951812,52.4385304 C121.015059,48.4442955 115.545337,45.9618691 109.505109,45.9618691 L75.7002254,45.9618691 C73.6888238,45.9618691 71.7798209,45.3308385 70.1788743,44.1366946 C68.8119818,43.1175028 67.7552968,41.7475473 67.1241254,40.175129 C66.1466058,37.7429959 63.7363659,36.2217306 61.1127239,36.3863659 C58.4796164,36.5540103 56.2638478,38.3809042 55.598687,40.9338272 C53.6397755,48.4546121 49.7335692,55.3821938 44.374421,61 C39.3878661,40.4962324 48.3873284,20.1407657 64.6149289,15.4566097 Z M60.0253227,101.461763 C53.5686898,93.5686734 49.3403076,82.9100306 48,71.2409552 C54.2612251,65.6568721 59.2109803,58.7078867 62.4334862,51 C62.9224359,51.4513783 63.4359192,51.8782064 63.9722144,52.2791922 C67.3018932,54.7656489 71.2642799,56.0805896 75.4324042,56.0805896 L109.250423,56.0805896 C114.03533,56.0805896 118.159552,58.9525268 120,63.0627393 C119.994405,91.1963534 103.741991,114 83.764779,114 C75.0704264,114.000431 66.6390564,109.547377 60.0253227,101.461763 Z M71.5527757,121 C75.5215566,122.425935 79.6961808,123.188704 84.0015199,123.188704 C88.2725518,123.188704 92.445439,122.450512 96.440276,121.026302 C98.2733238,130.508532 103.583126,138.77309 111,144.4626 L84.7115491,181.634354 C84.540013,181.877112 84.3015996,182 84.0028227,182 C83.7044802,182 83.4660667,181.876681 83.2949649,181.634785 L57,144.454407 C64.417308,138.758429 69.7253734,130.487835 71.5527757,121 Z M158,210 L119.365313,210 L48.6342562,210 L10,210 L10,176.96552 C10,163.770163 20.8348883,153.034907 34.152709,153.034907 C34.3335991,153.034907 42.323344,152.842451 48.6364097,150 L75.1794526,187.45242 C77.1968082,190.299565 80.4976225,191.999232 84.0086138,191.999232 C87.5196052,191.999232 90.8208501,190.299565 92.8382058,187.45242 L119.376511,150.005974 C126.576369,153.035333 133.666832,153.035333 133.847722,153.035333 C147.165542,153.035333 158,163.77059 158,176.965947 L158,210 Z" id="Shape"></path>
            </g>
        </g>
    </g>
</svg>